<svg xmlns="http://www.w3.org/2000/svg" width="24" height="24.005" viewBox="0 0 24 24.005"><path d="M16.286,7.919C15.584,3.6,13.929.563,12,.563S8.421,3.6,7.719,7.919ZM7.356,12.565a30.335,30.335,0,0,0,.16,3.1h8.968a30.335,30.335,0,0,0,.16-3.1,30.335,30.335,0,0,0-.16-3.1H7.516A30.335,30.335,0,0,0,7.356,12.565ZM23.071,7.919a12.028,12.028,0,0,0-7.647-6.853,16.334,16.334,0,0,1,2.42,6.853ZM8.576,1.066A12.02,12.02,0,0,0,.934,7.919H6.161A16.268,16.268,0,0,1,8.576,1.066Zm15.013,8.4H18.038c.1,1.016.16,2.057.16,3.1s-.058,2.081-.16,3.1h5.546a11.9,11.9,0,0,0,.416-3.1A12.107,12.107,0,0,0,23.589,9.468Zm-17.781,3.1c0-1.041.058-2.081.16-3.1H.416a11.733,11.733,0,0,0,0,6.195H5.962C5.866,14.646,5.808,13.605,5.808,12.565Zm1.912,4.646c.7,4.322,2.357,7.356,4.283,7.356s3.581-3.034,4.283-7.356Zm7.71,6.853a12.039,12.039,0,0,0,7.647-6.853H17.849a16.334,16.334,0,0,1-2.42,6.853ZM.934,17.211a12.028,12.028,0,0,0,7.647,6.853,16.334,16.334,0,0,1-2.42-6.853H.934Z" transform="translate(0 -0.563)" fill="#fd813a"/></svg>