<svg xmlns="http://www.w3.org/2000/svg" width="21.417" height="16.062" viewBox="0 0 21.417 16.062"><path d="M21.011,9.8a.252.252,0,0,1,.406.2v8.554a2.008,2.008,0,0,1-2.008,2.008H2.008A2.008,2.008,0,0,1,0,18.555V10a.25.25,0,0,1,.406-.2c.937.728,2.179,1.652,6.446,4.752.883.644,2.372,2,3.857,1.991,1.493.013,3.012-1.372,3.861-1.991C18.836,11.46,20.074,10.532,21.011,9.8Zm-10.3,5.4c.97.017,2.368-1.221,3.07-1.732,5.551-4.028,5.973-4.38,7.253-5.383a1,1,0,0,0,.385-.791V6.508A2.008,2.008,0,0,0,19.409,4.5H2.008A2.008,2.008,0,0,0,0,6.508V7.3a1.007,1.007,0,0,0,.385.791c1.28,1,1.7,1.355,7.253,5.383C8.341,13.987,9.738,15.225,10.708,15.208Z" transform="translate(0 -4.5)" fill="#fd813a"/></svg>