<?xml version="1.0" encoding="UTF-8"?>
<svg xmlns="http://www.w3.org/2000/svg" xmlns:xlink="http://www.w3.org/1999/xlink" width="23px" height="21px" viewBox="0 0 22 21" version="1.1">
<g id="surface1">
<path style=" stroke:none;fill-rule:nonzero;fill:rgb(99.215686%,50.588235%,22.745098%);fill-opacity:1;" d="M 4.648438 0.0234375 C 4.613281 0.0390625 4.496094 0.078125 4.386719 0.113281 C 4.144531 0.199219 3.71875 0.386719 3.4375 0.535156 C 2.34375 1.113281 1.453125 1.96875 0.78125 3.089844 C 0.617188 3.371094 0.3125 3.980469 0.179688 4.304688 C 0.0390625 4.65625 0.015625 4.769531 0.00390625 5.148438 C 0 5.34375 0.00390625 5.578125 0.015625 5.714844 C 0.0273438 5.84375 0.0429688 6.066406 0.0429688 6.207031 L 0.0546875 6.46875 L 0.238281 6.871094 C 0.511719 7.472656 0.855469 8.195312 1.003906 8.488281 C 2.441406 11.273438 4.425781 13.816406 6.703125 15.78125 C 8.496094 17.332031 10.429688 18.558594 12.617188 19.535156 C 13.605469 19.976562 14.894531 20.425781 16.085938 20.742188 C 16.207031 20.773438 16.425781 20.835938 16.578125 20.878906 C 16.84375 20.957031 16.863281 20.957031 17.230469 20.976562 C 18.007812 21.019531 18.363281 20.957031 18.863281 20.707031 C 19.558594 20.355469 20.445312 19.5 21.042969 18.605469 C 21.253906 18.296875 21.460938 17.945312 21.539062 17.769531 C 21.691406 17.425781 21.90625 16.5625 21.96875 16.039062 C 21.996094 15.804688 21.996094 15.050781 21.96875 14.820312 C 21.957031 14.726562 21.941406 14.582031 21.929688 14.496094 C 21.871094 14.011719 21.746094 13.765625 21.519531 13.679688 C 21.324219 13.605469 20.644531 13.632812 18.957031 13.78125 C 16.75 13.976562 15.824219 14.074219 15.589844 14.132812 C 15.398438 14.183594 15.285156 14.410156 15.210938 14.914062 C 15.191406 15.050781 15.175781 15.214844 15.175781 15.28125 C 15.171875 15.773438 15.039062 16.058594 14.761719 16.132812 C 14.683594 16.152344 14.679688 16.152344 14.515625 16.070312 C 14.234375 15.929688 13.941406 15.714844 13.070312 15.011719 C 11.894531 14.058594 9.351562 11.921875 7.125 10.015625 C 5.429688 8.558594 5.027344 8.1875 4.984375 8.027344 C 4.957031 7.921875 4.992188 7.820312 5.09375 7.703125 C 5.253906 7.519531 5.535156 7.351562 6.117188 7.09375 C 6.464844 6.941406 6.964844 6.683594 7.089844 6.597656 C 7.199219 6.527344 7.269531 6.386719 7.269531 6.257812 C 7.269531 6.089844 7.113281 5.546875 6.789062 4.59375 C 6.742188 4.449219 6.679688 4.269531 6.652344 4.191406 C 6.597656 4.023438 6.464844 3.648438 6.34375 3.285156 C 6.296875 3.152344 6.191406 2.851562 6.113281 2.625 C 6.03125 2.390625 5.898438 2.007812 5.816406 1.769531 C 5.671875 1.347656 5.585938 1.117188 5.363281 0.574219 C 5.21875 0.21875 5.15625 0.121094 5.011719 0.0507812 C 4.914062 0.0078125 4.738281 -0.00390625 4.648438 0.0234375 Z M 4.648438 0.0234375 "/>
</g>
</svg>
