<?xml version="1.0" encoding="UTF-8"?>
<svg xmlns="http://www.w3.org/2000/svg" xmlns:xlink="http://www.w3.org/1999/xlink" width="270px" height="51px" viewBox="0 0 269 51" version="1.1">
<defs>
<filter id="alpha" filterUnits="objectBoundingBox" x="0%" y="0%" width="100%" height="100%">
  <feColorMatrix type="matrix" in="SourceGraphic" values="0 0 0 0 1 0 0 0 0 1 0 0 0 0 1 0 0 0 1 0"/>
</filter>
<mask id="mask0">
  <g filter="url(#alpha)">
<rect x="0" y="0" width="269" height="51" style="fill:rgb(0%,0%,0%);fill-opacity:0.909804;stroke:none;"/>
  </g>
</mask>
<clipPath id="clip1">
  <rect x="0" y="0" width="269" height="51"/>
</clipPath>
<g id="surface5" clip-path="url(#clip1)">
<path style=" stroke:none;fill-rule:nonzero;fill:rgb(16.862745%,21.568627%,33.333333%);fill-opacity:1;" d="M 66.71875 23.289062 C 66.597656 23.199219 66.488281 23.09375 66.390625 22.976562 C 66.300781 22.859375 66.234375 22.726562 66.195312 22.582031 C 66.15625 22.425781 66.15625 22.265625 66.195312 22.109375 C 66.253906 21.898438 66.351562 21.703125 66.484375 21.527344 L 67.203125 20.488281 C 67.367188 20.199219 67.644531 19.992188 67.96875 19.921875 C 68.320312 19.898438 68.671875 19.992188 68.964844 20.1875 L 69.464844 20.464844 C 69.65625 20.574219 69.878906 20.683594 70.136719 20.800781 C 70.410156 20.921875 70.691406 21.019531 70.980469 21.089844 C 71.308594 21.167969 71.640625 21.207031 71.976562 21.207031 C 72.445312 21.242188 72.914062 21.125 73.3125 20.871094 C 73.578125 20.683594 73.738281 20.375 73.738281 20.046875 C 73.734375 19.648438 73.527344 19.277344 73.195312 19.0625 C 72.773438 18.757812 72.316406 18.5 71.839844 18.296875 C 71.296875 18.058594 70.710938 17.800781 70.078125 17.53125 C 69.453125 17.265625 68.863281 16.925781 68.320312 16.519531 C 67.777344 16.121094 67.320312 15.621094 66.960938 15.050781 C 66.578125 14.394531 66.390625 13.640625 66.417969 12.882812 C 66.410156 12.164062 66.5625 11.457031 66.871094 10.808594 C 67.164062 10.1875 67.585938 9.640625 68.109375 9.195312 C 68.660156 8.734375 69.296875 8.382812 69.984375 8.164062 C 70.738281 7.921875 71.53125 7.800781 72.324219 7.804688 C 73.230469 7.796875 74.128906 7.933594 74.988281 8.210938 C 75.628906 8.402344 76.234375 8.679688 76.800781 9.035156 C 77.089844 9.214844 77.300781 9.5 77.378906 9.835938 C 77.417969 10.160156 77.351562 10.488281 77.195312 10.769531 L 76.636719 11.859375 C 76.40625 12.308594 76.140625 12.535156 75.835938 12.542969 C 75.511719 12.542969 75.1875 12.460938 74.902344 12.300781 C 74.515625 12.117188 74.117188 11.941406 73.707031 11.78125 C 73.253906 11.609375 72.769531 11.527344 72.28125 11.535156 C 71.792969 11.492188 71.304688 11.613281 70.890625 11.875 C 70.628906 12.066406 70.476562 12.371094 70.476562 12.695312 C 70.476562 13.097656 70.683594 13.472656 71.019531 13.691406 C 71.441406 13.988281 71.894531 14.238281 72.371094 14.433594 C 72.914062 14.667969 73.5 14.910156 74.132812 15.164062 C 74.757812 15.414062 75.351562 15.742188 75.894531 16.136719 C 76.4375 16.53125 76.898438 17.027344 77.25 17.597656 C 77.632812 18.253906 77.824219 19.003906 77.796875 19.765625 C 77.796875 20.445312 77.667969 21.117188 77.414062 21.746094 C 77.160156 22.367188 76.777344 22.929688 76.289062 23.390625 C 75.761719 23.886719 75.136719 24.269531 74.457031 24.519531 C 73.664062 24.808594 72.824219 24.949219 71.980469 24.933594 C 71.414062 24.9375 70.851562 24.882812 70.296875 24.773438 C 69.792969 24.671875 69.296875 24.539062 68.816406 24.371094 C 68.394531 24.222656 67.980469 24.042969 67.585938 23.835938 C 67.28125 23.679688 66.992188 23.496094 66.71875 23.289062 Z M 79.507812 9.359375 C 79.460938 9.007812 79.578125 8.652344 79.828125 8.402344 C 80.078125 8.152344 80.433594 8.035156 80.785156 8.085938 L 82.246094 8.085938 C 82.59375 8.035156 82.949219 8.152344 83.199219 8.402344 C 83.453125 8.652344 83.570312 9.007812 83.519531 9.359375 L 83.519531 13.324219 C 83.519531 13.476562 83.515625 13.617188 83.507812 13.738281 C 83.5 13.863281 83.496094 13.96875 83.496094 14.0625 C 83.480469 14.15625 83.472656 14.25 83.472656 14.339844 L 83.519531 14.339844 C 83.871094 13.746094 84.382812 13.261719 85.003906 12.949219 C 85.667969 12.605469 86.410156 12.433594 87.15625 12.441406 C 87.730469 12.4375 88.300781 12.515625 88.847656 12.671875 C 89.351562 12.816406 89.816406 13.074219 90.203125 13.425781 C 90.609375 13.8125 90.917969 14.28125 91.109375 14.804688 C 91.351562 15.480469 91.464844 16.199219 91.445312 16.914062 L 91.445312 23.382812 C 91.496094 23.730469 91.375 24.085938 91.125 24.335938 C 90.875 24.589844 90.519531 24.707031 90.167969 24.65625 L 88.710938 24.65625 C 88.359375 24.707031 88.003906 24.589844 87.753906 24.335938 C 87.503906 24.085938 87.382812 23.730469 87.433594 23.382812 L 87.433594 17.65625 C 87.472656 17.230469 87.359375 16.800781 87.109375 16.449219 C 86.847656 16.1875 86.484375 16.050781 86.113281 16.082031 C 85.351562 16.03125 84.617188 16.375 84.167969 16.996094 C 83.714844 17.667969 83.488281 18.46875 83.519531 19.277344 L 83.519531 23.382812 C 83.570312 23.730469 83.449219 24.085938 83.199219 24.335938 C 82.949219 24.589844 82.59375 24.707031 82.242188 24.65625 L 80.785156 24.65625 C 80.433594 24.707031 80.078125 24.589844 79.828125 24.335938 C 79.578125 24.085938 79.457031 23.730469 79.507812 23.382812 Z M 94.96875 11.214844 C 94.617188 11.261719 94.261719 11.144531 94.011719 10.894531 C 93.761719 10.644531 93.640625 10.289062 93.691406 9.9375 L 93.691406 9.359375 C 93.640625 9.007812 93.761719 8.652344 94.011719 8.402344 C 94.261719 8.152344 94.617188 8.035156 94.96875 8.085938 L 96.335938 8.085938 C 96.683594 8.035156 97.039062 8.152344 97.289062 8.402344 C 97.542969 8.652344 97.660156 9.007812 97.609375 9.359375 L 97.609375 9.9375 C 97.660156 10.289062 97.542969 10.644531 97.289062 10.894531 C 97.039062 11.144531 96.683594 11.261719 96.335938 11.214844 Z M 93.644531 13.996094 C 93.59375 13.644531 93.714844 13.289062 93.964844 13.039062 C 94.214844 12.789062 94.570312 12.667969 94.921875 12.71875 L 96.378906 12.71875 C 96.730469 12.667969 97.085938 12.789062 97.335938 13.039062 C 97.585938 13.289062 97.707031 13.644531 97.65625 13.996094 L 97.65625 23.382812 C 97.707031 23.730469 97.585938 24.085938 97.335938 24.335938 C 97.085938 24.589844 96.730469 24.707031 96.378906 24.65625 L 94.921875 24.65625 C 94.570312 24.707031 94.214844 24.589844 93.964844 24.335938 C 93.714844 24.085938 93.59375 23.730469 93.644531 23.382812 Z M 100.042969 9.359375 C 99.992188 9.007812 100.109375 8.652344 100.359375 8.402344 C 100.613281 8.152344 100.964844 8.035156 101.316406 8.085938 L 102.777344 8.085938 C 103.128906 8.035156 103.480469 8.152344 103.734375 8.402344 C 103.984375 8.652344 104.101562 9.007812 104.050781 9.359375 L 104.050781 16.660156 L 105.1875 16.660156 L 107.039062 13.578125 C 107.332031 13.023438 107.921875 12.6875 108.550781 12.71875 L 110.078125 12.71875 C 110.605469 12.71875 110.945312 12.867188 111.097656 13.160156 C 111.246094 13.53125 111.171875 13.949219 110.914062 14.25 L 108.410156 18.144531 L 108.410156 18.191406 L 111.445312 23.125 C 111.695312 23.4375 111.753906 23.859375 111.609375 24.226562 C 111.457031 24.515625 111.113281 24.65625 110.589844 24.65625 L 108.851562 24.65625 C 108.214844 24.675781 107.625 24.324219 107.34375 23.753906 L 105.304688 20.019531 L 104.050781 20.019531 L 104.050781 23.382812 C 104.101562 23.730469 103.984375 24.085938 103.730469 24.335938 C 103.480469 24.589844 103.128906 24.707031 102.777344 24.65625 L 101.316406 24.65625 C 100.964844 24.707031 100.613281 24.589844 100.359375 24.335938 C 100.109375 24.085938 99.992188 23.730469 100.042969 23.382812 Z M 113.226562 23.84375 C 112.917969 23.703125 112.695312 23.417969 112.636719 23.082031 C 112.609375 22.726562 112.703125 22.375 112.902344 22.085938 L 113.25 21.550781 C 113.414062 21.261719 113.683594 21.054688 114.003906 20.972656 C 114.355469 20.941406 114.703125 21.011719 115.011719 21.179688 C 115.304688 21.304688 115.636719 21.4375 116.007812 21.585938 C 116.414062 21.738281 116.847656 21.8125 117.285156 21.804688 C 117.578125 21.835938 117.875 21.765625 118.128906 21.613281 C 118.28125 21.5 118.371094 21.324219 118.371094 21.136719 C 118.359375 20.882812 118.195312 20.664062 117.957031 20.578125 C 117.625 20.417969 117.277344 20.285156 116.925781 20.175781 C 116.515625 20.042969 116.066406 19.894531 115.582031 19.734375 C 115.101562 19.578125 114.648438 19.351562 114.238281 19.0625 C 113.820312 18.765625 113.46875 18.386719 113.207031 17.949219 C 112.910156 17.421875 112.765625 16.824219 112.789062 16.222656 C 112.777344 15.652344 112.90625 15.089844 113.167969 14.585938 C 113.425781 14.113281 113.785156 13.710938 114.222656 13.402344 C 114.703125 13.074219 115.238281 12.828125 115.800781 12.683594 C 116.433594 12.519531 117.089844 12.4375 117.746094 12.441406 C 118.414062 12.429688 119.082031 12.515625 119.726562 12.695312 C 120.207031 12.835938 120.675781 13.003906 121.128906 13.207031 C 121.445312 13.328125 121.675781 13.597656 121.753906 13.925781 C 121.8125 14.265625 121.753906 14.617188 121.59375 14.921875 L 121.3125 15.476562 C 121.203125 15.792969 120.957031 16.039062 120.640625 16.148438 C 120.296875 16.222656 119.941406 16.179688 119.621094 16.035156 C 119.34375 15.925781 119.035156 15.820312 118.695312 15.722656 C 118.332031 15.617188 117.957031 15.566406 117.582031 15.570312 C 117.285156 15.539062 116.984375 15.601562 116.726562 15.757812 C 116.59375 15.863281 116.515625 16.027344 116.515625 16.195312 C 116.53125 16.445312 116.695312 16.664062 116.933594 16.742188 C 117.269531 16.894531 117.613281 17.027344 117.964844 17.136719 C 118.375 17.265625 118.820312 17.410156 119.308594 17.5625 C 119.789062 17.714844 120.242188 17.9375 120.652344 18.226562 C 121.066406 18.515625 121.417969 18.886719 121.683594 19.3125 C 121.980469 19.832031 122.125 20.421875 122.101562 21.019531 C 122.105469 21.554688 121.988281 22.085938 121.765625 22.570312 C 121.539062 23.050781 121.203125 23.476562 120.789062 23.8125 C 120.328125 24.179688 119.800781 24.457031 119.238281 24.632812 C 118.574219 24.84375 117.882812 24.945312 117.1875 24.933594 C 116.390625 24.949219 115.597656 24.828125 114.84375 24.574219 C 114.285156 24.382812 113.742188 24.136719 113.226562 23.84375 Z M 123.910156 9.359375 C 123.863281 9.007812 123.980469 8.652344 124.230469 8.402344 C 124.480469 8.152344 124.835938 8.035156 125.1875 8.085938 L 126.644531 8.085938 C 126.996094 8.035156 127.351562 8.152344 127.601562 8.402344 C 127.851562 8.652344 127.96875 9.007812 127.921875 9.359375 L 127.921875 13.324219 C 127.921875 13.476562 127.917969 13.617188 127.910156 13.738281 C 127.902344 13.863281 127.898438 13.96875 127.898438 14.0625 C 127.882812 14.15625 127.875 14.25 127.875 14.339844 L 127.921875 14.339844 C 128.269531 13.746094 128.785156 13.261719 129.402344 12.953125 C 130.070312 12.609375 130.808594 12.433594 131.558594 12.441406 C 132.128906 12.4375 132.699219 12.515625 133.25 12.671875 C 133.753906 12.816406 134.21875 13.074219 134.605469 13.425781 C 135.007812 13.8125 135.316406 14.285156 135.507812 14.804688 C 135.75 15.480469 135.863281 16.199219 135.84375 16.914062 L 135.84375 23.382812 C 135.894531 23.730469 135.777344 24.085938 135.527344 24.335938 C 135.277344 24.589844 134.921875 24.707031 134.570312 24.65625 L 133.109375 24.65625 C 132.757812 24.707031 132.40625 24.589844 132.15625 24.335938 C 131.902344 24.085938 131.785156 23.730469 131.835938 23.382812 L 131.835938 17.65625 C 131.875 17.230469 131.757812 16.800781 131.511719 16.449219 C 131.25 16.1875 130.886719 16.050781 130.515625 16.082031 C 129.753906 16.03125 129.019531 16.378906 128.570312 16.996094 C 128.121094 17.671875 127.890625 18.46875 127.921875 19.28125 L 127.921875 23.382812 C 127.972656 23.730469 127.855469 24.085938 127.601562 24.335938 C 127.351562 24.589844 127 24.707031 126.648438 24.65625 L 125.1875 24.65625 C 124.835938 24.707031 124.484375 24.589844 124.230469 24.335938 C 123.980469 24.085938 123.863281 23.730469 123.914062 23.382812 Z M 137.238281 21.296875 C 137.210938 20.578125 137.433594 19.871094 137.875 19.304688 C 138.316406 18.765625 138.875 18.335938 139.507812 18.050781 C 140.199219 17.734375 140.933594 17.515625 141.6875 17.402344 C 142.445312 17.28125 143.210938 17.21875 143.980469 17.21875 L 144.328125 17.21875 L 144.328125 17.007812 C 144.371094 16.597656 144.171875 16.195312 143.816406 15.976562 C 143.457031 15.777344 143.046875 15.679688 142.636719 15.6875 C 142.25 15.6875 141.871094 15.742188 141.5 15.851562 C 141.152344 15.949219 140.8125 16.074219 140.480469 16.222656 C 139.691406 16.5625 139.121094 16.375 138.765625 15.664062 L 138.484375 15.085938 C 138.324219 14.785156 138.273438 14.433594 138.347656 14.101562 C 138.445312 13.773438 138.683594 13.507812 138.996094 13.371094 C 139.542969 13.121094 140.109375 12.910156 140.6875 12.746094 C 141.441406 12.535156 142.222656 12.433594 143.003906 12.445312 C 144.421875 12.367188 145.816406 12.824219 146.90625 13.734375 C 147.886719 14.660156 148.40625 15.96875 148.332031 17.3125 L 148.332031 23.382812 C 148.382812 23.730469 148.265625 24.085938 148.015625 24.335938 C 147.761719 24.589844 147.410156 24.707031 147.058594 24.65625 L 145.949219 24.65625 C 145.59375 24.703125 145.238281 24.582031 144.988281 24.324219 C 144.734375 24.070312 144.621094 23.710938 144.675781 23.359375 L 144.675781 23.101562 C 144.671875 23.078125 144.679688 23.050781 144.699219 23.035156 L 144.652344 23.035156 C 144.417969 23.390625 144.125 23.710938 143.792969 23.984375 C 143.457031 24.257812 143.082031 24.480469 142.679688 24.644531 C 142.1875 24.84375 141.660156 24.945312 141.128906 24.933594 C 140.589844 24.941406 140.054688 24.84375 139.550781 24.65625 C 139.097656 24.484375 138.679688 24.226562 138.324219 23.890625 C 137.980469 23.5625 137.710938 23.167969 137.523438 22.730469 C 137.332031 22.277344 137.234375 21.789062 137.238281 21.296875 Z M 141.199219 20.925781 C 141.195312 21.195312 141.300781 21.453125 141.488281 21.644531 C 141.71875 21.859375 142.023438 21.96875 142.335938 21.945312 C 142.617188 21.949219 142.898438 21.878906 143.148438 21.746094 C 143.390625 21.621094 143.609375 21.449219 143.796875 21.25 C 143.976562 21.054688 144.125 20.824219 144.222656 20.578125 C 144.320312 20.34375 144.375 20.089844 144.375 19.835938 L 144.375 19.511719 L 144.003906 19.511719 C 143.683594 19.511719 143.359375 19.535156 143.042969 19.582031 C 142.734375 19.621094 142.429688 19.699219 142.136719 19.8125 C 141.886719 19.90625 141.660156 20.054688 141.464844 20.242188 C 141.285156 20.421875 141.191406 20.671875 141.199219 20.925781 Z M 150.539062 9.359375 C 150.488281 9.007812 150.605469 8.652344 150.859375 8.402344 C 151.109375 8.152344 151.460938 8.035156 151.8125 8.085938 L 153.273438 8.085938 C 153.625 8.035156 153.980469 8.152344 154.230469 8.402344 C 154.480469 8.652344 154.597656 9.007812 154.546875 9.359375 L 154.546875 16.660156 L 155.683594 16.660156 L 157.539062 13.578125 C 157.832031 13.023438 158.417969 12.6875 159.046875 12.71875 L 160.578125 12.71875 C 161.101562 12.71875 161.441406 12.867188 161.597656 13.160156 C 161.742188 13.53125 161.671875 13.949219 161.410156 14.25 L 158.910156 18.144531 L 158.910156 18.191406 L 161.945312 23.125 C 162.191406 23.4375 162.253906 23.859375 162.105469 24.226562 C 161.953125 24.515625 161.613281 24.65625 161.085938 24.65625 L 159.347656 24.65625 C 158.710938 24.675781 158.125 24.324219 157.839844 23.753906 L 155.800781 20.019531 L 154.550781 20.019531 L 154.550781 23.382812 C 154.601562 23.730469 154.480469 24.085938 154.230469 24.335938 C 153.980469 24.589844 153.625 24.707031 153.273438 24.65625 L 151.816406 24.65625 C 151.464844 24.707031 151.109375 24.589844 150.859375 24.335938 C 150.609375 24.085938 150.488281 23.730469 150.539062 23.382812 Z M 167.085938 23.289062 C 166.964844 23.199219 166.855469 23.09375 166.761719 22.976562 C 166.667969 22.859375 166.601562 22.726562 166.5625 22.582031 C 166.523438 22.425781 166.523438 22.265625 166.5625 22.109375 C 166.621094 21.898438 166.71875 21.703125 166.851562 21.527344 L 167.570312 20.488281 C 167.734375 20.199219 168.011719 19.992188 168.335938 19.921875 C 168.6875 19.898438 169.039062 19.992188 169.332031 20.1875 L 169.832031 20.464844 C 170.023438 20.574219 170.25 20.683594 170.503906 20.800781 C 170.777344 20.921875 171.058594 21.019531 171.347656 21.089844 C 171.675781 21.167969 172.011719 21.207031 172.347656 21.207031 C 172.816406 21.242188 173.28125 21.125 173.679688 20.871094 C 173.945312 20.683594 174.105469 20.375 174.105469 20.046875 C 174.101562 19.648438 173.898438 19.28125 173.5625 19.0625 C 173.140625 18.757812 172.683594 18.5 172.207031 18.296875 C 171.664062 18.058594 171.078125 17.804688 170.445312 17.53125 C 169.820312 17.265625 169.230469 16.929688 168.683594 16.523438 C 168.144531 16.125 167.683594 15.625 167.328125 15.054688 C 166.945312 14.398438 166.753906 13.644531 166.78125 12.886719 C 166.773438 12.167969 166.929688 11.460938 167.234375 10.8125 C 167.53125 10.191406 167.953125 9.644531 168.476562 9.199219 C 169.027344 8.734375 169.664062 8.382812 170.351562 8.167969 C 171.109375 7.921875 171.898438 7.800781 172.695312 7.808594 C 173.597656 7.796875 174.5 7.933594 175.359375 8.214844 C 175.996094 8.40625 176.601562 8.683594 177.167969 9.035156 C 177.457031 9.214844 177.667969 9.503906 177.746094 9.835938 C 177.785156 10.160156 177.71875 10.488281 177.558594 10.773438 L 177.003906 11.863281 C 176.773438 12.308594 176.503906 12.539062 176.203125 12.546875 C 175.875 12.546875 175.554688 12.460938 175.269531 12.300781 C 174.882812 12.117188 174.484375 11.941406 174.074219 11.78125 C 173.617188 11.609375 173.136719 11.527344 172.648438 11.539062 C 172.160156 11.496094 171.671875 11.613281 171.257812 11.875 C 170.996094 12.066406 170.84375 12.371094 170.84375 12.695312 C 170.84375 13.101562 171.046875 13.476562 171.386719 13.695312 C 171.8125 13.988281 172.265625 14.238281 172.742188 14.433594 C 173.285156 14.667969 173.871094 14.910156 174.503906 15.164062 C 175.128906 15.414062 175.722656 15.742188 176.265625 16.136719 C 176.808594 16.53125 177.269531 17.027344 177.621094 17.597656 C 178.003906 18.253906 178.195312 19.003906 178.167969 19.765625 C 178.167969 20.445312 178.039062 21.117188 177.785156 21.746094 C 177.53125 22.367188 177.148438 22.929688 176.660156 23.390625 C 176.128906 23.882812 175.507812 24.265625 174.828125 24.515625 C 174.035156 24.804688 173.195312 24.945312 172.347656 24.933594 C 171.785156 24.933594 171.222656 24.878906 170.667969 24.769531 C 170.164062 24.671875 169.671875 24.535156 169.1875 24.363281 C 168.765625 24.21875 168.351562 24.039062 167.957031 23.832031 C 167.652344 23.675781 167.359375 23.496094 167.085938 23.289062 Z M 179.203125 18.722656 C 179.191406 17.835938 179.375 16.957031 179.738281 16.148438 C 180.078125 15.398438 180.570312 14.722656 181.1875 14.167969 C 181.8125 13.609375 182.539062 13.175781 183.328125 12.894531 C 184.167969 12.589844 185.054688 12.4375 185.949219 12.441406 C 186.851562 12.433594 187.75 12.589844 188.601562 12.894531 C 189.394531 13.175781 190.128906 13.609375 190.757812 14.167969 C 191.371094 14.722656 191.863281 15.398438 192.207031 16.148438 C 192.570312 16.957031 192.75 17.835938 192.738281 18.722656 C 192.75 19.597656 192.566406 20.464844 192.207031 21.261719 C 191.863281 22.011719 191.371094 22.679688 190.757812 23.230469 C 190.132812 23.789062 189.402344 24.21875 188.613281 24.496094 C 187.765625 24.792969 186.871094 24.941406 185.972656 24.933594 C 185.070312 24.941406 184.179688 24.792969 183.328125 24.496094 C 182.539062 24.21875 181.8125 23.789062 181.1875 23.230469 C 180.574219 22.679688 180.082031 22.011719 179.738281 21.261719 C 179.375 20.464844 179.195312 19.597656 179.207031 18.722656 Z M 183.261719 18.722656 C 183.253906 19.132812 183.328125 19.539062 183.480469 19.921875 C 183.617188 20.253906 183.816406 20.558594 184.070312 20.816406 C 184.316406 21.0625 184.609375 21.253906 184.929688 21.378906 C 185.261719 21.511719 185.613281 21.578125 185.96875 21.574219 C 186.324219 21.578125 186.679688 21.511719 187.011719 21.378906 C 187.332031 21.253906 187.621094 21.0625 187.867188 20.816406 C 188.121094 20.558594 188.324219 20.253906 188.457031 19.921875 C 188.609375 19.539062 188.6875 19.132812 188.679688 18.722656 C 188.683594 18.308594 188.609375 17.898438 188.457031 17.515625 C 188.324219 17.171875 188.121094 16.863281 187.867188 16.597656 C 187.625 16.34375 187.332031 16.144531 187.011719 16.011719 C 186.679688 15.871094 186.328125 15.800781 185.96875 15.800781 C 185.613281 15.800781 185.257812 15.871094 184.929688 16.011719 C 184.605469 16.144531 184.316406 16.34375 184.070312 16.597656 C 183.816406 16.863281 183.617188 17.171875 183.480469 17.515625 C 183.328125 17.898438 183.253906 18.308594 183.261719 18.722656 Z M 194.382812 9.359375 C 194.332031 9.007812 194.453125 8.652344 194.703125 8.402344 C 194.953125 8.152344 195.308594 8.035156 195.660156 8.085938 L 197.117188 8.085938 C 197.46875 8.035156 197.824219 8.152344 198.074219 8.402344 C 198.324219 8.652344 198.445312 9.007812 198.394531 9.359375 L 198.394531 20.066406 C 198.359375 20.382812 198.429688 20.699219 198.589844 20.972656 C 198.710938 21.121094 198.878906 21.21875 199.066406 21.25 C 199.316406 21.269531 199.554688 21.375 199.738281 21.550781 C 199.925781 21.769531 200.015625 22.054688 199.992188 22.339844 L 199.992188 23.472656 C 200.011719 23.816406 199.90625 24.15625 199.691406 24.425781 C 199.425781 24.679688 199.0625 24.808594 198.695312 24.773438 C 198.179688 24.773438 197.664062 24.726562 197.152344 24.632812 C 196.648438 24.546875 196.171875 24.335938 195.765625 24.019531 C 195.320312 23.65625 194.976562 23.1875 194.765625 22.652344 C 194.484375 21.886719 194.351562 21.070312 194.386719 20.253906 Z M 201.40625 13.996094 C 201.359375 13.644531 201.476562 13.289062 201.726562 13.039062 C 201.976562 12.789062 202.332031 12.671875 202.683594 12.71875 L 204.144531 12.71875 C 204.492188 12.671875 204.847656 12.789062 205.097656 13.039062 C 205.351562 13.289062 205.46875 13.644531 205.417969 13.996094 L 205.417969 19.71875 C 205.378906 20.148438 205.496094 20.574219 205.742188 20.925781 C 205.988281 21.183594 206.335938 21.320312 206.691406 21.296875 C 207.082031 21.304688 207.472656 21.214844 207.816406 21.03125 C 208.128906 20.855469 208.398438 20.609375 208.605469 20.3125 C 208.820312 19.996094 208.976562 19.640625 209.066406 19.269531 C 209.171875 18.855469 209.222656 18.429688 209.21875 18.003906 L 209.21875 13.996094 C 209.167969 13.644531 209.285156 13.289062 209.535156 13.039062 C 209.789062 12.789062 210.140625 12.667969 210.492188 12.71875 L 211.953125 12.71875 C 212.304688 12.667969 212.660156 12.789062 212.910156 13.039062 C 213.160156 13.289062 213.277344 13.644531 213.226562 13.996094 L 213.226562 23.382812 C 213.277344 23.730469 213.160156 24.085938 212.910156 24.335938 C 212.660156 24.589844 212.304688 24.707031 211.953125 24.65625 L 210.65625 24.65625 C 210.308594 24.703125 209.957031 24.582031 209.710938 24.332031 C 209.464844 24.082031 209.351562 23.726562 209.402344 23.382812 L 209.402344 22.988281 C 209.402344 22.945312 209.410156 22.90625 209.425781 22.871094 L 209.382812 22.871094 C 209.050781 23.523438 208.523438 24.054688 207.871094 24.390625 C 207.1875 24.753906 206.421875 24.941406 205.648438 24.933594 C 205.085938 24.9375 204.527344 24.859375 203.992188 24.703125 C 203.488281 24.554688 203.023438 24.296875 202.632812 23.949219 C 202.226562 23.570312 201.917969 23.09375 201.730469 22.570312 C 201.496094 21.890625 201.386719 21.175781 201.40625 20.460938 Z M 216.398438 16.058594 L 216.050781 16.058594 C 215.703125 16.105469 215.351562 15.984375 215.105469 15.734375 C 214.859375 15.480469 214.746094 15.128906 214.800781 14.78125 L 214.800781 14.203125 C 214.75 13.851562 214.867188 13.496094 215.117188 13.246094 C 215.371094 12.996094 215.722656 12.878906 216.074219 12.929688 L 216.515625 12.929688 L 216.515625 10.773438 C 216.464844 10.421875 216.582031 10.066406 216.832031 9.816406 C 217.085938 9.566406 217.4375 9.449219 217.789062 9.496094 L 219.132812 9.496094 C 219.484375 9.449219 219.839844 9.566406 220.089844 9.816406 C 220.339844 10.066406 220.457031 10.421875 220.410156 10.773438 L 220.410156 12.929688 L 221.636719 12.929688 C 221.988281 12.878906 222.34375 12.996094 222.59375 13.246094 C 222.84375 13.496094 222.960938 13.851562 222.910156 14.203125 L 222.910156 14.78125 C 222.964844 15.128906 222.851562 15.480469 222.605469 15.734375 C 222.359375 15.984375 222.007812 16.105469 221.660156 16.058594 L 220.410156 16.058594 L 220.410156 19.671875 C 220.371094 20.085938 220.53125 20.496094 220.839844 20.773438 C 221.117188 20.996094 221.449219 21.136719 221.800781 21.179688 C 222.15625 21.199219 222.496094 21.320312 222.785156 21.527344 C 223.007812 21.78125 223.113281 22.117188 223.074219 22.457031 L 223.074219 23.496094 C 223.117188 23.878906 222.960938 24.253906 222.660156 24.492188 C 222.285156 24.703125 221.859375 24.796875 221.429688 24.769531 C 220.914062 24.761719 220.402344 24.699219 219.902344 24.585938 C 219.316406 24.457031 218.761719 24.230469 218.253906 23.914062 C 217.71875 23.578125 217.265625 23.121094 216.933594 22.578125 C 216.554688 21.921875 216.367188 21.171875 216.398438 20.414062 Z M 226.15625 11.214844 C 225.804688 11.261719 225.449219 11.144531 225.199219 10.894531 C 224.949219 10.644531 224.832031 10.289062 224.878906 9.9375 L 224.878906 9.359375 C 224.832031 9.007812 224.949219 8.652344 225.199219 8.402344 C 225.449219 8.152344 225.804688 8.035156 226.15625 8.085938 L 227.523438 8.085938 C 227.875 8.035156 228.226562 8.152344 228.480469 8.402344 C 228.730469 8.652344 228.847656 9.007812 228.796875 9.359375 L 228.796875 9.9375 C 228.847656 10.289062 228.730469 10.644531 228.480469 10.894531 C 228.226562 11.144531 227.875 11.261719 227.523438 11.214844 Z M 224.835938 13.996094 C 224.785156 13.644531 224.902344 13.289062 225.152344 13.039062 C 225.402344 12.789062 225.757812 12.667969 226.109375 12.71875 L 227.570312 12.71875 C 227.917969 12.667969 228.273438 12.789062 228.523438 13.039062 C 228.777344 13.289062 228.894531 13.644531 228.84375 13.996094 L 228.84375 23.382812 C 228.894531 23.730469 228.777344 24.085938 228.523438 24.335938 C 228.273438 24.589844 227.917969 24.707031 227.570312 24.65625 L 226.109375 24.65625 C 225.757812 24.707031 225.402344 24.589844 225.152344 24.335938 C 224.902344 24.085938 224.785156 23.730469 224.835938 23.382812 Z M 230.535156 18.722656 C 230.523438 17.835938 230.707031 16.957031 231.070312 16.148438 C 231.414062 15.398438 231.90625 14.722656 232.519531 14.167969 C 233.144531 13.609375 233.875 13.175781 234.664062 12.894531 C 235.503906 12.589844 236.390625 12.4375 237.28125 12.441406 C 238.1875 12.433594 239.085938 12.589844 239.9375 12.894531 C 240.730469 13.175781 241.460938 13.609375 242.089844 14.167969 C 242.707031 14.722656 243.199219 15.398438 243.539062 16.148438 C 243.902344 16.957031 244.085938 17.835938 244.074219 18.722656 C 244.082031 19.597656 243.902344 20.464844 243.539062 21.261719 C 243.195312 22.011719 242.703125 22.679688 242.089844 23.230469 C 241.464844 23.789062 240.738281 24.21875 239.949219 24.496094 C 239.097656 24.792969 238.207031 24.941406 237.304688 24.933594 C 236.40625 24.941406 235.511719 24.792969 234.664062 24.496094 C 233.875 24.21875 233.144531 23.789062 232.519531 23.230469 C 231.90625 22.679688 231.414062 22.011719 231.070312 21.261719 C 230.710938 20.464844 230.527344 19.597656 230.539062 18.722656 Z M 234.589844 18.722656 C 234.582031 19.132812 234.660156 19.539062 234.808594 19.921875 C 234.945312 20.253906 235.148438 20.558594 235.402344 20.816406 C 235.644531 21.0625 235.9375 21.253906 236.257812 21.378906 C 236.589844 21.511719 236.945312 21.578125 237.300781 21.574219 C 237.65625 21.578125 238.007812 21.511719 238.339844 21.378906 C 238.660156 21.253906 238.953125 21.0625 239.199219 20.816406 C 239.453125 20.558594 239.652344 20.253906 239.789062 19.921875 C 239.941406 19.539062 240.015625 19.132812 240.007812 18.722656 C 240.015625 18.308594 239.941406 17.898438 239.789062 17.515625 C 239.652344 17.171875 239.453125 16.863281 239.199219 16.597656 C 238.953125 16.34375 238.664062 16.144531 238.339844 16.011719 C 238.011719 15.871094 237.65625 15.800781 237.300781 15.800781 C 236.941406 15.800781 236.589844 15.871094 236.257812 16.011719 C 235.9375 16.144531 235.644531 16.34375 235.402344 16.597656 C 235.144531 16.863281 234.945312 17.171875 234.808594 17.515625 C 234.660156 17.898438 234.585938 18.308594 234.59375 18.722656 Z M 245.761719 13.996094 C 245.710938 13.644531 245.828125 13.289062 246.078125 13.039062 C 246.328125 12.789062 246.683594 12.671875 247.035156 12.71875 L 248.332031 12.71875 C 248.679688 12.675781 249.03125 12.792969 249.277344 13.046875 C 249.523438 13.296875 249.636719 13.648438 249.585938 13.996094 L 249.585938 14.203125 C 249.585938 14.234375 249.582031 14.265625 249.574219 14.296875 C 249.566406 14.328125 249.5625 14.359375 249.5625 14.390625 L 249.5625 14.503906 L 249.609375 14.503906 C 249.761719 14.25 249.941406 14.007812 250.140625 13.785156 C 250.367188 13.527344 250.632812 13.304688 250.929688 13.125 C 251.265625 12.917969 251.628906 12.757812 252.003906 12.640625 C 252.460938 12.5 252.933594 12.433594 253.40625 12.441406 C 253.980469 12.4375 254.550781 12.515625 255.097656 12.671875 C 255.605469 12.816406 256.066406 13.074219 256.457031 13.425781 C 256.859375 13.8125 257.167969 14.285156 257.359375 14.804688 C 257.601562 15.480469 257.714844 16.199219 257.695312 16.914062 L 257.695312 23.382812 C 257.746094 23.730469 257.628906 24.085938 257.375 24.335938 C 257.125 24.589844 256.773438 24.707031 256.421875 24.65625 L 254.960938 24.65625 C 254.609375 24.707031 254.253906 24.589844 254.003906 24.335938 C 253.753906 24.085938 253.636719 23.730469 253.6875 23.382812 L 253.6875 17.65625 C 253.722656 17.230469 253.609375 16.800781 253.359375 16.449219 C 253.101562 16.1875 252.734375 16.050781 252.363281 16.082031 C 251.964844 16.070312 251.566406 16.15625 251.207031 16.335938 C 250.886719 16.5 250.609375 16.738281 250.394531 17.03125 C 250.171875 17.335938 250.011719 17.683594 249.917969 18.050781 C 249.816406 18.445312 249.769531 18.847656 249.769531 19.253906 L 249.769531 23.382812 C 249.820312 23.730469 249.699219 24.085938 249.449219 24.335938 C 249.199219 24.589844 248.84375 24.707031 248.492188 24.65625 L 247.035156 24.65625 C 246.683594 24.707031 246.328125 24.589844 246.078125 24.335938 C 245.828125 24.085938 245.710938 23.730469 245.757812 23.382812 Z M 259.898438 23.847656 C 259.585938 23.703125 259.363281 23.417969 259.304688 23.082031 C 259.277344 22.726562 259.371094 22.375 259.570312 22.085938 L 259.917969 21.550781 C 260.082031 21.261719 260.355469 21.050781 260.675781 20.972656 C 261.027344 20.941406 261.378906 21.011719 261.683594 21.179688 C 261.980469 21.304688 262.3125 21.4375 262.683594 21.585938 C 263.089844 21.738281 263.523438 21.8125 263.957031 21.804688 C 264.25 21.832031 264.546875 21.765625 264.800781 21.613281 C 264.953125 21.5 265.042969 21.324219 265.042969 21.136719 C 265.03125 20.882812 264.867188 20.664062 264.628906 20.578125 C 264.296875 20.417969 263.949219 20.285156 263.597656 20.175781 C 263.1875 20.042969 262.738281 19.894531 262.253906 19.734375 C 261.773438 19.578125 261.324219 19.351562 260.910156 19.0625 C 260.492188 18.765625 260.140625 18.386719 259.878906 17.949219 C 259.582031 17.421875 259.4375 16.824219 259.460938 16.222656 C 259.449219 15.65625 259.582031 15.09375 259.84375 14.589844 C 260.097656 14.117188 260.460938 13.710938 260.898438 13.40625 C 261.378906 13.074219 261.910156 12.832031 262.476562 12.6875 C 263.109375 12.519531 263.765625 12.4375 264.421875 12.445312 C 265.089844 12.433594 265.757812 12.519531 266.402344 12.699219 C 266.882812 12.835938 267.347656 13.007812 267.804688 13.210938 C 268.117188 13.332031 268.351562 13.601562 268.429688 13.925781 C 268.484375 14.269531 268.429688 14.617188 268.265625 14.925781 L 267.988281 15.480469 C 267.878906 15.792969 267.632812 16.042969 267.316406 16.152344 C 266.972656 16.222656 266.617188 16.183594 266.296875 16.035156 C 266.019531 15.929688 265.710938 15.824219 265.371094 15.726562 C 265.007812 15.621094 264.632812 15.570312 264.257812 15.574219 C 263.957031 15.539062 263.65625 15.605469 263.398438 15.757812 C 263.269531 15.867188 263.191406 16.027344 263.191406 16.199219 C 263.203125 16.449219 263.371094 16.667969 263.609375 16.742188 C 263.941406 16.898438 264.289062 17.027344 264.640625 17.136719 C 265.046875 17.269531 265.496094 17.414062 265.984375 17.566406 C 266.460938 17.71875 266.914062 17.941406 267.328125 18.226562 C 267.742188 18.515625 268.089844 18.886719 268.359375 19.316406 C 268.65625 19.832031 268.800781 20.425781 268.773438 21.019531 C 268.777344 21.554688 268.664062 22.085938 268.4375 22.574219 C 268.210938 23.054688 267.878906 23.480469 267.464844 23.8125 C 267.003906 24.179688 266.476562 24.460938 265.914062 24.636719 C 265.25 24.84375 264.558594 24.945312 263.863281 24.9375 C 263.066406 24.953125 262.273438 24.832031 261.519531 24.578125 C 260.957031 24.382812 260.414062 24.140625 259.898438 23.84375 Z M 259.898438 23.847656 "/>
</g>
</defs>
<g id="surface1">
<use xlink:href="#surface5" mask="url(#mask0)"/>
<path style="fill-rule:nonzero;fill:rgb(99.215686%,50.588235%,22.745098%);fill-opacity:1;stroke-width:0.2;stroke-linecap:butt;stroke-linejoin:miter;stroke:rgb(99.215686%,50.588235%,22.745098%);stroke-opacity:1;stroke-miterlimit:4;" d="M -551.687592 -25.014434 L -548.692079 -25.014434 L -544.11998 -17.065445 L -543.932291 -17.065445 L -539.360193 -25.014434 L -536.357172 -25.014434 L -542.708561 -14.385757 L -542.708561 -7.517651 L -545.343711 -7.517651 L -545.343711 -14.385757 Z M -529.382657 -7.254936 C -530.516298 -7.232418 -531.627415 -7.525157 -532.603397 -8.103129 C -533.526826 -8.673594 -534.262566 -9.491762 -534.735541 -10.467559 C -535.26107 -11.578466 -535.523834 -12.794458 -535.493804 -14.017957 C -535.523834 -15.256468 -535.26107 -16.479967 -534.735541 -17.590874 C -534.262566 -18.574176 -533.526826 -19.392344 -532.603397 -19.970316 C -531.627415 -20.548288 -530.50879 -20.841027 -529.382657 -20.811002 C -528.249017 -20.841027 -527.130392 -20.548288 -526.15441 -19.970316 C -525.230982 -19.392344 -524.495242 -18.574176 -524.022266 -17.590874 C -523.496737 -16.479967 -523.233973 -15.256468 -523.264003 -14.017957 C -523.233973 -12.794458 -523.496737 -11.578466 -524.022266 -10.467559 C -524.495242 -9.491762 -525.230982 -8.673594 -526.15441 -8.103129 C -527.130392 -7.517651 -528.249017 -7.224912 -529.382657 -7.254936 Z M -529.37515 -9.401689 C -528.654425 -9.371664 -527.956223 -9.596848 -527.385649 -10.032203 C -526.852613 -10.475065 -526.447205 -11.060543 -526.221978 -11.721082 C -525.966722 -12.456683 -525.839093 -13.244826 -525.846601 -14.025463 C -525.839093 -14.813607 -525.966722 -15.60175 -526.221978 -16.344857 C -526.447205 -17.005396 -526.852613 -17.59838 -527.385649 -18.041241 C -527.956223 -18.484103 -528.654425 -18.709287 -529.37515 -18.679262 C -530.088367 -18.709287 -530.794077 -18.484103 -531.364651 -18.041241 C -531.905194 -17.59838 -532.310602 -17.005396 -532.535829 -16.344857 C -532.798593 -15.60175 -532.926221 -14.813607 -532.918714 -14.025463 C -532.926221 -13.244826 -532.798593 -12.456683 -532.535829 -11.721082 C -532.310602 -11.060543 -531.905194 -10.475065 -531.364651 -10.032203 C -530.794077 -9.596848 -530.088367 -9.371664 -529.37515 -9.401689 Z M -510.808976 -12.959593 L -510.808976 -20.645868 L -508.241393 -20.645868 L -508.241393 -7.517651 L -510.756423 -7.517651 L -510.756423 -9.792007 L -510.891559 -9.792007 C -511.199368 -9.086431 -511.702374 -8.478435 -512.340516 -8.04308 C -513.068749 -7.562688 -513.939625 -7.314985 -514.810501 -7.34501 C -515.974171 -7.307479 -517.107811 -7.757847 -517.911119 -8.598533 C -518.789503 -9.619366 -519.224941 -10.955457 -519.119835 -12.299054 L -519.119835 -20.645868 L -516.567268 -20.645868 L -516.567268 -12.606805 C -516.604805 -11.818662 -516.342041 -11.053037 -515.82402 -10.467559 C -515.328522 -9.934624 -514.622812 -9.649391 -513.894579 -9.671909 C -513.399081 -9.679415 -512.903583 -9.799513 -512.460637 -10.032203 C -511.980154 -10.279906 -511.567238 -10.655212 -511.274444 -11.120592 C -510.944112 -11.676045 -510.778946 -12.314066 -510.808976 -12.959593 Z M -503.519144 -7.517651 L -503.519144 -20.638362 L -501.049159 -20.638362 L -501.049159 -18.559164 L -500.914023 -18.559164 C -500.688797 -19.242222 -500.245851 -19.8277 -499.645247 -20.225525 C -499.037136 -20.638362 -498.316411 -20.848533 -497.580671 -20.841027 C -497.257846 -20.841027 -496.927514 -20.79599 -496.619704 -20.713423 C -496.349432 -20.630855 -496.094176 -20.518263 -495.861442 -20.360635 L -496.687272 -18.221388 C -496.852438 -18.311462 -497.025112 -18.371511 -497.205293 -18.409042 C -497.423012 -18.461585 -497.648239 -18.484103 -497.873465 -18.476597 C -498.691788 -18.506621 -499.480081 -18.206376 -500.080685 -17.643417 C -500.666274 -17.102975 -500.989099 -16.329844 -500.966576 -15.534195 L -500.966576 -7.517651 Z M -483.226233 -25.02194 L -478.353832 -10.767804 L -478.158636 -10.767804 L -473.286235 -25.02194 L -470.433366 -25.02194 L -476.732201 -7.517651 L -479.780267 -7.517651 L -486.08661 -25.02194 Z M -466.829741 -7.517651 L -466.829741 -20.638362 L -464.269666 -20.638362 L -464.269666 -7.517651 Z M -465.538443 -22.665016 C -465.958865 -22.65751 -466.371781 -22.822645 -466.67959 -23.115384 C -466.979892 -23.39311 -467.152566 -23.783429 -467.152566 -24.18876 C -467.160074 -24.601597 -466.9874 -24.991915 -466.67959 -25.269642 C -466.371781 -25.562381 -465.958865 -25.727516 -465.538443 -25.72001 C -465.110512 -25.727516 -464.705104 -25.562381 -464.397295 -25.269642 C -464.089485 -24.999422 -463.916812 -24.601597 -463.924319 -24.18876 C -463.916812 -23.775923 -464.096993 -23.385604 -464.397295 -23.115384 C -464.705104 -22.822645 -465.110512 -22.665016 -465.530935 -22.665016 Z M -449.705017 -17.440751 L -452.017343 -17.027914 C -452.190017 -17.493294 -452.467796 -17.913637 -452.843174 -18.236401 C -453.353687 -18.641732 -453.999337 -18.836891 -454.644986 -18.791854 C -455.283128 -18.814373 -455.913762 -18.641732 -456.461813 -18.303956 C -456.912266 -18.056254 -457.182538 -17.575862 -457.182538 -17.065445 C -457.205061 -16.652608 -457.017372 -16.254783 -456.694547 -15.999575 C -456.221572 -15.669305 -455.681028 -15.451627 -455.117962 -15.346542 L -453.030862 -14.86615 C -450.635954 -14.318202 -449.442253 -13.132234 -449.442253 -11.315751 C -449.434745 -10.557632 -449.674987 -9.822032 -450.12544 -9.214036 C -450.613431 -8.576015 -451.266588 -8.08061 -452.009836 -7.780365 C -452.895727 -7.412565 -453.849186 -7.239924 -454.810152 -7.254936 C -456.078928 -7.202393 -457.332689 -7.532663 -458.413777 -8.200708 C -459.329698 -8.823717 -459.945317 -9.792007 -460.117991 -10.887902 L -457.648006 -11.263208 C -457.340197 -9.964648 -456.401753 -9.319121 -454.832675 -9.319121 C -454.126965 -9.281591 -453.421255 -9.461738 -452.820651 -9.84455 C -452.370198 -10.114771 -452.084911 -10.595163 -452.069896 -11.128098 C -452.069896 -11.968784 -452.693023 -12.524238 -453.924261 -12.794458 L -456.146496 -13.282357 C -457.167523 -13.447491 -458.113475 -13.912871 -458.86423 -14.610941 C -459.449819 -15.241456 -459.765136 -16.074636 -459.735106 -16.930335 C -459.750121 -17.658429 -459.524894 -18.379017 -459.089456 -18.964495 C -458.623988 -19.572491 -458.000861 -20.045377 -457.295151 -20.33061 C -456.461813 -20.668386 -455.568415 -20.833521 -454.667509 -20.818509 C -453.481316 -20.886064 -452.310138 -20.555794 -451.319141 -19.895255 C -450.508325 -19.287259 -449.937751 -18.424054 -449.69751 -17.440751 Z M -445.350638 -7.517651 L -445.350638 -20.638362 L -442.790563 -20.638362 L -442.790563 -7.517651 Z M -444.059339 -22.665016 C -444.479762 -22.65751 -444.892677 -22.822645 -445.200487 -23.115384 C -445.500789 -23.39311 -445.673462 -23.783429 -445.673462 -24.18876 C -445.673462 -24.601597 -445.500789 -24.991915 -445.200487 -25.269642 C -444.892677 -25.562381 -444.479762 -25.727516 -444.059339 -25.72001 C -443.631408 -25.727516 -443.226001 -25.562381 -442.918191 -25.269642 C -442.610382 -24.991915 -442.437708 -24.601597 -442.445215 -24.18876 C -442.437708 -23.775923 -442.617889 -23.385604 -442.918191 -23.115384 C -443.226001 -22.822645 -443.631408 -22.665016 -444.051831 -22.665016 Z M -432.52774 -7.254936 C -433.661381 -7.232418 -434.780006 -7.525157 -435.74848 -8.103129 C -436.671909 -8.673594 -437.415156 -9.491762 -437.888132 -10.475065 C -438.41366 -11.578466 -438.676425 -12.794458 -438.646395 -14.025463 C -438.676425 -15.256468 -438.41366 -16.479967 -437.888132 -17.590874 C -437.415156 -18.574176 -436.679416 -19.39985 -435.74848 -19.970316 C -434.780006 -20.548288 -433.661381 -20.841027 -432.52774 -20.811002 C -431.3941 -20.841027 -430.282983 -20.548288 -429.307001 -19.970316 C -428.383572 -19.392344 -427.640325 -18.574176 -427.174856 -17.590874 C -426.649328 -16.479967 -426.386564 -15.256468 -426.416594 -14.025463 C -426.386564 -12.794458 -426.649328 -11.578466 -427.174856 -10.475065 C -427.640325 -9.499268 -428.383572 -8.673594 -429.299493 -8.103129 C -430.275475 -7.517651 -431.3941 -7.224912 -432.52774 -7.254936 Z M -432.520233 -9.401689 C -431.807015 -9.371664 -431.101306 -9.596848 -430.538239 -10.032203 C -429.997696 -10.475065 -429.599795 -11.060543 -429.374569 -11.721082 C -429.111805 -12.456683 -428.984176 -13.244826 -428.991684 -14.025463 C -428.984176 -14.813607 -429.111805 -15.60175 -429.374569 -16.344857 C -429.599795 -17.005396 -429.997696 -17.59838 -430.538239 -18.041241 C -431.101306 -18.484103 -431.807015 -18.709287 -432.520233 -18.679262 C -433.240958 -18.709287 -433.946668 -18.484103 -434.509734 -18.041241 C -435.050278 -17.59838 -435.455685 -17.005396 -435.680912 -16.344857 C -435.943676 -15.60175 -436.078812 -14.813607 -436.071304 -14.025463 C -436.078812 -13.244826 -435.943676 -12.456683 -435.680912 -11.721082 C -435.455685 -11.060543 -435.050278 -10.475065 -434.509734 -10.032203 C -433.93916 -9.596848 -433.23345 -9.371664 -432.520233 -9.401689 Z M -419.712351 -15.309011 L -419.712351 -7.517651 L -422.272426 -7.517651 L -422.272426 -20.638362 L -419.817456 -20.638362 L -419.817456 -18.506621 L -419.65229 -18.506621 C -419.359496 -19.197185 -418.863997 -19.775157 -418.233363 -20.180488 C -417.497623 -20.623349 -416.64927 -20.848533 -415.785901 -20.811002 C -414.577186 -20.863545 -413.3985 -20.413178 -412.542639 -19.557479 C -411.664256 -18.536646 -411.22131 -17.208061 -411.318908 -15.864464 L -411.318908 -7.517651 L -413.871476 -7.517651 L -413.871476 -15.556713 C -413.826431 -16.374881 -414.089195 -17.170531 -414.614723 -17.793539 C -415.14776 -18.348993 -415.891007 -18.641732 -416.656777 -18.596695 C -417.4751 -18.626719 -418.270901 -18.318968 -418.85649 -17.740996 C -419.464601 -17.080457 -419.772411 -16.20224 -419.712351 -15.309011 Z M -403.278321 -9.912105 L -403.40595 -8.981346 C -403.49604 -8.260757 -403.638684 -7.540169 -403.83388 -6.842099 C -404.029076 -6.098993 -404.239288 -5.408429 -404.457007 -4.770408 C -404.674726 -4.132387 -404.847399 -3.621971 -404.982535 -3.246664 L -406.799363 -3.246664 C -406.71678 -3.599452 -406.611674 -4.079844 -406.484046 -4.680335 C -406.356417 -5.280825 -406.228789 -5.94887 -406.10116 -6.691977 C -405.98104 -7.427577 -405.883441 -8.185696 -405.823381 -8.951321 L -405.73329 -9.912105 Z M -375.575458 -16.269795 C -375.530412 -14.603435 -375.883267 -12.959593 -376.603992 -11.458368 C -377.227119 -10.17482 -378.195593 -9.101444 -379.404309 -8.358337 C -380.628039 -7.630243 -382.031952 -7.254936 -383.450879 -7.277455 C -384.877313 -7.254936 -386.281225 -7.630243 -387.497449 -8.358337 C -388.713672 -9.10895 -389.682146 -10.182326 -390.305273 -11.458368 C -391.025998 -12.959593 -391.378853 -14.610941 -391.333807 -16.269795 C -391.378853 -17.936156 -391.025998 -19.587504 -390.305273 -21.088729 C -389.682146 -22.357265 -388.706164 -23.430641 -387.497449 -24.181254 C -386.273718 -24.909348 -384.869806 -25.284654 -383.443371 -25.262136 C -382.024444 -25.284654 -380.620532 -24.909348 -379.404309 -24.181254 C -378.188085 -23.430641 -377.219611 -22.357265 -376.596485 -21.088729 C -375.87576 -19.579998 -375.522905 -17.92865 -375.575458 -16.269795 Z M -378.188085 -16.269795 C -378.150548 -17.5008 -378.390789 -18.731805 -378.87878 -19.86523 C -379.27668 -20.773472 -379.929837 -21.546603 -380.755668 -22.087044 C -381.566483 -22.597461 -382.504927 -22.860175 -383.458386 -22.845163 C -384.411845 -22.860175 -385.350289 -22.597461 -386.161105 -22.087044 C -386.986935 -21.546603 -387.640092 -20.773472 -388.037992 -19.86523 C -388.525983 -18.731805 -388.766225 -17.5008 -388.728687 -16.269795 C -388.766225 -15.031284 -388.525983 -13.800279 -388.037992 -12.666854 C -387.640092 -11.758613 -386.986935 -10.985482 -386.161105 -10.437534 C -385.350289 -9.934624 -384.411845 -9.671909 -383.458386 -9.686922 C -382.504927 -9.671909 -381.566483 -9.934624 -380.755668 -10.437534 C -379.929837 -10.985482 -379.27668 -11.758613 -378.87878 -12.666854 C -378.383282 -13.800279 -378.150548 -15.031284 -378.188085 -16.269795 Z M -362.887696 -12.959593 L -362.887696 -20.638362 L -360.327621 -20.638362 L -360.327621 -7.517651 L -362.842651 -7.517651 L -362.842651 -9.792007 L -362.977787 -9.792007 C -363.285596 -9.086431 -363.788602 -8.478435 -364.426744 -8.04308 C -365.154977 -7.562688 -366.018345 -7.314985 -366.896729 -7.34501 C -368.060399 -7.307479 -369.186532 -7.757847 -369.997347 -8.598533 C -370.868223 -9.619366 -371.303661 -10.955457 -371.206063 -12.299054 L -371.206063 -20.645868 L -368.653495 -20.645868 L -368.653495 -12.606805 C -368.691033 -11.818662 -368.428269 -11.053037 -367.910248 -10.467559 C -367.407242 -9.934624 -366.701532 -9.649391 -365.9733 -9.671909 C -365.477801 -9.679415 -364.989811 -9.799513 -364.546865 -10.032203 C -364.058874 -10.279906 -363.645959 -10.655212 -363.360672 -11.120592 C -363.022832 -11.676045 -362.857666 -12.314066 -362.887696 -12.959593 Z M -355.605372 -7.517651 L -355.605372 -20.638362 L -353.135387 -20.638362 L -353.135387 -18.559164 L -352.992744 -18.559164 C -352.775025 -19.242222 -352.332079 -19.8277 -351.731475 -20.225525 C -351.123364 -20.638362 -350.402639 -20.848533 -349.666899 -20.841027 C -349.336566 -20.841027 -349.013742 -20.79599 -348.698425 -20.713423 C -348.428153 -20.630855 -348.180404 -20.518263 -347.947669 -20.360635 L -348.765993 -18.221388 C -348.931159 -18.311462 -349.103832 -18.371511 -349.291521 -18.409042 C -349.50924 -18.461585 -349.726959 -18.484103 -349.952186 -18.476597 C -350.770509 -18.506621 -351.566309 -18.206376 -352.159406 -17.643417 C -352.744995 -17.102975 -353.067819 -16.329844 -353.045297 -15.534195 L -353.045297 -7.517651 Z M -336.836494 -7.517651 L -336.836494 -25.02194 L -330.605226 -25.02194 C -329.434048 -25.059471 -328.277886 -24.819275 -327.226828 -24.316364 C -326.378475 -23.896021 -325.672765 -23.220469 -325.214805 -22.387289 C -324.756844 -21.509072 -324.52411 -20.52577 -324.546633 -19.534961 C -324.516602 -18.461585 -324.794382 -17.410727 -325.342433 -16.487473 C -325.913007 -15.60175 -326.76136 -14.941211 -327.759865 -14.603435 L -323.878461 -7.525157 L -326.888989 -7.525157 L -330.44006 -14.145561 L -334.201343 -14.145561 L -334.201343 -7.525157 Z M -334.201343 -16.412412 L -330.852976 -16.412412 C -329.846964 -16.322338 -328.848459 -16.615077 -328.060167 -17.23058 C -327.459562 -17.846082 -327.151753 -18.679262 -327.204306 -19.534961 C -327.151753 -20.405672 -327.46707 -21.253864 -328.067674 -21.884379 C -328.848459 -22.537412 -329.861979 -22.852669 -330.883006 -22.755089 L -334.201343 -22.755089 Z M -314.734263 -7.254936 C -315.905441 -7.224912 -317.054097 -7.510145 -318.067616 -8.088116 C -318.998552 -8.651076 -319.749308 -9.469244 -320.222283 -10.44504 C -320.747812 -11.555947 -321.010576 -12.77194 -320.980546 -13.995439 C -321.003069 -15.218938 -320.747812 -16.43493 -320.222283 -17.545837 C -319.756815 -18.52914 -319.021075 -19.36232 -318.105154 -19.947798 C -317.144187 -20.540782 -316.040577 -20.841027 -314.914445 -20.811002 C -313.938463 -20.818509 -312.969989 -20.585819 -312.099113 -20.150463 C -311.183192 -19.677577 -310.432437 -18.941977 -309.936938 -18.041241 C -309.336334 -16.862779 -309.04354 -15.541701 -309.1036 -14.220623 L -309.1036 -13.312381 L -318.435486 -13.312381 C -318.473024 -12.231499 -318.090139 -11.188147 -317.369414 -10.392498 C -316.656196 -9.694428 -315.69523 -9.319121 -314.696726 -9.364158 C -314.036061 -9.349146 -313.390412 -9.506775 -312.81233 -9.837044 C -312.279294 -10.152301 -311.873886 -10.647706 -311.67869 -11.233184 L -309.261259 -10.797828 C -309.546546 -9.739464 -310.214718 -8.823717 -311.138146 -8.230733 C -312.211726 -7.547675 -313.465487 -7.2099 -314.726756 -7.254936 Z M -318.427979 -15.226444 L -311.611122 -15.226444 C -311.581092 -16.142191 -311.903917 -17.027914 -312.512028 -17.718478 C -313.127647 -18.379017 -313.998523 -18.739311 -314.899429 -18.701781 C -315.537571 -18.716793 -316.160698 -18.551658 -316.708749 -18.221388 C -317.211755 -17.906131 -317.632178 -17.46327 -317.924973 -16.945347 C -318.225275 -16.419918 -318.390441 -15.826934 -318.420471 -15.226444 Z M -295.12454 -17.440751 L -297.444373 -17.027914 C -297.609539 -17.493294 -297.894826 -17.913637 -298.262696 -18.236401 C -298.77321 -18.641732 -299.418859 -18.836891 -300.064508 -18.784348 C -300.70265 -18.814373 -301.340792 -18.641732 -301.881336 -18.303956 C -302.331789 -18.048748 -302.609568 -17.575862 -302.602061 -17.065445 C -302.624583 -16.652608 -302.436895 -16.254783 -302.11407 -15.999575 C -301.641094 -15.669305 -301.108058 -15.451627 -300.537484 -15.346542 L -298.450385 -14.86615 C -296.062984 -14.318202 -294.869283 -13.132234 -294.869283 -11.315751 C -294.854268 -10.557632 -295.09451 -9.822032 -295.544963 -9.214036 C -296.032954 -8.576015 -296.68611 -8.08061 -297.429358 -7.780365 C -298.322757 -7.412565 -299.276216 -7.239924 -300.229675 -7.254936 C -301.498451 -7.202393 -302.759719 -7.532663 -303.833299 -8.200708 C -304.74922 -8.823717 -305.372347 -9.792007 -305.545021 -10.887902 L -303.075036 -11.263208 C -302.767227 -9.964648 -301.828783 -9.319121 -300.252197 -9.319121 C -299.546487 -9.281591 -298.840778 -9.461738 -298.247681 -9.84455 C -297.78972 -10.114771 -297.504434 -10.595163 -297.489418 -11.128098 C -297.489418 -11.968784 -298.112545 -12.524238 -299.343784 -12.794458 L -301.566019 -13.282357 C -302.587046 -13.447491 -303.532997 -13.912871 -304.283752 -14.610941 C -304.869341 -15.241456 -305.184658 -16.074636 -305.154628 -16.930335 C -305.169643 -17.658429 -304.944417 -18.379017 -304.508979 -18.964495 C -304.043511 -19.572491 -303.420384 -20.045377 -302.714674 -20.33061 C -301.881336 -20.668386 -300.987937 -20.833521 -300.087031 -20.818509 C -298.900838 -20.886064 -297.72966 -20.555794 -296.738663 -19.895255 C -295.927848 -19.287259 -295.357274 -18.424054 -295.12454 -17.440751 Z M -290.77016 -2.601137 L -290.77016 -20.638362 L -288.277653 -20.638362 L -288.277653 -18.514127 L -288.059934 -18.514127 C -287.864738 -18.844397 -287.654526 -19.159654 -287.414285 -19.4599 C -287.098968 -19.857724 -286.701067 -20.180488 -286.250614 -20.405672 C -285.642503 -20.705917 -284.966823 -20.841027 -284.291144 -20.811002 C -283.292639 -20.833521 -282.301643 -20.555794 -281.460797 -20.015353 C -280.597428 -19.444887 -279.921749 -18.641732 -279.501326 -17.69596 C -278.990812 -16.555028 -278.750571 -15.309011 -278.780601 -14.055488 C -278.750571 -12.809471 -278.990812 -11.563453 -279.486311 -10.415016 C -279.906734 -9.469244 -280.582413 -8.658582 -281.438274 -8.08061 C -282.27912 -7.532663 -283.262609 -7.24743 -284.268621 -7.262442 C -284.936793 -7.239924 -285.604965 -7.375034 -286.213077 -7.667773 C -286.671037 -7.892957 -287.068937 -8.215721 -287.39927 -8.606039 C -287.647019 -8.906284 -287.864738 -9.221542 -288.059934 -9.559317 L -288.210085 -9.559317 L -288.210085 -2.601137 Z M -288.270146 -14.078006 C -288.322699 -12.899544 -288.014889 -11.728588 -287.384255 -10.730273 C -286.821188 -9.882081 -285.852714 -9.394183 -284.846702 -9.439219 C -284.156008 -9.416701 -283.472821 -9.634379 -282.924769 -10.054722 C -282.391733 -10.490077 -281.986325 -11.060543 -281.761099 -11.713576 C -281.483319 -12.471695 -281.355691 -13.27485 -281.363199 -14.085512 C -281.355691 -14.881162 -281.483319 -15.669305 -281.753591 -16.419918 C -281.978818 -17.057939 -282.384226 -17.620898 -282.909754 -18.048748 C -283.472821 -18.461585 -284.1485 -18.671756 -284.846702 -18.649238 C -285.852714 -18.701781 -286.821188 -18.228895 -287.391762 -17.395714 C -288.014889 -16.404906 -288.322699 -15.248962 -288.262638 -14.078006 Z M -269.09586 -7.254936 C -270.2295 -7.232418 -271.340618 -7.525157 -272.3166 -8.103129 C -273.240028 -8.673594 -273.983276 -9.491762 -274.456252 -10.475065 C -274.98178 -11.578466 -275.237037 -12.794458 -275.214514 -14.025463 C -275.244544 -15.256468 -274.98178 -16.479967 -274.456252 -17.590874 C -273.983276 -18.574176 -273.240028 -19.39985 -272.3166 -19.970316 C -271.340618 -20.548288 -270.2295 -20.841027 -269.09586 -20.811002 C -267.96222 -20.841027 -266.843595 -20.548288 -265.867613 -19.970316 C -264.951692 -19.392344 -264.208444 -18.574176 -263.735469 -17.590874 C -263.20994 -16.479967 -262.954683 -15.256468 -262.977206 -14.025463 C -262.954683 -12.794458 -263.20994 -11.578466 -263.735469 -10.475065 C -264.208444 -9.499268 -264.944184 -8.673594 -265.860106 -8.103129 C -266.836087 -7.517651 -267.954712 -7.224912 -269.088353 -7.254936 Z M -269.088353 -9.401689 C -268.375135 -9.371664 -267.669425 -9.596848 -267.098852 -10.032203 C -266.565815 -10.475065 -266.160408 -11.060543 -265.942689 -11.721082 C -265.679924 -12.456683 -265.552296 -13.244826 -265.559804 -14.025463 C -265.552296 -14.813607 -265.679924 -15.60175 -265.942689 -16.344857 C -266.160408 -17.005396 -266.565815 -17.59838 -267.098852 -18.041241 C -267.669425 -18.484103 -268.367628 -18.709287 -269.088353 -18.679262 C -269.80157 -18.709287 -270.50728 -18.484103 -271.077854 -18.041241 C -271.618397 -17.59838 -272.023805 -17.005396 -272.249032 -16.344857 C -272.511796 -15.60175 -272.639424 -14.813607 -272.631917 -14.025463 C -272.639424 -13.244826 -272.511796 -12.456683 -272.249032 -11.721082 C -272.023805 -11.060543 -271.618397 -10.475065 -271.077854 -10.032203 C -270.50728 -9.589342 -269.80157 -9.371664 -269.080845 -9.401689 Z M -256.28047 -15.309011 L -256.28047 -7.517651 L -258.833038 -7.517651 L -258.833038 -20.638362 L -256.385576 -20.638362 L -256.385576 -18.506621 L -256.22041 -18.506621 C -255.927615 -19.197185 -255.432117 -19.775157 -254.801483 -20.180488 C -254.058235 -20.623349 -253.209882 -20.848533 -252.346514 -20.811002 C -251.137798 -20.863545 -249.96662 -20.413178 -249.110759 -19.557479 C -248.224868 -18.536646 -247.781923 -17.208061 -247.879521 -15.864464 L -247.879521 -7.517651 L -250.439596 -7.517651 L -250.439596 -15.556713 C -250.387043 -16.374881 -250.657315 -17.170531 -251.182843 -17.793539 C -251.708372 -18.348993 -252.459127 -18.641732 -253.224897 -18.596695 C -254.04322 -18.626719 -254.839021 -18.318968 -255.42461 -17.740996 C -256.025214 -17.080457 -256.333023 -16.20224 -256.272963 -15.309011 Z M -233.329887 -17.440751 L -235.64972 -17.027914 C -235.814886 -17.493294 -236.100173 -17.913637 -236.468043 -18.236401 C -236.978556 -18.641732 -237.624206 -18.836891 -238.269855 -18.784348 C -238.907997 -18.814373 -239.538631 -18.641732 -240.086683 -18.303956 C -240.537136 -18.048748 -240.807408 -17.575862 -240.807408 -17.065445 C -240.822423 -16.652608 -240.642241 -16.254783 -240.319417 -15.999575 C -239.846441 -15.669305 -239.305897 -15.451627 -238.742831 -15.346542 L -236.655732 -14.86615 C -234.260823 -14.318202 -233.067122 -13.132234 -233.067122 -11.315751 C -233.059615 -10.557632 -233.292349 -9.822032 -233.742802 -9.214036 C -234.2383 -8.576015 -234.891457 -8.08061 -235.634705 -7.780365 C -236.520596 -7.412565 -237.474055 -7.239924 -238.435021 -7.254936 C -239.703798 -7.202393 -240.957559 -7.532663 -242.031138 -8.200708 C -242.954567 -8.823717 -243.570186 -9.792007 -243.74286 -10.887902 L -241.272876 -11.263208 C -240.965066 -9.964648 -240.026622 -9.319121 -238.457544 -9.319121 C -237.744327 -9.281591 -237.046124 -9.461738 -236.44552 -9.84455 C -235.995067 -10.114771 -235.70978 -10.595163 -235.694765 -11.128098 C -235.694765 -11.968784 -236.310384 -12.524238 -237.54913 -12.794458 L -239.771365 -13.282357 C -240.784885 -13.447491 -241.730836 -13.912871 -242.489099 -14.610941 C -243.074688 -15.241456 -243.382498 -16.074636 -243.359975 -16.930335 C -243.37499 -17.658429 -243.142256 -18.379017 -242.706818 -18.964495 C -242.24135 -19.572491 -241.625731 -20.045377 -240.912513 -20.33061 C -240.079175 -20.668386 -239.193284 -20.833521 -238.292378 -20.818509 C -237.106185 -20.886064 -235.927499 -20.555794 -234.94401 -19.895255 C -234.133195 -19.287259 -233.562621 -18.424054 -233.322379 -17.440751 Z M -228.975507 -7.517651 L -228.975507 -20.638362 L -226.415432 -20.638362 L -226.415432 -7.517651 Z M -227.684208 -22.665016 C -228.104631 -22.65751 -228.517546 -22.822645 -228.825356 -23.115384 C -229.125658 -23.385604 -229.298332 -23.775923 -229.298332 -24.18876 C -229.305839 -24.601597 -229.133166 -24.991915 -228.825356 -25.269642 C -228.517546 -25.562381 -228.104631 -25.727516 -227.684208 -25.72001 C -227.256278 -25.727516 -226.85087 -25.562381 -226.550568 -25.269642 C -226.242758 -24.991915 -226.062577 -24.601597 -226.070085 -24.18876 C -226.062577 -23.775923 -226.242758 -23.385604 -226.550568 -23.115384 C -226.85087 -22.822645 -227.256278 -22.665016 -227.676701 -22.665016 Z M -221.482971 -7.517651 L -221.482971 -25.02194 L -218.930404 -25.02194 L -218.930404 -18.521634 L -218.772745 -18.521634 C -218.585056 -18.851903 -218.367337 -19.167161 -218.127096 -19.467406 C -217.811778 -19.857724 -217.413878 -20.180488 -216.963425 -20.413178 C -216.355314 -20.705917 -215.679634 -20.841027 -214.996447 -20.811002 C -213.997942 -20.833521 -213.014453 -20.555794 -212.1661 -20.015353 C -211.310239 -19.444887 -210.627052 -18.641732 -210.206629 -17.69596 C -209.703623 -16.555028 -209.455874 -15.309011 -209.485904 -14.055488 C -209.455874 -12.809471 -209.696116 -11.563453 -210.199122 -10.415016 C -210.612037 -9.469244 -211.287717 -8.658582 -212.143577 -8.08061 C -212.984423 -7.532663 -213.967912 -7.24743 -214.973924 -7.262442 C -215.649604 -7.239924 -216.317776 -7.375034 -216.91838 -7.667773 C -217.37634 -7.892957 -217.774241 -8.215721 -218.097065 -8.598533 C -218.344815 -8.898778 -218.570041 -9.221542 -218.765237 -9.559317 L -218.975449 -9.559317 L -218.975449 -7.517651 Z M -218.982956 -14.078006 C -219.035509 -12.899544 -218.7277 -11.728588 -218.097065 -10.730273 C -217.533999 -9.882081 -216.565525 -9.401689 -215.559513 -9.439219 C -214.868818 -9.416701 -214.185631 -9.634379 -213.63758 -10.054722 C -213.104544 -10.490077 -212.699136 -11.060543 -212.47391 -11.713576 C -212.203638 -12.471695 -212.068502 -13.27485 -212.083517 -14.085512 C -212.068502 -14.881162 -212.19613 -15.669305 -212.466402 -16.419918 C -212.691629 -17.057939 -213.097036 -17.620898 -213.630072 -18.048748 C -214.185631 -18.461585 -214.861311 -18.671756 -215.559513 -18.649238 C -216.565525 -18.701781 -217.533999 -18.228895 -218.104573 -17.395714 C -218.7277 -16.404906 -219.028002 -15.248962 -218.967941 -14.078006 Z M -205.341736 -7.517651 L -205.341736 -20.638362 L -202.781661 -20.638362 L -202.781661 -7.517651 Z M -204.050437 -22.665016 C -204.47086 -22.65751 -204.883775 -22.822645 -205.191585 -23.115384 C -205.491887 -23.385604 -205.664561 -23.775923 -205.664561 -24.18876 C -205.664561 -24.601597 -205.491887 -24.991915 -205.191585 -25.269642 C -204.883775 -25.562381 -204.47086 -25.727516 -204.050437 -25.72001 C -203.622507 -25.727516 -203.217099 -25.562381 -202.909289 -25.269642 C -202.60148 -24.991915 -202.428806 -24.601597 -202.436314 -24.18876 C -202.428806 -23.775923 -202.608987 -23.385604 -202.909289 -23.115384 C -203.209592 -22.822645 -203.614999 -22.665016 -204.035422 -22.665016 Z M -195.491829 -25.014434 L -195.491829 -7.517651 L -198.051904 -7.517651 L -198.051904 -25.014434 Z M -190.762072 -7.517651 L -190.762072 -20.638362 L -188.209504 -20.638362 L -188.209504 -7.517651 Z M -189.470773 -22.665016 C -189.898703 -22.65751 -190.304111 -22.815138 -190.611921 -23.115384 C -190.91973 -23.385604 -191.092404 -23.775923 -191.084896 -24.18876 C -191.092404 -24.594091 -190.91973 -24.991915 -190.611921 -25.269642 C -190.304111 -25.562381 -189.898703 -25.727516 -189.470773 -25.712504 C -189.05035 -25.72001 -188.637435 -25.562381 -188.337133 -25.269642 C -188.029323 -24.991915 -187.849142 -24.601597 -187.85665 -24.18876 C -187.85665 -23.775923 -188.029323 -23.385604 -188.337133 -23.115384 C -188.637435 -22.822645 -189.035335 -22.665016 -189.455758 -22.665016 Z M -177.346078 -20.638362 L -177.346078 -18.589189 L -180.041289 -18.589189 L -180.041289 -11.368294 C -180.041289 -10.632694 -179.88363 -10.152301 -179.560806 -9.94213 C -179.237981 -9.724452 -178.855096 -9.61186 -178.464703 -9.619366 C -178.284522 -9.619366 -178.104341 -9.634379 -177.924159 -9.664403 L -177.563797 -9.731958 L -177.105836 -7.622737 C -177.316048 -7.547675 -177.526259 -7.487626 -177.743978 -7.442589 C -178.081818 -7.38254 -178.419658 -7.34501 -178.765005 -7.34501 C -179.410655 -7.329998 -180.056304 -7.450096 -180.6494 -7.705304 C -181.219974 -7.9455 -181.707965 -8.350831 -182.06082 -8.868754 C -182.42869 -9.454232 -182.616379 -10.144795 -182.593856 -10.842865 L -182.593856 -18.589189 L -184.500774 -18.589189 L -184.500774 -20.638362 L -182.578841 -20.638362 L -182.578841 -23.783429 L -180.026274 -23.783429 L -180.026274 -20.638362 Z M -171.707907 -2.413484 C -172.060762 -2.413484 -172.413617 -2.443509 -172.758964 -2.51857 C -172.984191 -2.563607 -173.20191 -2.631162 -173.419629 -2.713729 L -172.80401 -4.837963 C -172.225928 -4.65031 -171.610309 -4.635298 -171.032227 -4.792926 C -170.551744 -4.950555 -170.153844 -5.460972 -169.838527 -6.31667 L -169.463149 -7.34501 L -174.260474 -20.638362 L -171.527726 -20.638362 L -168.201881 -10.460053 L -168.066745 -10.460053 L -164.7409 -20.638362 L -162.000643 -20.638362 L -167.466141 -5.603588 C -167.766443 -4.680335 -168.322002 -3.869673 -169.065249 -3.246664 C -169.823512 -2.676199 -170.746941 -2.38346 -171.692892 -2.42099 Z M -171.707907 -2.413484 " transform="matrix(0.520309,0,0,0.520408,353.216251,43.978653)"/>
<path style=" stroke:none;fill-rule:nonzero;fill:rgb(0%,39.607843%,60%);fill-opacity:1;" d="M 30.660156 5.761719 C 30.660156 7.371094 30.625 8.800781 30.679688 10.226562 C 30.703125 10.789062 30.515625 10.910156 30.019531 10.878906 C 27.667969 10.726562 25.3125 11.003906 23.058594 11.695312 C 20.992188 12.351562 19.078125 13.425781 17.449219 14.855469 C 16.007812 16.0625 14.859375 17.578125 14.089844 19.289062 C 13.066406 21.582031 12.78125 24.136719 13.277344 26.601562 C 13.949219 30.144531 15.828125 32.976562 18.425781 35.367188 C 21.617188 38.226562 25.523438 40.171875 29.726562 40.988281 C 30.675781 41.199219 30.664062 41.199219 30.65625 42.210938 C 30.644531 43.4375 30.636719 44.664062 30.65625 45.894531 C 30.664062 46.308594 30.558594 46.523438 30.097656 46.476562 C 29.566406 46.425781 29.050781 46.671875 28.757812 47.117188 C 28.101562 47.949219 27.417969 48.761719 26.78125 49.605469 C 25.683594 51.054688 24.84375 51.320312 23.179688 50.664062 C 21.421875 49.96875 19.65625 49.289062 17.917969 48.539062 C 16.164062 47.785156 15.96875 46.972656 16.335938 45.511719 C 16.59375 44.464844 16.851562 43.414062 17.121094 42.367188 C 17.308594 41.796875 17.082031 41.175781 16.578125 40.859375 C 15.285156 39.84375 14.039062 38.777344 12.800781 37.699219 C 12.386719 37.3125 11.824219 37.128906 11.261719 37.195312 C 9.570312 37.347656 7.871094 37.472656 6.179688 37.640625 C 4.964844 37.8125 3.773438 37.179688 3.238281 36.074219 C 2.429688 34.621094 1.652344 33.152344 0.898438 31.667969 C 0.34375 30.59375 0.726562 29.753906 1.929688 29.234375 C 3.265625 28.660156 4.597656 28.070312 5.9375 27.511719 C 6.453125 27.34375 6.769531 26.824219 6.675781 26.292969 C 6.585938 24.992188 6.480469 23.6875 6.460938 22.382812 C 6.515625 21.664062 6.125 20.984375 5.472656 20.679688 C 4.203125 20.007812 2.972656 19.269531 1.730469 18.550781 C 1.476562 18.410156 1.230469 18.25 1.003906 18.074219 C -0.148438 17.144531 -0.257812 16.53125 0.417969 15.21875 C 0.9375 14.203125 1.4375 13.171875 1.917969 12.136719 C 2.574219 10.730469 3.410156 10.242188 4.902344 10.582031 C 6.625 10.972656 8.328125 11.441406 10.039062 11.886719 C 10.585938 12.050781 11.175781 11.9375 11.625 11.582031 C 12.707031 10.773438 13.808594 9.988281 14.890625 9.179688 C 15.804688 8.492188 15.808594 8.402344 15.445312 7.285156 C 15.042969 6.0625 14.648438 4.835938 14.285156 3.597656 C 13.992188 2.601562 14.285156 1.917969 15.269531 1.640625 C 17.363281 1.046875 19.472656 0.457031 21.605469 0.0390625 C 22.667969 -0.167969 23.554688 0.492188 24.210938 1.34375 C 24.925781 2.265625 25.695312 3.152344 26.3125 4.132812 C 27.042969 5.289062 28.085938 5.585938 29.332031 5.601562 C 29.777344 5.628906 30.21875 5.683594 30.660156 5.765625 "/>
<path style=" stroke:none;fill-rule:nonzero;fill:rgb(99.215686%,50.588235%,22.745098%);fill-opacity:1;" d="M 33.992188 45.859375 C 33.753906 45.859375 33.539062 45.855469 33.335938 45.84375 C 33.125 45.777344 32.964844 45.605469 32.910156 45.390625 C 32.882812 44.496094 32.886719 43.613281 32.890625 42.675781 C 32.890625 42.402344 32.890625 42.0625 32.890625 41.734375 C 32.960938 41.738281 33.03125 41.738281 33.105469 41.742188 L 33.132812 41.742188 C 33.269531 41.75 33.425781 41.757812 33.582031 41.769531 C 34 41.808594 34.429688 41.851562 34.804688 41.886719 L 34.851562 41.890625 C 35.234375 41.929688 35.628906 41.96875 36.015625 42 C 36.160156 42.015625 36.296875 42.019531 36.429688 42.019531 C 37.324219 42.0625 38.183594 41.65625 38.71875 40.933594 C 38.8125 40.8125 38.914062 40.695312 39.015625 40.582031 L 39.015625 40.578125 C 39.445312 40.214844 39.699219 39.679688 39.703125 39.113281 C 39.648438 38.605469 39.550781 38.101562 39.414062 37.609375 C 39.386719 37.511719 39.363281 37.414062 39.339844 37.3125 C 39.324219 37.253906 39.308594 37.191406 39.292969 37.132812 L 39.292969 37.125 C 39.148438 36.578125 39.011719 36.0625 39.414062 35.546875 C 39.46875 35.464844 39.511719 35.378906 39.539062 35.285156 C 39.554688 35.238281 39.574219 35.191406 39.589844 35.148438 C 39.832031 34.773438 39.890625 34.308594 39.753906 33.886719 C 39.609375 33.59375 39.261719 33.394531 38.632812 33.25 C 38.5625 33.230469 38.5 33.199219 38.441406 33.15625 L 38.375 33.117188 C 38.554688 33.003906 38.726562 32.890625 38.917969 32.769531 C 39.25 32.554688 39.5625 32.351562 39.886719 32.15625 C 40.085938 32.039062 40.183594 31.9375 40.214844 31.820312 C 40.234375 31.660156 40.1875 31.496094 40.085938 31.371094 C 39.628906 30.542969 39.488281 29.574219 39.699219 28.648438 C 39.773438 28.070312 40.234375 27.617188 40.816406 27.554688 C 41.390625 27.488281 41.886719 27.128906 42.140625 26.609375 C 42.300781 26.074219 42.179688 25.496094 41.816406 25.070312 C 41.554688 24.722656 41.269531 24.390625 40.964844 24.082031 C 40.78125 23.890625 40.59375 23.695312 40.421875 23.492188 C 40.285156 23.324219 40.160156 23.148438 40.042969 22.964844 C 39.792969 22.515625 39.421875 22.140625 38.976562 21.882812 C 38.648438 21.71875 38.421875 21.410156 38.355469 21.050781 C 38.277344 20.390625 38.488281 19.726562 38.9375 19.230469 C 39.542969 18.496094 39.609375 17.820312 39.507812 16.824219 C 39.386719 16.035156 39.089844 15.28125 38.640625 14.625 C 38.398438 14.238281 38.191406 13.832031 38.015625 13.414062 C 37.8125 12.886719 37.5625 12.371094 37.316406 11.871094 C 37.082031 11.402344 36.84375 10.914062 36.648438 10.417969 C 36.523438 10.101562 36.355469 9.804688 36.152344 9.535156 C 35.988281 9.316406 35.808594 9.113281 35.613281 8.925781 C 35.609375 8.921875 35.609375 8.917969 35.605469 8.917969 C 35.390625 8.703125 35.160156 8.5 34.945312 8.316406 C 34.238281 7.714844 33.5 7.179688 32.714844 6.609375 L 32.707031 6.601562 C 32.394531 6.375 32.039062 6.117188 31.691406 5.855469 C 33.304688 5.324219 34.988281 5.042969 36.6875 5.015625 C 36.894531 5.015625 37.113281 5.019531 37.320312 5.03125 C 37.398438 5.039062 37.476562 5.042969 37.558594 5.046875 L 37.574219 5.046875 C 37.707031 5.03125 37.839844 5.019531 37.972656 5.015625 C 37.988281 5.015625 38.007812 5.011719 38.023438 5.011719 C 38.042969 5.011719 38.058594 5.015625 38.074219 5.015625 C 38.140625 5.015625 38.195312 5.015625 38.25 5.015625 C 39.929688 5.070312 41.578125 5.464844 43.101562 6.179688 C 44.832031 6.894531 46.363281 8.015625 47.570312 9.449219 C 47.578125 9.453125 47.582031 9.460938 47.585938 9.46875 L 47.59375 9.476562 C 47.613281 9.507812 47.636719 9.535156 47.660156 9.558594 C 47.695312 9.613281 47.734375 9.667969 47.773438 9.722656 C 47.859375 9.855469 47.921875 9.960938 47.976562 10.058594 L 47.976562 10.066406 L 48.015625 10.125 C 48.078125 10.234375 48.140625 10.332031 48.207031 10.4375 C 48.429688 10.816406 48.609375 11.222656 48.75 11.640625 C 48.847656 11.914062 48.953125 12.195312 49.078125 12.460938 C 49.296875 12.914062 49.539062 13.363281 49.773438 13.800781 C 49.992188 14.210938 50.214844 14.628906 50.421875 15.050781 C 50.6875 15.589844 50.914062 16.148438 51.101562 16.722656 C 51.316406 17.335938 51.214844 18.019531 50.828125 18.546875 C 50.425781 19.144531 50.148438 19.824219 50.023438 20.535156 C 50.035156 21.046875 50.238281 21.539062 50.585938 21.914062 C 51.175781 22.640625 51.808594 23.351562 52.421875 24.039062 C 52.773438 24.433594 53.136719 24.835938 53.484375 25.242188 C 53.726562 25.460938 53.839844 25.78125 53.796875 26.101562 C 53.679688 26.414062 53.414062 26.652344 53.089844 26.738281 C 52.527344 26.886719 52.027344 27.203125 51.652344 27.644531 C 51.375 28.148438 51.265625 28.722656 51.34375 29.292969 C 51.363281 29.578125 51.40625 29.859375 51.476562 30.136719 C 51.554688 30.449219 51.597656 30.769531 51.605469 31.089844 C 51.601562 31.367188 51.285156 31.675781 51.007812 31.917969 C 50.871094 32.023438 50.71875 32.109375 50.558594 32.171875 L 50.554688 32.171875 C 50.410156 32.226562 50.269531 32.300781 50.140625 32.390625 C 49.976562 32.550781 49.898438 32.78125 49.929688 33.007812 L 50.046875 33.363281 C 50.039062 33.390625 50.027344 33.414062 50.019531 33.4375 C 50.007812 33.460938 50 33.484375 49.992188 33.503906 C 50.070312 33.539062 50.148438 33.570312 50.226562 33.609375 C 50.402344 33.691406 50.585938 33.765625 50.769531 33.824219 C 51.148438 33.925781 51.351562 34.054688 51.414062 34.21875 C 51.453125 34.402344 51.40625 34.589844 51.28125 34.726562 C 50.679688 35.636719 50.640625 36.8125 51.183594 37.761719 C 51.464844 38.460938 51.367188 39.253906 50.921875 39.863281 C 50.667969 40.269531 50.328125 40.613281 49.929688 40.875 C 49.554688 41.132812 49.113281 41.273438 48.660156 41.285156 C 48.539062 41.285156 48.414062 41.273438 48.292969 41.246094 C 46.8125 40.953125 45.300781 40.820312 43.789062 40.84375 C 43.4375 40.84375 43.070312 40.847656 42.667969 40.855469 C 42.265625 40.816406 41.890625 41.070312 41.785156 41.460938 C 41.421875 42.5625 41.054688 43.675781 40.707031 44.777344 C 40.503906 45.394531 39.925781 45.808594 39.277344 45.804688 C 39.246094 45.804688 39.21875 45.804688 39.191406 45.804688 C 38.871094 45.785156 38.535156 45.777344 38.15625 45.777344 C 37.679688 45.777344 37.191406 45.792969 36.71875 45.804688 L 36.699219 45.804688 C 36.390625 45.8125 36.042969 45.824219 35.703125 45.828125 C 35.472656 45.828125 35.238281 45.835938 35.011719 45.839844 L 34.96875 45.839844 C 34.652344 45.851562 34.320312 45.859375 33.992188 45.859375 Z M 39.621094 10.964844 C 39.542969 10.964844 39.46875 10.972656 39.394531 10.996094 C 38.980469 11.125 38.746094 11.5625 38.871094 11.976562 C 38.976562 12.304688 39.277344 12.53125 39.621094 12.53125 C 39.699219 12.53125 39.777344 12.519531 39.851562 12.496094 C 40.050781 12.4375 40.21875 12.300781 40.316406 12.117188 C 40.414062 11.933594 40.433594 11.71875 40.371094 11.519531 C 40.269531 11.1875 39.964844 10.964844 39.621094 10.960938 Z M 39.621094 10.140625 C 39.960938 10.140625 40.292969 10.25 40.570312 10.453125 C 40.851562 10.65625 41.058594 10.945312 41.160156 11.28125 C 41.210938 11.441406 41.359375 11.550781 41.527344 11.550781 C 41.566406 11.550781 41.605469 11.546875 41.640625 11.535156 C 41.84375 11.472656 41.957031 11.257812 41.898438 11.054688 C 41.585938 10.054688 40.664062 9.375 39.621094 9.371094 C 39.386719 9.371094 39.152344 9.40625 38.925781 9.472656 C 38.722656 9.539062 38.609375 9.753906 38.671875 9.957031 C 38.71875 10.117188 38.871094 10.230469 39.039062 10.230469 C 39.078125 10.230469 39.117188 10.222656 39.152344 10.210938 C 39.304688 10.164062 39.460938 10.140625 39.621094 10.140625 Z M 39.621094 8.695312 C 40.269531 8.695312 40.898438 8.902344 41.421875 9.28125 C 41.957031 9.667969 42.351562 10.222656 42.542969 10.855469 C 42.59375 11.015625 42.742188 11.128906 42.910156 11.128906 C 42.949219 11.128906 42.988281 11.121094 43.023438 11.109375 C 43.121094 11.082031 43.203125 11.011719 43.25 10.921875 C 43.300781 10.832031 43.308594 10.726562 43.277344 10.628906 C 42.777344 9.027344 41.300781 7.933594 39.621094 7.921875 C 39.242188 7.921875 38.867188 7.980469 38.503906 8.089844 C 38.40625 8.121094 38.324219 8.1875 38.277344 8.277344 C 38.230469 8.367188 38.21875 8.472656 38.25 8.570312 C 38.296875 8.734375 38.449219 8.847656 38.617188 8.84375 C 38.65625 8.84375 38.695312 8.839844 38.730469 8.828125 C 39.019531 8.738281 39.316406 8.695312 39.617188 8.695312 Z M 39.621094 7.167969 C 40.59375 7.171875 41.535156 7.480469 42.320312 8.050781 C 43.125 8.632812 43.714844 9.460938 44.003906 10.410156 C 44.050781 10.574219 44.203125 10.683594 44.371094 10.683594 C 44.410156 10.683594 44.449219 10.679688 44.484375 10.667969 C 44.6875 10.605469 44.800781 10.386719 44.742188 10.183594 C 44.328125 8.824219 43.390625 7.6875 42.136719 7.023438 C 41.363281 6.613281 40.503906 6.398438 39.628906 6.394531 C 39.097656 6.394531 38.566406 6.476562 38.058594 6.632812 C 37.855469 6.695312 37.742188 6.910156 37.804688 7.113281 C 37.851562 7.277344 38.003906 7.386719 38.171875 7.386719 C 38.210938 7.386719 38.246094 7.378906 38.285156 7.371094 C 38.714844 7.234375 39.167969 7.167969 39.617188 7.167969 Z M 39.621094 7.167969 "/>
<path style=" stroke:none;fill-rule:nonzero;fill:rgb(0%,39.607843%,60%);fill-opacity:1;" d="M 38.804688 12 C 38.664062 11.546875 38.921875 11.066406 39.371094 10.929688 C 39.453125 10.902344 39.539062 10.890625 39.621094 10.890625 C 40 10.890625 40.332031 11.136719 40.441406 11.496094 C 40.507812 11.714844 40.484375 11.949219 40.378906 12.148438 C 40.273438 12.347656 40.089844 12.5 39.871094 12.566406 C 39.792969 12.589844 39.707031 12.601562 39.621094 12.601562 C 39.246094 12.601562 38.914062 12.355469 38.804688 12 Z M 41.09375 11.296875 C 40.996094 10.980469 40.796875 10.703125 40.527344 10.507812 C 40.265625 10.316406 39.949219 10.210938 39.625 10.210938 C 39.472656 10.210938 39.320312 10.234375 39.175781 10.277344 C 39.132812 10.292969 39.085938 10.296875 39.042969 10.300781 C 38.839844 10.300781 38.660156 10.167969 38.601562 9.972656 C 38.53125 9.730469 38.664062 9.476562 38.90625 9.402344 C 39.140625 9.332031 39.378906 9.292969 39.621094 9.292969 C 40.699219 9.300781 41.648438 10 41.96875 11.027344 C 42.042969 11.269531 41.90625 11.527344 41.664062 11.601562 C 41.621094 11.613281 41.574219 11.621094 41.53125 11.621094 C 41.328125 11.621094 41.152344 11.492188 41.089844 11.300781 Z M 42.472656 10.875 C 42.289062 10.257812 41.902344 9.71875 41.382812 9.339844 C 40.871094 8.96875 40.253906 8.769531 39.625 8.765625 C 39.328125 8.765625 39.035156 8.8125 38.753906 8.898438 C 38.710938 8.910156 38.667969 8.917969 38.621094 8.917969 C 38.417969 8.917969 38.242188 8.785156 38.183594 8.59375 C 38.148438 8.476562 38.160156 8.351562 38.214844 8.246094 C 38.273438 8.136719 38.371094 8.058594 38.484375 8.023438 C 38.855469 7.910156 39.238281 7.851562 39.625 7.851562 C 41.335938 7.859375 42.84375 8.976562 43.351562 10.609375 C 43.386719 10.726562 43.375 10.851562 43.316406 10.957031 C 43.261719 11.066406 43.164062 11.144531 43.046875 11.179688 C 43.003906 11.195312 42.957031 11.203125 42.914062 11.203125 C 42.710938 11.203125 42.53125 11.070312 42.472656 10.878906 Z M 43.933594 10.429688 C 43.652344 9.496094 43.070312 8.679688 42.28125 8.105469 C 41.507812 7.546875 40.578125 7.242188 39.621094 7.238281 C 39.175781 7.238281 38.734375 7.304688 38.308594 7.4375 C 38.261719 7.449219 38.21875 7.457031 38.171875 7.457031 C 37.972656 7.457031 37.792969 7.324219 37.734375 7.132812 C 37.660156 6.890625 37.796875 6.632812 38.039062 6.558594 C 38.554688 6.402344 39.089844 6.320312 39.632812 6.320312 C 40.515625 6.324219 41.386719 6.542969 42.171875 6.957031 C 43.441406 7.628906 44.394531 8.785156 44.8125 10.160156 C 44.882812 10.402344 44.746094 10.660156 44.507812 10.734375 C 44.460938 10.746094 44.417969 10.753906 44.371094 10.753906 C 44.171875 10.753906 43.992188 10.625 43.933594 10.429688 Z M 43.933594 10.429688 "/>
<path style=" stroke:none;fill-rule:nonzero;fill:rgb(0%,39.607843%,60%);fill-opacity:1;" d="M 28.027344 34.140625 C 26.550781 34.183594 25.089844 33.792969 23.835938 33.015625 C 22.707031 32.289062 21.855469 31.203125 21.425781 29.933594 L 23.847656 28.515625 C 24.53125 30.4375 25.949219 31.402344 28.101562 31.402344 C 28.941406 31.460938 29.777344 31.242188 30.484375 30.777344 C 30.996094 30.398438 31.292969 29.796875 31.277344 29.15625 C 31.304688 28.507812 30.976562 27.898438 30.421875 27.5625 C 29.460938 27.035156 28.441406 26.628906 27.386719 26.355469 L 25.421875 25.625 C 24.851562 25.40625 24.308594 25.117188 23.808594 24.765625 C 23.269531 24.40625 22.835938 23.914062 22.550781 23.332031 C 22.261719 22.707031 22.121094 22.019531 22.136719 21.328125 C 22.078125 19.941406 22.675781 18.605469 23.75 17.722656 C 24.84375 16.828125 26.222656 16.355469 27.632812 16.390625 C 28.90625 16.363281 30.15625 16.710938 31.226562 17.394531 C 32.261719 18.070312 33.085938 19.027344 33.597656 20.15625 L 31.226562 21.523438 C 30.671875 20.035156 29.222656 19.070312 27.632812 19.128906 C 26.9375 19.09375 26.246094 19.296875 25.679688 19.703125 C 25.199219 20.070312 24.925781 20.648438 24.945312 21.253906 C 24.929688 21.84375 25.210938 22.398438 25.695312 22.726562 C 26.542969 23.238281 27.457031 23.621094 28.414062 23.863281 L 29.816406 24.394531 L 31.097656 24.875 C 31.546875 25.027344 31.964844 25.25 32.34375 25.535156 C 32.65625 25.804688 32.953125 26.09375 33.226562 26.402344 C 33.539062 26.742188 33.765625 27.148438 33.894531 27.59375 C 34.027344 28.082031 34.09375 28.589844 34.085938 29.101562 C 34.144531 30.523438 33.523438 31.890625 32.414062 32.78125 C 31.15625 33.730469 29.601562 34.210938 28.027344 34.140625 Z M 28.027344 34.140625 "/>
</g>
</svg>
