<svg xmlns="http://www.w3.org/2000/svg" width="517.012" height="98.005" viewBox="0 0 517.012 98.005"><g transform="translate(-121.13 -121)"><g transform="translate(248.298 136)"><path d="M3.122-16.776a3.426,3.426,0,0,1-.624-.6,2.021,2.021,0,0,1-.379-.757,1.9,1.9,0,0,1,0-.913,3.235,3.235,0,0,1,.557-1.113l1.381-2a2.229,2.229,0,0,1,1.47-1.091,3.156,3.156,0,0,1,1.915.512l.958.534q.557.312,1.292.646a9.484,9.484,0,0,0,1.626.557,7.879,7.879,0,0,0,1.915.223,4.138,4.138,0,0,0,2.561-.646,1.945,1.945,0,0,0,.824-1.581A2.3,2.3,0,0,0,15.571-24.9a13.571,13.571,0,0,0-2.606-1.47q-1.559-.69-3.385-1.47A16.545,16.545,0,0,1,6.2-29.781a10.306,10.306,0,0,1-2.606-2.828,7.7,7.7,0,0,1-1.047-4.164,9.068,9.068,0,0,1,.869-3.986,9.361,9.361,0,0,1,2.383-3.1A10.608,10.608,0,0,1,9.4-45.838a14.278,14.278,0,0,1,4.5-.69,15.983,15.983,0,0,1,5.122.779A14.362,14.362,0,0,1,22.5-44.167a2.467,2.467,0,0,1,1.113,1.537,2.964,2.964,0,0,1-.356,1.8l-1.069,2.093q-.668,1.292-1.537,1.314a3.675,3.675,0,0,1-1.8-.468q-1.113-.534-2.294-1a7.4,7.4,0,0,0-2.739-.468,4.3,4.3,0,0,0-2.672.646,1.962,1.962,0,0,0-.8,1.581,2.281,2.281,0,0,0,1.047,1.915A13.591,13.591,0,0,0,13.99-33.79q1.559.668,3.385,1.4a15.637,15.637,0,0,1,3.385,1.871,10.012,10.012,0,0,1,2.606,2.806,7.7,7.7,0,0,1,1.047,4.164,10,10,0,0,1-.735,3.808,9.032,9.032,0,0,1-2.16,3.162A10.436,10.436,0,0,1,18-14.415a13.255,13.255,0,0,1-4.766.8A16.21,16.21,0,0,1,10-13.925,20.89,20.89,0,0,1,7.153-14.7a17.6,17.6,0,0,1-2.361-1.024A11.464,11.464,0,0,1,3.122-16.776ZM27.708-43.544a2.165,2.165,0,0,1,2.45-2.45h2.806a2.165,2.165,0,0,1,2.45,2.45v7.616q0,.445-.022.8t-.022.624a3.864,3.864,0,0,0-.045.534h.089a6.9,6.9,0,0,1,2.851-2.672,8.79,8.79,0,0,1,4.142-.98,11.473,11.473,0,0,1,3.251.445,6.5,6.5,0,0,1,2.606,1.448A6.986,6.986,0,0,1,50-33.077a11.154,11.154,0,0,1,.646,4.053V-16.6a2.165,2.165,0,0,1-2.45,2.45H45.39a2.165,2.165,0,0,1-2.45-2.45v-11a3.486,3.486,0,0,0-.624-2.316,2.412,2.412,0,0,0-1.915-.713,4.284,4.284,0,0,0-3.741,1.759,7.4,7.4,0,0,0-1.247,4.387V-16.6a2.165,2.165,0,0,1-2.45,2.45H30.157a2.165,2.165,0,0,1-2.45-2.45Zm29.708,3.563a2.165,2.165,0,0,1-2.45-2.45v-1.113a2.165,2.165,0,0,1,2.45-2.45h2.628a2.165,2.165,0,0,1,2.45,2.45v1.113a2.165,2.165,0,0,1-2.45,2.45Zm-2.539,5.345a2.165,2.165,0,0,1,2.45-2.45h2.806a2.165,2.165,0,0,1,2.45,2.45V-16.6a2.165,2.165,0,0,1-2.45,2.45H57.327a2.165,2.165,0,0,1-2.45-2.45ZM67.17-43.544a2.165,2.165,0,0,1,2.45-2.45h2.806a2.165,2.165,0,0,1,2.45,2.45v14.03h2.182l3.563-5.924a3.1,3.1,0,0,1,2.9-1.648h2.94q1.514,0,1.96.846a2.052,2.052,0,0,1-.356,2.093l-4.81,7.483v.089l5.835,9.487a2.14,2.14,0,0,1,.312,2.116q-.445.824-1.96.824H84.1a3.138,3.138,0,0,1-2.9-1.737l-3.919-7.171H74.875V-16.6a2.165,2.165,0,0,1-2.45,2.45H69.62a2.165,2.165,0,0,1-2.45-2.45ZM92.513-15.707a1.992,1.992,0,0,1-1.136-1.47,2.976,2.976,0,0,1,.512-1.915l.668-1.024a2.321,2.321,0,0,1,1.448-1.113,3.408,3.408,0,0,1,1.937.4q.846.356,1.915.779a6.618,6.618,0,0,0,2.45.423A2.64,2.64,0,0,0,101.933-20a1.139,1.139,0,0,0,.468-.913,1.2,1.2,0,0,0-.8-1.069,14.168,14.168,0,0,0-1.982-.779q-1.18-.379-2.583-.846A10.023,10.023,0,0,1,94.451-24.9a7.032,7.032,0,0,1-1.982-2.138,6.277,6.277,0,0,1-.8-3.318A6.5,6.5,0,0,1,92.4-33.5a6.6,6.6,0,0,1,2.027-2.272,9.452,9.452,0,0,1,3.029-1.381,14.348,14.348,0,0,1,3.741-.468,13.25,13.25,0,0,1,3.808.49,21.45,21.45,0,0,1,2.695.98,1.964,1.964,0,0,1,1.2,1.381,3.02,3.02,0,0,1-.312,1.915l-.534,1.069a2.12,2.12,0,0,1-1.292,1.292,3.162,3.162,0,0,1-1.96-.223q-.8-.312-1.782-.6a7.519,7.519,0,0,0-2.138-.29,2.635,2.635,0,0,0-1.648.356,1.1,1.1,0,0,0-.4.846,1.163,1.163,0,0,0,.8,1.047,16.56,16.56,0,0,0,1.982.757q1.18.379,2.583.824a9.512,9.512,0,0,1,2.583,1.269,7.222,7.222,0,0,1,1.982,2.093,6.041,6.041,0,0,1,.8,3.274,6.955,6.955,0,0,1-.646,2.984,6.744,6.744,0,0,1-1.871,2.383,9.2,9.2,0,0,1-2.984,1.581,12.568,12.568,0,0,1-3.942.579,13.264,13.264,0,0,1-4.5-.69A18.563,18.563,0,0,1,92.513-15.707Zm20.533-27.837a2.165,2.165,0,0,1,2.45-2.45H118.3a2.165,2.165,0,0,1,2.45,2.45v7.616q0,.445-.022.8t-.022.624a3.865,3.865,0,0,0-.045.534h.089A6.9,6.9,0,0,1,123.6-36.64a8.79,8.79,0,0,1,4.142-.98,11.473,11.473,0,0,1,3.251.445,6.5,6.5,0,0,1,2.606,1.448,6.986,6.986,0,0,1,1.737,2.65,11.154,11.154,0,0,1,.646,4.053V-16.6a2.165,2.165,0,0,1-2.45,2.45h-2.806a2.165,2.165,0,0,1-2.45-2.45v-11a3.486,3.486,0,0,0-.624-2.316,2.412,2.412,0,0,0-1.915-.713A4.284,4.284,0,0,0,122-28.868a7.4,7.4,0,0,0-1.247,4.387V-16.6a2.165,2.165,0,0,1-2.45,2.45H115.5a2.165,2.165,0,0,1-2.45-2.45Zm25.61,22.938a5.9,5.9,0,0,1,1.225-3.83,8.661,8.661,0,0,1,3.14-2.405,15.611,15.611,0,0,1,4.187-1.247,28.448,28.448,0,0,1,4.409-.356h.668v-.4a2.083,2.083,0,0,0-.98-1.982,4.519,4.519,0,0,0-2.272-.557,7.756,7.756,0,0,0-2.182.312,15.039,15.039,0,0,0-1.96.713q-2.272.98-3.3-1.069l-.534-1.113a2.747,2.747,0,0,1-.267-1.893,2.237,2.237,0,0,1,1.247-1.4,21.832,21.832,0,0,1,3.251-1.2,15.725,15.725,0,0,1,4.454-.579,10.79,10.79,0,0,1,7.5,2.472,8.8,8.8,0,0,1,2.739,6.881V-16.6a2.165,2.165,0,0,1-2.45,2.45H155.4a2.185,2.185,0,0,1-2.45-2.494v-.49a.181.181,0,0,1,.045-.134h-.089a8,8,0,0,1-1.648,1.826,8.566,8.566,0,0,1-2.138,1.269,7.483,7.483,0,0,1-2.984.557,8.322,8.322,0,0,1-3.029-.534,7.068,7.068,0,0,1-2.361-1.47,6.716,6.716,0,0,1-1.537-2.227A6.9,6.9,0,0,1,138.656-20.606Zm7.616-.713a1.923,1.923,0,0,0,.557,1.381,2.152,2.152,0,0,0,1.626.579,3.271,3.271,0,0,0,1.559-.379,4.655,4.655,0,0,0,1.247-.958,4.25,4.25,0,0,0,.824-1.292,3.762,3.762,0,0,0,.29-1.425v-.624h-.713a13.379,13.379,0,0,0-1.848.134,7.433,7.433,0,0,0-1.737.445,3.788,3.788,0,0,0-1.292.824A1.779,1.779,0,0,0,146.273-21.319Zm17.95-22.225a2.165,2.165,0,0,1,2.45-2.45h2.806a2.165,2.165,0,0,1,2.45,2.45v14.03h2.182l3.563-5.924a3.1,3.1,0,0,1,2.9-1.648h2.94q1.514,0,1.96.846a2.051,2.051,0,0,1-.356,2.093l-4.81,7.483v.089l5.835,9.487a2.14,2.14,0,0,1,.312,2.116q-.445.824-1.96.824h-3.34a3.138,3.138,0,0,1-2.9-1.737l-3.919-7.171h-2.405V-16.6a2.165,2.165,0,0,1-2.45,2.45h-2.806a2.165,2.165,0,0,1-2.45-2.45Zm31.8,26.768a3.425,3.425,0,0,1-.624-.6,2.02,2.02,0,0,1-.379-.757,1.9,1.9,0,0,1,0-.913,3.235,3.235,0,0,1,.557-1.113l1.381-2a2.229,2.229,0,0,1,1.47-1.091,3.156,3.156,0,0,1,1.915.512l.958.534q.557.312,1.292.646a9.484,9.484,0,0,0,1.626.557,7.879,7.879,0,0,0,1.915.223,4.138,4.138,0,0,0,2.561-.646,1.945,1.945,0,0,0,.824-1.581,2.3,2.3,0,0,0-1.047-1.893,13.571,13.571,0,0,0-2.606-1.47q-1.559-.69-3.385-1.47a16.544,16.544,0,0,1-3.385-1.937,10.307,10.307,0,0,1-2.606-2.828,7.7,7.7,0,0,1-1.047-4.164,9.068,9.068,0,0,1,.869-3.986,9.36,9.36,0,0,1,2.383-3.1,10.607,10.607,0,0,1,3.608-1.982,14.278,14.278,0,0,1,4.5-.69,15.983,15.983,0,0,1,5.122.779,14.362,14.362,0,0,1,3.474,1.581,2.467,2.467,0,0,1,1.113,1.537,2.964,2.964,0,0,1-.356,1.8l-1.069,2.093q-.668,1.292-1.537,1.314a3.675,3.675,0,0,1-1.8-.468q-1.113-.534-2.294-1a7.4,7.4,0,0,0-2.739-.468,4.3,4.3,0,0,0-2.672.646,1.962,1.962,0,0,0-.8,1.581,2.281,2.281,0,0,0,1.047,1.915,13.591,13.591,0,0,0,2.606,1.425q1.559.668,3.385,1.4a15.638,15.638,0,0,1,3.385,1.871,10.012,10.012,0,0,1,2.606,2.806,7.7,7.7,0,0,1,1.047,4.164,10,10,0,0,1-.735,3.808,9.032,9.032,0,0,1-2.16,3.162,10.435,10.435,0,0,1-3.519,2.16,13.255,13.255,0,0,1-4.766.8,16.21,16.21,0,0,1-3.229-.312,20.888,20.888,0,0,1-2.851-.779,17.6,17.6,0,0,1-2.361-1.024A11.463,11.463,0,0,1,196.024-16.776Zm23.294-8.774a11.69,11.69,0,0,1,1.024-4.944,11.539,11.539,0,0,1,2.784-3.808,12.6,12.6,0,0,1,4.12-2.45,14.461,14.461,0,0,1,5.033-.869,14.777,14.777,0,0,1,5.1.869,12.552,12.552,0,0,1,4.142,2.45,11.538,11.538,0,0,1,2.784,3.808,11.69,11.69,0,0,1,1.024,4.944,11.433,11.433,0,0,1-1.024,4.877,11.6,11.6,0,0,1-2.784,3.786,12.3,12.3,0,0,1-4.12,2.427,14.936,14.936,0,0,1-5.078.846,14.936,14.936,0,0,1-5.078-.846,12.3,12.3,0,0,1-4.12-2.427,11.6,11.6,0,0,1-2.784-3.786A11.433,11.433,0,0,1,219.318-25.55Zm7.794,0a5.929,5.929,0,0,0,.423,2.3,5.219,5.219,0,0,0,1.136,1.723,4.916,4.916,0,0,0,1.648,1.083,5.33,5.33,0,0,0,2,.375,5.33,5.33,0,0,0,2-.375,4.916,4.916,0,0,0,1.648-1.083,5.219,5.219,0,0,0,1.136-1.723,5.93,5.93,0,0,0,.423-2.3,6.1,6.1,0,0,0-.423-2.32,5.42,5.42,0,0,0-1.136-1.767,5.042,5.042,0,0,0-1.648-1.127,5.069,5.069,0,0,0-2-.4,5.068,5.068,0,0,0-2,.4,5.042,5.042,0,0,0-1.648,1.127,5.42,5.42,0,0,0-1.136,1.767A6.1,6.1,0,0,0,227.112-25.551Zm21.379-17.993a2.165,2.165,0,0,1,2.45-2.45h2.806a2.165,2.165,0,0,1,2.45,2.45v20.577a2.821,2.821,0,0,0,.379,1.737,1.5,1.5,0,0,0,.913.534,2.089,2.089,0,0,1,1.292.579,2.064,2.064,0,0,1,.49,1.514v2.182a2.7,2.7,0,0,1-.579,1.826,2.416,2.416,0,0,1-1.915.668,16.773,16.773,0,0,1-2.962-.267,6.043,6.043,0,0,1-2.672-1.18A6.436,6.436,0,0,1,249.226-18a11.918,11.918,0,0,1-.735-4.61Zm13.5,8.908a2.165,2.165,0,0,1,2.45-2.45h2.806a2.165,2.165,0,0,1,2.45,2.45v11a3.486,3.486,0,0,0,.624,2.316,2.3,2.3,0,0,0,1.826.713,4.345,4.345,0,0,0,2.16-.512,4.5,4.5,0,0,0,1.514-1.381,6.16,6.16,0,0,0,.891-2A9.8,9.8,0,0,0,277-26.931v-7.705a2.165,2.165,0,0,1,2.45-2.45h2.806a2.165,2.165,0,0,1,2.45,2.45V-16.6a2.165,2.165,0,0,1-2.45,2.45h-2.494a2.146,2.146,0,0,1-2.405-2.45v-.757a.5.5,0,0,1,.045-.223h-.089a6.621,6.621,0,0,1-2.9,2.917,8.934,8.934,0,0,1-4.276,1.047,11.08,11.08,0,0,1-3.185-.445,6.708,6.708,0,0,1-2.606-1.448,6.655,6.655,0,0,1-1.737-2.65,11.516,11.516,0,0,1-.624-4.053ZM290.8-30.672h-.668a2.146,2.146,0,0,1-2.405-2.45v-1.113a2.165,2.165,0,0,1,2.45-2.45h.846v-4.142a2.165,2.165,0,0,1,2.45-2.45h2.583a2.165,2.165,0,0,1,2.45,2.45v4.142h2.361a2.165,2.165,0,0,1,2.45,2.45v1.113a2.146,2.146,0,0,1-2.405,2.45H298.51v6.948a2.526,2.526,0,0,0,.824,2.116,3.728,3.728,0,0,0,1.848.779,3.623,3.623,0,0,1,1.893.668,2.3,2.3,0,0,1,.557,1.782v2a2.132,2.132,0,0,1-.8,1.915,4.273,4.273,0,0,1-2.361.534,14.08,14.08,0,0,1-2.94-.356,10.018,10.018,0,0,1-3.162-1.292,7.9,7.9,0,0,1-2.539-2.561A7.693,7.693,0,0,1,290.8-22.3Zm18.751-9.309a2.165,2.165,0,0,1-2.45-2.45v-1.113a2.165,2.165,0,0,1,2.45-2.45h2.628a2.165,2.165,0,0,1,2.45,2.45v1.113a2.165,2.165,0,0,1-2.45,2.45Zm-2.539,5.345a2.165,2.165,0,0,1,2.45-2.45h2.806a2.165,2.165,0,0,1,2.45,2.45V-16.6a2.165,2.165,0,0,1-2.45,2.45h-2.806a2.165,2.165,0,0,1-2.45-2.45Zm10.957,9.086A11.69,11.69,0,0,1,319-30.494a11.539,11.539,0,0,1,2.784-3.808,12.6,12.6,0,0,1,4.12-2.45,14.461,14.461,0,0,1,5.033-.869,14.778,14.778,0,0,1,5.1.869,12.553,12.553,0,0,1,4.142,2.45,11.539,11.539,0,0,1,2.784,3.808,11.691,11.691,0,0,1,1.024,4.944,11.434,11.434,0,0,1-1.024,4.877,11.6,11.6,0,0,1-2.784,3.786,12.3,12.3,0,0,1-4.12,2.427,14.936,14.936,0,0,1-5.077.846,14.936,14.936,0,0,1-5.078-.846,12.3,12.3,0,0,1-4.12-2.427A11.6,11.6,0,0,1,319-20.673,11.433,11.433,0,0,1,317.974-25.55Zm7.794,0a5.929,5.929,0,0,0,.423,2.3,5.219,5.219,0,0,0,1.136,1.723,4.916,4.916,0,0,0,1.648,1.083,5.33,5.33,0,0,0,2,.375,5.33,5.33,0,0,0,2-.375,4.917,4.917,0,0,0,1.648-1.083,5.219,5.219,0,0,0,1.136-1.723,5.93,5.93,0,0,0,.423-2.3,6.1,6.1,0,0,0-.423-2.32,5.42,5.42,0,0,0-1.136-1.767,5.042,5.042,0,0,0-1.648-1.127,5.068,5.068,0,0,0-2-.4,5.068,5.068,0,0,0-2,.4,5.042,5.042,0,0,0-1.648,1.127,5.42,5.42,0,0,0-1.136,1.767A6.1,6.1,0,0,0,325.768-25.551Zm21.468-9.085a2.165,2.165,0,0,1,2.45-2.45h2.494a2.146,2.146,0,0,1,2.405,2.45v.4a.733.733,0,0,1-.022.178.731.731,0,0,0-.022.178v.223h.089a9.7,9.7,0,0,1,1.024-1.381,6.738,6.738,0,0,1,1.514-1.269,9.19,9.19,0,0,1,2.071-.935,8.816,8.816,0,0,1,2.695-.379,11.474,11.474,0,0,1,3.251.445,6.5,6.5,0,0,1,2.606,1.448,6.987,6.987,0,0,1,1.737,2.65,11.154,11.154,0,0,1,.646,4.053V-16.6a2.165,2.165,0,0,1-2.45,2.45h-2.806a2.165,2.165,0,0,1-2.45-2.45v-11a3.486,3.486,0,0,0-.624-2.316,2.412,2.412,0,0,0-1.915-.713,4.74,4.74,0,0,0-2.227.49,4.511,4.511,0,0,0-1.559,1.336,5.672,5.672,0,0,0-.913,1.96,9.166,9.166,0,0,0-.29,2.316V-16.6a2.165,2.165,0,0,1-2.45,2.45h-2.806a2.165,2.165,0,0,1-2.45-2.45Zm27.169,18.929a1.991,1.991,0,0,1-1.136-1.47,2.976,2.976,0,0,1,.512-1.915l.668-1.024A2.321,2.321,0,0,1,375.9-21.23a3.408,3.408,0,0,1,1.938.4q.846.356,1.915.779a6.618,6.618,0,0,0,2.45.423A2.64,2.64,0,0,0,383.826-20a1.14,1.14,0,0,0,.468-.913,1.2,1.2,0,0,0-.8-1.069,14.171,14.171,0,0,0-1.982-.779q-1.18-.379-2.583-.846a10.025,10.025,0,0,1-2.583-1.292,7.033,7.033,0,0,1-1.982-2.138,6.277,6.277,0,0,1-.8-3.318,6.5,6.5,0,0,1,.735-3.14,6.6,6.6,0,0,1,2.027-2.272,9.452,9.452,0,0,1,3.029-1.381,14.348,14.348,0,0,1,3.741-.468,13.25,13.25,0,0,1,3.808.49,21.452,21.452,0,0,1,2.695.98,1.965,1.965,0,0,1,1.2,1.381,3.021,3.021,0,0,1-.312,1.915l-.534,1.069a2.12,2.12,0,0,1-1.292,1.292,3.162,3.162,0,0,1-1.96-.223q-.8-.312-1.782-.6a7.519,7.519,0,0,0-2.138-.29,2.635,2.635,0,0,0-1.648.356,1.1,1.1,0,0,0-.4.846,1.163,1.163,0,0,0,.8,1.047,16.559,16.559,0,0,0,1.982.757q1.18.379,2.583.824a9.513,9.513,0,0,1,2.583,1.269,7.222,7.222,0,0,1,1.982,2.093,6.042,6.042,0,0,1,.8,3.274,6.956,6.956,0,0,1-.646,2.984,6.745,6.745,0,0,1-1.871,2.383,9.2,9.2,0,0,1-2.984,1.581,12.568,12.568,0,0,1-3.942.579,13.264,13.264,0,0,1-4.5-.69A18.566,18.566,0,0,1,374.405-15.707Z" transform="translate(-2.064 46.528)" fill="#2b3755" opacity="0.91"/><path d="M-551.69-25.017h3l4.571,7.954h.188l4.571-7.954h3l-6.348,10.628v6.869h-2.632v-6.869Zm22.308,17.762A6.025,6.025,0,0,1-532.6-8.1a5.7,5.7,0,0,1-2.136-2.371,7.859,7.859,0,0,1-.76-3.55,7.927,7.927,0,0,1,.76-3.571,5.693,5.693,0,0,1,2.136-2.375,6.025,6.025,0,0,1,3.221-.846,6.019,6.019,0,0,1,3.225.846,5.7,5.7,0,0,1,2.132,2.375,7.929,7.929,0,0,1,.76,3.571,7.861,7.861,0,0,1-.76,3.55A5.708,5.708,0,0,1-526.157-8.1,6.019,6.019,0,0,1-529.382-7.255Zm.009-2.144a3.058,3.058,0,0,0,1.986-.632,3.747,3.747,0,0,0,1.162-1.687,6.772,6.772,0,0,0,.38-2.311,6.808,6.808,0,0,0-.38-2.315,3.774,3.774,0,0,0-1.162-1.7,3.044,3.044,0,0,0-1.986-.636,3.061,3.061,0,0,0-1.991.636,3.788,3.788,0,0,0-1.171,1.7,6.738,6.738,0,0,0-.385,2.315,6.7,6.7,0,0,0,.385,2.311,3.76,3.76,0,0,0,1.171,1.687A3.075,3.075,0,0,0-529.373-9.4Zm18.566-3.563v-7.681h2.563V-7.519h-2.512V-9.792h-.137a4.078,4.078,0,0,1-1.448,1.747,4.21,4.21,0,0,1-2.473.7,4.118,4.118,0,0,1-3.1-1.252,5.12,5.12,0,0,1-1.209-3.7v-8.347h2.555v8.04a3,3,0,0,0,.743,2.136,2.523,2.523,0,0,0,1.931.795,3.159,3.159,0,0,0,1.431-.359,3.034,3.034,0,0,0,1.187-1.089A3.27,3.27,0,0,0-510.807-12.962Zm7.288,5.442V-20.642h2.469v2.085h.137a3.193,3.193,0,0,1,1.264-1.67,3.611,3.611,0,0,1,2.068-.611,3.357,3.357,0,0,1,.965.128,2.691,2.691,0,0,1,.752.35l-.82,2.136a2.242,2.242,0,0,0-.521-.188,2.925,2.925,0,0,0-.666-.068,3.1,3.1,0,0,0-2.208.833,2.779,2.779,0,0,0-.884,2.115v8.014Zm20.292-17.5,4.87,14.251h.2l4.87-14.251h2.854l-6.3,17.5h-3.05l-6.3-17.5Zm16.4,17.5V-20.642h2.555V-7.519Zm1.29-15.148a1.6,1.6,0,0,1-1.141-.449,1.426,1.426,0,0,1-.474-1.072,1.435,1.435,0,0,1,.474-1.081,1.6,1.6,0,0,1,1.141-.449,1.6,1.6,0,0,1,1.136.449,1.429,1.429,0,0,1,.479,1.081,1.419,1.419,0,0,1-.479,1.072A1.6,1.6,0,0,1-465.532-22.667Zm15.832,5.229-2.315.41a2.9,2.9,0,0,0-.825-1.209,2.584,2.584,0,0,0-1.8-.551,3.224,3.224,0,0,0-1.816.483,1.422,1.422,0,0,0-.722,1.243A1.275,1.275,0,0,0-456.693-16a4.033,4.033,0,0,0,1.576.654l2.085.478q3.589.829,3.588,3.554a3.43,3.43,0,0,1-.679,2.1,4.513,4.513,0,0,1-1.888,1.435,7.017,7.017,0,0,1-2.8.521,6.261,6.261,0,0,1-3.6-.944,4,4,0,0,1-1.709-2.687l2.469-.376q.461,1.948,2.819,1.948a3.442,3.442,0,0,0,2.008-.525,1.537,1.537,0,0,0,.752-1.286q0-1.256-1.854-1.666l-2.221-.487a5.2,5.2,0,0,1-2.717-1.333,3.239,3.239,0,0,1-.872-2.315,3.329,3.329,0,0,1,.649-2.038,4.237,4.237,0,0,1,1.794-1.363,6.649,6.649,0,0,1,2.623-.487,5.439,5.439,0,0,1,3.349.923A4.33,4.33,0,0,1-449.7-17.439Zm4.358,9.919V-20.642h2.555V-7.519Zm1.29-15.148a1.6,1.6,0,0,1-1.141-.449,1.425,1.425,0,0,1-.474-1.072,1.434,1.434,0,0,1,.474-1.081,1.6,1.6,0,0,1,1.141-.449,1.605,1.605,0,0,1,1.136.449,1.429,1.429,0,0,1,.478,1.081,1.42,1.42,0,0,1-.478,1.072A1.605,1.605,0,0,1-444.052-22.667Zm11.526,15.413a6.025,6.025,0,0,1-3.221-.846,5.7,5.7,0,0,1-2.136-2.371,7.86,7.86,0,0,1-.76-3.55,7.928,7.928,0,0,1,.76-3.571,5.693,5.693,0,0,1,2.136-2.375,6.025,6.025,0,0,1,3.221-.846,6.019,6.019,0,0,1,3.225.846,5.7,5.7,0,0,1,2.132,2.375,7.928,7.928,0,0,1,.76,3.571,7.86,7.86,0,0,1-.76,3.55A5.707,5.707,0,0,1-429.3-8.1,6.019,6.019,0,0,1-432.526-7.255Zm.009-2.144a3.058,3.058,0,0,0,1.986-.632,3.747,3.747,0,0,0,1.162-1.687,6.772,6.772,0,0,0,.38-2.311,6.808,6.808,0,0,0-.38-2.315,3.774,3.774,0,0,0-1.162-1.7,3.044,3.044,0,0,0-1.986-.636,3.062,3.062,0,0,0-1.991.636,3.788,3.788,0,0,0-1.17,1.7,6.741,6.741,0,0,0-.385,2.315,6.7,6.7,0,0,0,.385,2.311,3.761,3.761,0,0,0,1.17,1.687A3.075,3.075,0,0,0-432.518-9.4Zm12.807-5.912v7.792h-2.555V-20.642h2.452v2.136h.162a3.743,3.743,0,0,1,1.422-1.675,4.4,4.4,0,0,1,2.448-.632,4.326,4.326,0,0,1,3.242,1.256,5.078,5.078,0,0,1,1.226,3.691v8.347h-2.555v-8.04a3.174,3.174,0,0,0-.743-2.234,2.638,2.638,0,0,0-2.042-.807,2.982,2.982,0,0,0-2.2.859A3.278,3.278,0,0,0-419.71-15.311Zm16.439,5.4-.128.931a15.877,15.877,0,0,1-.427,2.14q-.3,1.115-.624,2.072t-.53,1.521h-1.811q.119-.53.312-1.431t.38-2.012q.188-1.111.282-2.264l.085-.957Zm27.7-6.356a10.5,10.5,0,0,1-1.025,4.81,7.494,7.494,0,0,1-2.807,3.1,7.643,7.643,0,0,1-4.045,1.081A7.66,7.66,0,0,1-387.5-8.361a7.494,7.494,0,0,1-2.807-3.1,10.5,10.5,0,0,1-1.025-4.81,10.49,10.49,0,0,1,1.025-4.814,7.5,7.5,0,0,1,2.807-3.093,7.66,7.66,0,0,1,4.054-1.081,7.643,7.643,0,0,1,4.045,1.081,7.5,7.5,0,0,1,2.807,3.093A10.491,10.491,0,0,1-375.572-16.268Zm-2.614,0a8.444,8.444,0,0,0-.688-3.6,5.122,5.122,0,0,0-1.88-2.221,4.925,4.925,0,0,0-2.7-.756,4.925,4.925,0,0,0-2.7.756,5.121,5.121,0,0,0-1.88,2.221,8.445,8.445,0,0,0-.688,3.6,8.451,8.451,0,0,0,.688,3.6,5.118,5.118,0,0,0,1.88,2.226,4.925,4.925,0,0,0,2.7.756,4.925,4.925,0,0,0,2.7-.756,5.118,5.118,0,0,0,1.88-2.226A8.45,8.45,0,0,0-378.186-16.268Zm15.3,3.306v-7.681h2.563V-7.519h-2.512V-9.792h-.137a4.078,4.078,0,0,1-1.448,1.747,4.21,4.21,0,0,1-2.473.7,4.118,4.118,0,0,1-3.1-1.252,5.119,5.119,0,0,1-1.209-3.7v-8.347h2.555v8.04a3,3,0,0,0,.743,2.136,2.523,2.523,0,0,0,1.931.795,3.159,3.159,0,0,0,1.431-.359,3.034,3.034,0,0,0,1.188-1.089A3.27,3.27,0,0,0-362.884-12.962Zm7.288,5.442V-20.642h2.469v2.085h.137a3.193,3.193,0,0,1,1.264-1.67,3.611,3.611,0,0,1,2.068-.611,3.358,3.358,0,0,1,.965.128,2.692,2.692,0,0,1,.752.35l-.82,2.136a2.246,2.246,0,0,0-.521-.188,2.924,2.924,0,0,0-.666-.068,3.1,3.1,0,0,0-2.209.833,2.779,2.779,0,0,0-.884,2.115v8.014Zm18.763,0v-17.5h6.237a7.246,7.246,0,0,1,3.375.7,4.689,4.689,0,0,1,2.012,1.935,5.874,5.874,0,0,1,.671,2.849,5.655,5.655,0,0,1-.8,3.046,4.614,4.614,0,0,1-2.414,1.884l3.879,7.083h-3.007l-3.554-6.621h-3.759v6.621Zm2.64-8.894h3.349a3.949,3.949,0,0,0,2.79-.82,3.027,3.027,0,0,0,.859-2.3,3.19,3.19,0,0,0-.863-2.354,3.863,3.863,0,0,0-2.819-.867h-3.315Zm19.463,9.159a6.376,6.376,0,0,1-3.332-.837,5.57,5.57,0,0,1-2.157-2.354,7.863,7.863,0,0,1-.756-3.55,7.958,7.958,0,0,1,.756-3.554,5.8,5.8,0,0,1,2.119-2.4,5.837,5.837,0,0,1,3.191-.863,6.228,6.228,0,0,1,2.815.662,5.131,5.131,0,0,1,2.162,2.11,7.634,7.634,0,0,1,.833,3.823v.906h-9.33a4.141,4.141,0,0,0,1.068,2.922A3.577,3.577,0,0,0-314.7-9.365a3.643,3.643,0,0,0,1.888-.47,2.613,2.613,0,0,0,1.136-1.4l2.418.436a4.439,4.439,0,0,1-1.88,2.572A6.275,6.275,0,0,1-314.73-7.255Zm-3.691-7.971h6.818a3.594,3.594,0,0,0-.906-2.49,3.066,3.066,0,0,0-2.384-.987,3.341,3.341,0,0,0-1.807.483,3.536,3.536,0,0,0-1.222,1.273A3.872,3.872,0,0,0-318.421-15.226Zm23.3-2.213-2.315.41a2.9,2.9,0,0,0-.824-1.209,2.584,2.584,0,0,0-1.8-.551,3.224,3.224,0,0,0-1.816.483,1.422,1.422,0,0,0-.722,1.243A1.275,1.275,0,0,0-302.115-16a4.032,4.032,0,0,0,1.576.654l2.085.478q3.588.829,3.588,3.554a3.431,3.431,0,0,1-.679,2.1,4.512,4.512,0,0,1-1.888,1.435,7.016,7.016,0,0,1-2.8.521,6.261,6.261,0,0,1-3.6-.944,4,4,0,0,1-1.709-2.687l2.469-.376q.461,1.948,2.82,1.948a3.442,3.442,0,0,0,2.008-.525,1.537,1.537,0,0,0,.752-1.286q0-1.256-1.854-1.666l-2.221-.487a5.2,5.2,0,0,1-2.717-1.333,3.24,3.24,0,0,1-.871-2.315,3.328,3.328,0,0,1,.649-2.038,4.236,4.236,0,0,1,1.794-1.363,6.649,6.649,0,0,1,2.623-.487,5.439,5.439,0,0,1,3.349.923A4.33,4.33,0,0,1-295.121-17.439Zm4.358,14.84V-20.642h2.495v2.127h.214a8.181,8.181,0,0,1,.645-.948,3.609,3.609,0,0,1,1.162-.944,4.1,4.1,0,0,1,1.961-.406,5.1,5.1,0,0,1,2.832.8,5.458,5.458,0,0,1,1.961,2.315,8.429,8.429,0,0,1,.718,3.64,8.583,8.583,0,0,1-.709,3.644,5.46,5.46,0,0,1-1.948,2.337,5.044,5.044,0,0,1-2.828.812,4.124,4.124,0,0,1-1.948-.4,3.755,3.755,0,0,1-1.183-.94,6.933,6.933,0,0,1-.662-.957h-.154V-2.6Zm2.5-11.483a5.783,5.783,0,0,0,.888,3.353,2.9,2.9,0,0,0,2.538,1.286,3,3,0,0,0,1.918-.611,3.719,3.719,0,0,0,1.166-1.662,6.718,6.718,0,0,0,.393-2.367,6.582,6.582,0,0,0-.389-2.337,3.629,3.629,0,0,0-1.158-1.628,3.05,3.05,0,0,0-1.931-.6,2.917,2.917,0,0,0-2.55,1.252A5.664,5.664,0,0,0-288.26-14.081Zm19.173,6.826a6.025,6.025,0,0,1-3.221-.846,5.7,5.7,0,0,1-2.136-2.371,7.86,7.86,0,0,1-.76-3.55,7.927,7.927,0,0,1,.76-3.571,5.691,5.691,0,0,1,2.136-2.375,6.025,6.025,0,0,1,3.221-.846,6.019,6.019,0,0,1,3.225.846,5.7,5.7,0,0,1,2.132,2.375,7.928,7.928,0,0,1,.76,3.571,7.86,7.86,0,0,1-.76,3.55A5.708,5.708,0,0,1-265.862-8.1,6.019,6.019,0,0,1-269.088-7.255Zm.009-2.144a3.058,3.058,0,0,0,1.986-.632,3.746,3.746,0,0,0,1.162-1.687,6.771,6.771,0,0,0,.38-2.311,6.808,6.808,0,0,0-.38-2.315,3.773,3.773,0,0,0-1.162-1.7,3.044,3.044,0,0,0-1.986-.636,3.061,3.061,0,0,0-1.991.636,3.789,3.789,0,0,0-1.171,1.7,6.741,6.741,0,0,0-.384,2.315,6.7,6.7,0,0,0,.384,2.311,3.762,3.762,0,0,0,1.171,1.687A3.075,3.075,0,0,0-269.079-9.4Zm12.807-5.912v7.792h-2.555V-20.642h2.452v2.136h.162a3.743,3.743,0,0,1,1.423-1.675,4.4,4.4,0,0,1,2.448-.632,4.326,4.326,0,0,1,3.242,1.256,5.078,5.078,0,0,1,1.226,3.691v8.347h-2.555v-8.04a3.174,3.174,0,0,0-.743-2.234,2.638,2.638,0,0,0-2.042-.807,2.982,2.982,0,0,0-2.2.859A3.278,3.278,0,0,0-256.272-15.311Zm22.949-2.127-2.315.41a2.9,2.9,0,0,0-.824-1.209,2.584,2.584,0,0,0-1.8-.551,3.224,3.224,0,0,0-1.816.483,1.422,1.422,0,0,0-.722,1.243A1.275,1.275,0,0,0-240.316-16a4.032,4.032,0,0,0,1.576.654l2.085.478q3.588.829,3.588,3.554a3.431,3.431,0,0,1-.679,2.1,4.513,4.513,0,0,1-1.888,1.435,7.016,7.016,0,0,1-2.8.521,6.261,6.261,0,0,1-3.6-.944,4,4,0,0,1-1.709-2.687l2.469-.376q.461,1.948,2.819,1.948a3.443,3.443,0,0,0,2.008-.525,1.537,1.537,0,0,0,.752-1.286q0-1.256-1.854-1.666l-2.221-.487a5.2,5.2,0,0,1-2.717-1.333,3.24,3.24,0,0,1-.871-2.315,3.328,3.328,0,0,1,.649-2.038,4.237,4.237,0,0,1,1.794-1.363,6.649,6.649,0,0,1,2.623-.487,5.439,5.439,0,0,1,3.349.923A4.329,4.329,0,0,1-233.323-17.439Zm4.358,9.919V-20.642h2.555V-7.519Zm1.29-15.148a1.6,1.6,0,0,1-1.141-.449,1.425,1.425,0,0,1-.474-1.072,1.434,1.434,0,0,1,.474-1.081,1.6,1.6,0,0,1,1.141-.449,1.6,1.6,0,0,1,1.136.449,1.429,1.429,0,0,1,.478,1.081,1.42,1.42,0,0,1-.478,1.072A1.6,1.6,0,0,1-227.675-22.667Zm6.2,15.148v-17.5h2.555v6.5h.154a8.181,8.181,0,0,1,.645-.948,3.608,3.608,0,0,1,1.162-.944A4.1,4.1,0,0,1-215-20.813a5.1,5.1,0,0,1,2.832.8,5.459,5.459,0,0,1,1.961,2.315,8.43,8.43,0,0,1,.718,3.64,8.584,8.584,0,0,1-.709,3.644,5.46,5.46,0,0,1-1.948,2.337,5.044,5.044,0,0,1-2.828.812,4.124,4.124,0,0,1-1.948-.4A3.755,3.755,0,0,1-218.1-8.6a6.932,6.932,0,0,1-.662-.957h-.214v2.042Zm2.5-6.562a5.782,5.782,0,0,0,.889,3.353,2.9,2.9,0,0,0,2.537,1.286,3,3,0,0,0,1.918-.611,3.72,3.72,0,0,0,1.166-1.662,6.718,6.718,0,0,0,.393-2.367,6.58,6.58,0,0,0-.389-2.337,3.628,3.628,0,0,0-1.158-1.628,3.051,3.051,0,0,0-1.931-.6,2.917,2.917,0,0,0-2.55,1.252A5.665,5.665,0,0,0-218.968-14.081Zm13.645,6.562V-20.642h2.555V-7.519Zm1.29-15.148a1.6,1.6,0,0,1-1.141-.449,1.425,1.425,0,0,1-.474-1.072,1.434,1.434,0,0,1,.474-1.081,1.6,1.6,0,0,1,1.141-.449,1.6,1.6,0,0,1,1.136.449,1.428,1.428,0,0,1,.478,1.081,1.419,1.419,0,0,1-.478,1.072A1.6,1.6,0,0,1-204.034-22.667Zm8.553-2.35v17.5h-2.555v-17.5Zm4.734,17.5V-20.642h2.555V-7.519Zm1.29-15.148a1.6,1.6,0,0,1-1.141-.449,1.425,1.425,0,0,1-.474-1.072,1.434,1.434,0,0,1,.474-1.081,1.6,1.6,0,0,1,1.141-.449,1.6,1.6,0,0,1,1.136.449,1.429,1.429,0,0,1,.478,1.081,1.419,1.419,0,0,1-.478,1.072A1.6,1.6,0,0,1-189.457-22.667Zm12.124,2.025v2.05h-2.691v7.219q0,1.111.474,1.431a1.914,1.914,0,0,0,1.1.32,2.988,2.988,0,0,0,.538-.043l.359-.068.461,2.11a4.561,4.561,0,0,1-.637.175,5.272,5.272,0,0,1-1.021.1,4.526,4.526,0,0,1-1.884-.359,3.193,3.193,0,0,1-1.41-1.162,3.436,3.436,0,0,1-.534-1.974v-7.749H-184.5v-2.05h1.922v-3.144h2.555v3.144Zm5.639,18.224a4.8,4.8,0,0,1-1.051-.1,3.649,3.649,0,0,1-.658-.2l.615-2.119a3.1,3.1,0,0,0,1.773.043q.713-.239,1.192-1.521l.376-1.034-4.8-13.294h2.734l3.323,10.184h.137l3.324-10.184h2.743l-5.468,15.037a5.165,5.165,0,0,1-1.6,2.358A4.114,4.114,0,0,1-171.693-2.419Z" transform="translate(551.69 69.508)" fill="#fd813a" stroke="#fd813a" stroke-width="0.2"/></g><g transform="translate(121.13 121)"><path d="M58.93,11.076c0,3.086-.071,5.834.035,8.576.042,1.083-.314,1.312-1.268,1.257a37.289,37.289,0,0,0-13.379,1.567,30.141,30.141,0,0,0-10.784,6.07,24.036,24.036,0,0,0-6.457,8.522,23.251,23.251,0,0,0-1.558,14.048c1.294,6.81,4.9,12.25,9.894,16.843A45.6,45.6,0,0,0,57.136,78.765c1.823.4,1.8.4,1.784,2.345-.025,2.359-.036,4.719,0,7.077.012.8-.192,1.215-1.074,1.12a2.771,2.771,0,0,0-2.577,1.232c-1.26,1.6-2.573,3.16-3.8,4.784-2.107,2.78-3.72,3.293-6.917,2.032-3.381-1.334-6.774-2.643-10.112-4.081-3.375-1.454-3.749-3.01-3.047-5.819.5-2.015.992-4.034,1.515-6.043a2.5,2.5,0,0,0-1.049-2.9c-2.48-1.947-4.878-4-7.254-6.072a3.72,3.72,0,0,0-2.959-.967c-3.255.295-6.516.536-9.769.854a5.419,5.419,0,0,1-5.65-3.007q-2.331-4.19-4.5-8.467C.662,58.79,1.393,57.178,3.709,56.18c2.568-1.107,5.125-2.242,7.706-3.317a2.087,2.087,0,0,0,1.417-2.34c-.176-2.5-.375-5.008-.415-7.514a3.326,3.326,0,0,0-1.9-3.272c-2.438-1.286-4.8-2.711-7.191-4.088a10.759,10.759,0,0,1-1.4-.92C-.286,32.943-.494,31.765.8,29.245q1.5-2.932,2.889-5.926c1.255-2.7,2.862-3.635,5.735-2.983,3.309.749,6.584,1.647,9.867,2.508a3.366,3.366,0,0,0,3.05-.588c2.084-1.551,4.2-3.059,6.276-4.619,1.755-1.318,1.764-1.489,1.065-3.634-.767-2.354-1.525-4.711-2.224-7.086-.564-1.92,0-3.231,1.886-3.765C33.374,2.01,37.423.88,41.528.075c2.038-.4,3.74.87,5.007,2.509,1.368,1.77,2.848,3.472,4.037,5.358,1.4,2.219,3.41,2.795,5.8,2.825a21.867,21.867,0,0,1,2.553.31" transform="translate(0 -0.001)" fill="#006599"/><path d="M-597.311-4191.464c-.462,0-.875-.008-1.262-.025a1.245,1.245,0,0,1-.823-.873c-.049-1.718-.043-3.417-.037-5.215,0-.527,0-1.183,0-1.815.135.008.273.014.419.021h.046c.266.011.567.025.869.052.8.072,1.624.152,2.35.223l.09.01c.732.071,1.49.145,2.236.211.273.024.54.037.794.037a5.18,5.18,0,0,0,4.4-2.087c.179-.232.377-.458.568-.678l.005-.006a3.745,3.745,0,0,0,1.319-2.814,17.747,17.747,0,0,0-.559-2.894c-.047-.188-.094-.377-.141-.565-.029-.117-.06-.234-.091-.351l0-.01c-.278-1.051-.54-2.043.234-3.037a1.889,1.889,0,0,0,.241-.5c.032-.088.066-.179.1-.264a2.877,2.877,0,0,0,.316-2.426c-.282-.565-.948-.942-2.16-1.22a1.4,1.4,0,0,1-.366-.18l-.128-.077c.343-.217.676-.432,1.044-.67.636-.41,1.237-.8,1.862-1.174.385-.226.574-.42.631-.648a1.172,1.172,0,0,0-.244-.866,7.4,7.4,0,0,1-.749-5.228,2.426,2.426,0,0,1,2.148-2.1,3.263,3.263,0,0,0,2.544-1.818,3.147,3.147,0,0,0-.617-2.956,18.3,18.3,0,0,0-1.642-1.9c-.348-.367-.708-.747-1.041-1.137a10.3,10.3,0,0,1-.729-1.01,5.44,5.44,0,0,0-2.053-2.077,2.251,2.251,0,0,1-1.189-1.6,4.418,4.418,0,0,1,1.115-3.5c1.169-1.409,1.29-2.713,1.1-4.627a10.217,10.217,0,0,0-1.671-4.224,16.3,16.3,0,0,1-1.2-2.329c-.386-1.009-.873-2-1.345-2.959-.445-.906-.906-1.843-1.282-2.795a7.337,7.337,0,0,0-.955-1.7,9.95,9.95,0,0,0-1.036-1.168.031.031,0,0,1-.009-.018c-.413-.413-.857-.8-1.276-1.152-1.356-1.155-2.777-2.188-4.282-3.283l-.016-.012c-.6-.437-1.281-.931-1.949-1.431a32.164,32.164,0,0,1,9.6-1.617c.4,0,.814.01,1.216.029.153.015.3.022.458.031l.027,0a7.675,7.675,0,0,1,.766-.059.872.872,0,0,1,.1-.006.871.871,0,0,1,.1.006c.123,0,.232,0,.334,0a23.734,23.734,0,0,1,9.322,2.235,22.477,22.477,0,0,1,8.595,6.281c.01.013.021.028.03.041l.012.015a1.3,1.3,0,0,0,.131.158c.062.1.137.209.214.313.163.259.284.459.394.65v.008l.07.117c.124.208.241.4.367.6a11.913,11.913,0,0,1,1.043,2.311c.193.526.393,1.066.636,1.577.421.867.884,1.734,1.332,2.571l0,.005c.419.783.852,1.593,1.25,2.4a25.294,25.294,0,0,1,1.308,3.209,3.829,3.829,0,0,1-.527,3.508,9.92,9.92,0,0,0-1.547,3.82,4.046,4.046,0,0,0,1.078,2.65c1.133,1.4,2.353,2.763,3.532,4.085.674.755,1.37,1.534,2.042,2.311a1.884,1.884,0,0,1,.6,1.652,1.993,1.993,0,0,1-1.361,1.221,5.5,5.5,0,0,0-2.765,1.747,5.073,5.073,0,0,0-.586,3.161,9.528,9.528,0,0,0,.25,1.626,8.331,8.331,0,0,1,.252,1.831c-.008.529-.62,1.127-1.152,1.589a3.441,3.441,0,0,1-.864.486l-.005,0a3.959,3.959,0,0,0-.794.425,1.387,1.387,0,0,0-.412,1.186l.23.684c-.017.047-.036.095-.055.14s-.036.088-.052.13c.148.063.3.129.451.2a7.892,7.892,0,0,0,1.047.411c.722.2,1.113.444,1.232.764a1.1,1.1,0,0,1-.251.974,5.559,5.559,0,0,0-.19,5.828,4.193,4.193,0,0,1-.5,4.044,6.379,6.379,0,0,1-1.907,1.941,4.532,4.532,0,0,1-2.44.789,3.389,3.389,0,0,1-.706-.074,41.358,41.358,0,0,0-8.656-.777c-.677,0-1.381.009-2.153.027a1.591,1.591,0,0,0-1.7,1.162c-.7,2.114-1.4,4.257-2.074,6.371a2.864,2.864,0,0,1-2.747,1.973c-.056,0-.112,0-.167,0-.609-.033-1.258-.05-1.984-.05-.921,0-1.859.026-2.766.052h-.034c-.592.017-1.263.036-1.916.046-.442,0-.893.014-1.329.024l-.086,0C-596.047-4191.48-596.681-4191.464-597.311-4191.464Zm10.817-67.054a1.508,1.508,0,0,0-.439.066,1.512,1.512,0,0,0-1,1.883,1.517,1.517,0,0,0,1.441,1.065,1.513,1.513,0,0,0,.441-.065,1.5,1.5,0,0,0,.89-.734,1.494,1.494,0,0,0,.111-1.146A1.519,1.519,0,0,0-586.494-4258.519Zm0-1.583a3.121,3.121,0,0,1,1.822.6,3.06,3.06,0,0,1,1.135,1.592.744.744,0,0,0,.708.523.779.779,0,0,0,.217-.032.743.743,0,0,0,.492-.925,4.606,4.606,0,0,0-4.375-3.235,4.6,4.6,0,0,0-1.334.2.743.743,0,0,0-.492.926.737.737,0,0,0,.709.524.739.739,0,0,0,.217-.033A3.079,3.079,0,0,1-586.494-4260.1Zm0-2.776a5.92,5.92,0,0,1,3.459,1.129,5.818,5.818,0,0,1,2.154,3.022.746.746,0,0,0,.709.525.741.741,0,0,0,.216-.033.738.738,0,0,0,.437-.36.737.737,0,0,0,.054-.566,7.407,7.407,0,0,0-7.031-5.2,7.359,7.359,0,0,0-2.144.322.738.738,0,0,0-.437.361.734.734,0,0,0-.054.564.736.736,0,0,0,.709.525.755.755,0,0,0,.217-.033A5.835,5.835,0,0,1-586.5-4262.878Zm0-2.937a8.889,8.889,0,0,1,5.19,1.7,8.718,8.718,0,0,1,3.232,4.535.737.737,0,0,0,.708.525.725.725,0,0,0,.216-.034.743.743,0,0,0,.492-.925,10.221,10.221,0,0,0-5.007-6.074,10.3,10.3,0,0,0-4.815-1.208,10.3,10.3,0,0,0-3.02.455.742.742,0,0,0-.491.925.738.738,0,0,0,.709.525.727.727,0,0,0,.216-.033A8.788,8.788,0,0,1-586.5-4265.814Z" transform="translate(662.644 4279.584)" fill="#fd813a" stroke="rgba(0,0,0,0)" stroke-width="1"/><path d="M29.534-4415.223a1.651,1.651,0,0,1,1.094-2.057,1.628,1.628,0,0,1,.48-.072,1.658,1.658,0,0,1,1.575,1.167,1.624,1.624,0,0,1-.121,1.251,1.64,1.64,0,0,1-.972.8,1.644,1.644,0,0,1-.482.07A1.658,1.658,0,0,1,29.534-4415.223Zm4.4-1.345a2.923,2.923,0,0,0-1.083-1.52,2.972,2.972,0,0,0-1.74-.568,2.949,2.949,0,0,0-.861.128.881.881,0,0,1-.258.039.877.877,0,0,1-.842-.624.883.883,0,0,1,.585-1.1,4.735,4.735,0,0,1,1.374-.207,4.748,4.748,0,0,1,4.508,3.333.883.883,0,0,1-.585,1.1.928.928,0,0,1-.258.039A.885.885,0,0,1,33.93-4416.567Zm2.655-.811a5.68,5.68,0,0,0-2.1-2.953,5.791,5.791,0,0,0-3.377-1.1,5.7,5.7,0,0,0-1.671.251.879.879,0,0,1-.257.038.875.875,0,0,1-.843-.623.872.872,0,0,1,.065-.67.862.862,0,0,1,.519-.428,7.419,7.419,0,0,1,2.186-.329,7.547,7.547,0,0,1,7.164,5.3.879.879,0,0,1-.064.672.874.874,0,0,1-.52.428.885.885,0,0,1-.257.039A.887.887,0,0,1,36.585-4417.378Zm2.808-.861a8.577,8.577,0,0,0-3.181-4.461,8.747,8.747,0,0,0-5.108-1.669,8.6,8.6,0,0,0-2.528.381.911.911,0,0,1-.257.037.876.876,0,0,1-.843-.623.883.883,0,0,1,.584-1.1,10.476,10.476,0,0,1,3.061-.46,10.441,10.441,0,0,1,4.88,1.226,10.354,10.354,0,0,1,5.075,6.156.883.883,0,0,1-.585,1.1.9.9,0,0,1-.257.038A.873.873,0,0,1,39.393-4418.239Z" transform="translate(45.043 4438.279)" fill="#006599"/><path d="M14.432-3.686A14.425,14.425,0,0,1,6.376-5.847a11.358,11.358,0,0,1-4.627-5.919L6.4-14.49q1.973,5.543,8.173,5.543a7.355,7.355,0,0,0,4.58-1.195,3.771,3.771,0,0,0,1.527-3.115,3.422,3.422,0,0,0-1.646-3.069A25.612,25.612,0,0,0,13.2-18.645l-3.773-1.4a14.613,14.613,0,0,1-3.1-1.653A7,7,0,0,1,3.91-24.449a8.723,8.723,0,0,1-.8-3.852,8.514,8.514,0,0,1,3.1-6.929,11.351,11.351,0,0,1,7.469-2.56,12.374,12.374,0,0,1,6.905,1.926,12.589,12.589,0,0,1,4.556,5.308l-4.556,2.631a7.085,7.085,0,0,0-6.905-4.6,5.928,5.928,0,0,0-3.758,1.1,3.59,3.59,0,0,0-1.409,2.983,3.3,3.3,0,0,0,1.441,2.829,19.435,19.435,0,0,0,5.221,2.185l2.7,1.017,2.459.926a8.367,8.367,0,0,1,2.394,1.27,18.02,18.02,0,0,1,1.7,1.665,5.729,5.729,0,0,1,1.281,2.284,10.41,10.41,0,0,1,.373,2.9,8.617,8.617,0,0,1-3.218,7.069A12.979,12.979,0,0,1,14.432-3.686Z" transform="translate(39.433 69.286)" fill="#006599"/></g></g></svg>