<?xml version="1.0" encoding="UTF-8"?>
<svg xmlns="http://www.w3.org/2000/svg" xmlns:xlink="http://www.w3.org/1999/xlink" width="213px" height="40px" viewBox="0 0 211 40" version="1.1">
<defs>
<filter id="alpha" filterUnits="objectBoundingBox" x="0%" y="0%" width="100%" height="100%">
  <feColorMatrix type="matrix" in="SourceGraphic" values="0 0 0 0 1 0 0 0 0 1 0 0 0 0 1 0 0 0 1 0"/>
</filter>
<mask id="mask0">
  <g filter="url(#alpha)">
<rect x="0" y="0" width="211" height="40" style="fill:rgb(0%,0%,0%);fill-opacity:0.909804;stroke:none;"/>
  </g>
</mask>
<clipPath id="clip1">
  <rect x="0" y="0" width="211" height="40"/>
</clipPath>
<g id="surface5" clip-path="url(#clip1)">
<path style=" stroke:none;fill-rule:nonzero;fill:rgb(16.862745%,21.568627%,33.333333%);fill-opacity:1;" d="M 52.332031 18.265625 C 52.238281 18.195312 52.152344 18.113281 52.078125 18.019531 C 52.003906 17.929688 51.953125 17.824219 51.921875 17.710938 C 51.890625 17.589844 51.890625 17.460938 51.921875 17.339844 C 51.96875 17.175781 52.046875 17.019531 52.148438 16.886719 L 52.714844 16.070312 C 52.839844 15.839844 53.058594 15.679688 53.3125 15.625 C 53.589844 15.609375 53.863281 15.679688 54.09375 15.832031 L 54.484375 16.050781 C 54.636719 16.136719 54.8125 16.222656 55.011719 16.3125 C 55.226562 16.410156 55.449219 16.484375 55.675781 16.542969 C 55.933594 16.605469 56.195312 16.632812 56.457031 16.632812 C 56.828125 16.660156 57.195312 16.570312 57.503906 16.367188 C 57.714844 16.222656 57.839844 15.980469 57.839844 15.722656 C 57.835938 15.410156 57.675781 15.121094 57.414062 14.949219 C 57.082031 14.710938 56.726562 14.511719 56.347656 14.351562 C 55.925781 14.164062 55.464844 13.960938 54.96875 13.75 C 54.476562 13.542969 54.015625 13.277344 53.589844 12.957031 C 53.164062 12.644531 52.804688 12.25 52.523438 11.804688 C 52.222656 11.289062 52.074219 10.699219 52.097656 10.105469 C 52.089844 9.542969 52.210938 8.984375 52.453125 8.476562 C 52.683594 7.992188 53.015625 7.558594 53.425781 7.210938 C 53.855469 6.847656 54.355469 6.574219 54.894531 6.402344 C 55.488281 6.210938 56.109375 6.117188 56.730469 6.121094 C 57.441406 6.113281 58.144531 6.222656 58.820312 6.441406 C 59.320312 6.589844 59.796875 6.808594 60.242188 7.085938 C 60.46875 7.226562 60.632812 7.453125 60.695312 7.714844 C 60.726562 7.96875 60.675781 8.226562 60.550781 8.449219 L 60.113281 9.300781 C 59.929688 9.652344 59.722656 9.832031 59.484375 9.839844 C 59.230469 9.839844 58.976562 9.773438 58.75 9.648438 C 58.449219 9.503906 58.136719 9.367188 57.816406 9.238281 C 57.457031 9.105469 57.078125 9.042969 56.699219 9.046875 C 56.316406 9.015625 55.933594 9.105469 55.605469 9.3125 C 55.402344 9.464844 55.28125 9.703125 55.28125 9.957031 C 55.28125 10.273438 55.441406 10.566406 55.707031 10.738281 C 56.039062 10.972656 56.394531 11.167969 56.765625 11.320312 C 57.191406 11.503906 57.652344 11.695312 58.148438 11.894531 C 58.640625 12.089844 59.101562 12.347656 59.53125 12.65625 C 59.957031 12.964844 60.316406 13.355469 60.59375 13.800781 C 60.894531 14.316406 61.042969 14.90625 61.019531 15.5 C 61.023438 16.035156 60.921875 16.5625 60.722656 17.054688 C 60.523438 17.542969 60.222656 17.984375 59.839844 18.347656 C 59.425781 18.734375 58.9375 19.035156 58.402344 19.230469 C 57.78125 19.457031 57.121094 19.566406 56.460938 19.554688 C 56.015625 19.558594 55.574219 19.515625 55.140625 19.429688 C 54.746094 19.351562 54.355469 19.246094 53.976562 19.113281 C 53.644531 18.996094 53.324219 18.859375 53.011719 18.695312 C 52.773438 18.570312 52.546875 18.429688 52.332031 18.265625 Z M 62.367188 7.339844 C 62.328125 7.066406 62.417969 6.785156 62.617188 6.589844 C 62.8125 6.394531 63.089844 6.300781 63.367188 6.339844 L 64.511719 6.339844 C 64.785156 6.300781 65.066406 6.394531 65.261719 6.589844 C 65.457031 6.785156 65.550781 7.066406 65.511719 7.339844 L 65.511719 10.449219 C 65.511719 10.570312 65.507812 10.679688 65.503906 10.777344 C 65.496094 10.871094 65.492188 10.957031 65.492188 11.03125 C 65.480469 11.101562 65.476562 11.175781 65.476562 11.25 L 65.511719 11.25 C 65.785156 10.78125 66.191406 10.402344 66.675781 10.15625 C 67.195312 9.886719 67.777344 9.75 68.363281 9.757812 C 68.8125 9.753906 69.261719 9.816406 69.691406 9.9375 C 70.085938 10.050781 70.453125 10.253906 70.753906 10.53125 C 71.070312 10.832031 71.3125 11.203125 71.464844 11.613281 C 71.652344 12.144531 71.742188 12.703125 71.726562 13.265625 L 71.726562 18.339844 C 71.765625 18.613281 71.675781 18.890625 71.476562 19.089844 C 71.28125 19.285156 71.003906 19.378906 70.726562 19.339844 L 69.582031 19.339844 C 69.308594 19.378906 69.03125 19.285156 68.832031 19.089844 C 68.636719 18.890625 68.542969 18.613281 68.582031 18.339844 L 68.582031 13.847656 C 68.613281 13.511719 68.523438 13.179688 68.328125 12.902344 C 68.125 12.695312 67.835938 12.589844 67.546875 12.613281 C 66.949219 12.574219 66.371094 12.84375 66.019531 13.328125 C 65.664062 13.859375 65.488281 14.484375 65.511719 15.121094 L 65.511719 18.339844 C 65.550781 18.613281 65.457031 18.890625 65.261719 19.089844 C 65.0625 19.285156 64.785156 19.378906 64.511719 19.339844 L 63.367188 19.339844 C 63.089844 19.378906 62.8125 19.285156 62.617188 19.089844 C 62.417969 18.890625 62.328125 18.613281 62.367188 18.339844 Z M 74.492188 8.792969 C 74.214844 8.835938 73.9375 8.742188 73.742188 8.542969 C 73.542969 8.347656 73.453125 8.070312 73.492188 7.792969 L 73.492188 7.339844 C 73.453125 7.066406 73.542969 6.785156 73.742188 6.589844 C 73.9375 6.394531 74.214844 6.300781 74.492188 6.339844 L 75.5625 6.339844 C 75.839844 6.300781 76.117188 6.394531 76.3125 6.589844 C 76.511719 6.785156 76.601562 7.066406 76.5625 7.339844 L 76.5625 7.792969 C 76.601562 8.070312 76.511719 8.347656 76.3125 8.542969 C 76.117188 8.742188 75.839844 8.835938 75.5625 8.792969 Z M 73.453125 10.976562 C 73.414062 10.699219 73.507812 10.421875 73.703125 10.226562 C 73.902344 10.03125 74.179688 9.9375 74.453125 9.976562 L 75.601562 9.976562 C 75.875 9.9375 76.152344 10.03125 76.351562 10.226562 C 76.546875 10.421875 76.640625 10.699219 76.597656 10.976562 L 76.597656 18.339844 C 76.640625 18.613281 76.546875 18.890625 76.351562 19.089844 C 76.152344 19.285156 75.875 19.378906 75.601562 19.339844 L 74.453125 19.339844 C 74.179688 19.378906 73.902344 19.285156 73.703125 19.089844 C 73.507812 18.890625 73.414062 18.613281 73.453125 18.339844 Z M 78.472656 7.339844 C 78.433594 7.066406 78.523438 6.785156 78.722656 6.589844 C 78.917969 6.394531 79.195312 6.300781 79.472656 6.339844 L 80.617188 6.339844 C 80.890625 6.300781 81.171875 6.394531 81.367188 6.589844 C 81.5625 6.785156 81.65625 7.066406 81.617188 7.339844 L 81.617188 13.066406 L 82.507812 13.066406 L 83.960938 10.648438 C 84.191406 10.214844 84.652344 9.949219 85.144531 9.976562 L 86.34375 9.976562 C 86.757812 9.976562 87.023438 10.089844 87.144531 10.320312 C 87.257812 10.609375 87.203125 10.941406 87 11.175781 L 85.035156 14.230469 L 85.035156 14.265625 L 87.417969 18.140625 C 87.609375 18.382812 87.660156 18.710938 87.546875 19.003906 C 87.425781 19.226562 87.15625 19.339844 86.746094 19.339844 L 85.382812 19.339844 C 84.882812 19.351562 84.421875 19.078125 84.199219 18.628906 L 82.597656 15.703125 L 81.617188 15.703125 L 81.617188 18.339844 C 81.65625 18.613281 81.5625 18.890625 81.367188 19.089844 C 81.167969 19.285156 80.890625 19.378906 80.617188 19.339844 L 79.472656 19.339844 C 79.195312 19.378906 78.917969 19.285156 78.722656 19.089844 C 78.523438 18.890625 78.433594 18.613281 78.472656 18.339844 Z M 88.816406 18.703125 C 88.570312 18.589844 88.398438 18.367188 88.351562 18.101562 C 88.328125 17.824219 88.402344 17.550781 88.558594 17.320312 L 88.832031 16.902344 C 88.960938 16.675781 89.171875 16.511719 89.421875 16.449219 C 89.699219 16.421875 89.972656 16.480469 90.214844 16.613281 C 90.445312 16.707031 90.703125 16.816406 90.996094 16.929688 C 91.316406 17.050781 91.65625 17.109375 91.996094 17.101562 C 92.226562 17.125 92.460938 17.070312 92.660156 16.949219 C 92.777344 16.863281 92.847656 16.726562 92.851562 16.578125 C 92.839844 16.378906 92.710938 16.207031 92.523438 16.140625 C 92.261719 16.015625 91.992188 15.910156 91.714844 15.824219 C 91.394531 15.71875 91.042969 15.605469 90.660156 15.476562 C 90.285156 15.355469 89.929688 15.175781 89.605469 14.949219 C 89.277344 14.71875 89.003906 14.421875 88.796875 14.078125 C 88.566406 13.664062 88.453125 13.195312 88.46875 12.722656 C 88.460938 12.277344 88.5625 11.835938 88.769531 11.441406 C 88.96875 11.070312 89.25 10.753906 89.597656 10.511719 C 89.972656 10.253906 90.390625 10.0625 90.832031 9.949219 C 91.332031 9.820312 91.84375 9.753906 92.359375 9.757812 C 92.882812 9.75 93.40625 9.816406 93.914062 9.957031 C 94.289062 10.066406 94.65625 10.199219 95.011719 10.359375 C 95.257812 10.453125 95.441406 10.664062 95.503906 10.921875 C 95.546875 11.1875 95.503906 11.464844 95.375 11.703125 L 95.15625 12.140625 C 95.070312 12.386719 94.875 12.578125 94.628906 12.667969 C 94.359375 12.722656 94.082031 12.691406 93.832031 12.574219 C 93.613281 12.492188 93.371094 12.410156 93.101562 12.332031 C 92.820312 12.25 92.523438 12.210938 92.230469 12.210938 C 91.996094 12.1875 91.761719 12.238281 91.558594 12.359375 C 91.453125 12.441406 91.394531 12.570312 91.394531 12.703125 C 91.402344 12.898438 91.535156 13.070312 91.722656 13.128906 C 91.984375 13.25 92.253906 13.355469 92.53125 13.441406 C 92.851562 13.542969 93.203125 13.65625 93.585938 13.777344 C 93.960938 13.894531 94.316406 14.070312 94.636719 14.292969 C 94.960938 14.519531 95.238281 14.8125 95.445312 15.148438 C 95.679688 15.554688 95.792969 16.015625 95.773438 16.484375 C 95.777344 16.90625 95.6875 17.320312 95.511719 17.703125 C 95.332031 18.082031 95.070312 18.414062 94.746094 18.675781 C 94.382812 18.964844 93.972656 19.183594 93.527344 19.320312 C 93.007812 19.484375 92.464844 19.5625 91.917969 19.558594 C 91.296875 19.570312 90.675781 19.472656 90.082031 19.273438 C 89.644531 19.125 89.21875 18.933594 88.816406 18.703125 Z M 97.195312 7.339844 C 97.15625 7.066406 97.246094 6.785156 97.445312 6.589844 C 97.640625 6.394531 97.917969 6.300781 98.195312 6.339844 L 99.339844 6.339844 C 99.613281 6.300781 99.890625 6.394531 100.089844 6.589844 C 100.285156 6.785156 100.378906 7.066406 100.339844 7.339844 L 100.339844 10.449219 C 100.339844 10.570312 100.335938 10.679688 100.328125 10.777344 C 100.324219 10.871094 100.320312 10.957031 100.320312 11.03125 C 100.308594 11.101562 100.304688 11.175781 100.300781 11.25 L 100.339844 11.25 C 100.613281 10.78125 101.015625 10.402344 101.503906 10.160156 C 102.023438 9.886719 102.605469 9.75 103.191406 9.757812 C 103.640625 9.753906 104.089844 9.816406 104.519531 9.941406 C 104.914062 10.050781 105.277344 10.253906 105.582031 10.53125 C 105.898438 10.832031 106.140625 11.203125 106.292969 11.613281 C 106.480469 12.144531 106.570312 12.703125 106.554688 13.265625 L 106.554688 18.339844 C 106.59375 18.613281 106.503906 18.890625 106.304688 19.089844 C 106.109375 19.285156 105.832031 19.378906 105.554688 19.339844 L 104.410156 19.339844 C 104.136719 19.378906 103.855469 19.285156 103.660156 19.089844 C 103.464844 18.890625 103.371094 18.613281 103.410156 18.339844 L 103.410156 13.847656 C 103.441406 13.511719 103.351562 13.179688 103.15625 12.902344 C 102.953125 12.695312 102.664062 12.589844 102.375 12.613281 C 101.777344 12.574219 101.199219 12.84375 100.847656 13.332031 C 100.496094 13.859375 100.316406 14.484375 100.339844 15.121094 L 100.339844 18.339844 C 100.378906 18.613281 100.285156 18.890625 100.089844 19.089844 C 99.894531 19.285156 99.617188 19.378906 99.339844 19.339844 L 98.195312 19.339844 C 97.921875 19.378906 97.644531 19.285156 97.445312 19.089844 C 97.25 18.890625 97.15625 18.613281 97.195312 18.339844 Z M 107.648438 16.703125 C 107.625 16.140625 107.800781 15.585938 108.148438 15.140625 C 108.492188 14.71875 108.929688 14.382812 109.429688 14.15625 C 109.972656 13.910156 110.546875 13.738281 111.136719 13.648438 C 111.730469 13.554688 112.332031 13.503906 112.9375 13.503906 L 113.210938 13.503906 L 113.210938 13.339844 C 113.242188 13.015625 113.085938 12.703125 112.808594 12.53125 C 112.523438 12.375 112.207031 12.296875 111.882812 12.304688 C 111.582031 12.304688 111.28125 12.347656 110.992188 12.429688 C 110.71875 12.511719 110.449219 12.605469 110.191406 12.722656 C 109.574219 12.988281 109.125 12.84375 108.84375 12.285156 L 108.625 11.832031 C 108.5 11.59375 108.460938 11.320312 108.519531 11.058594 C 108.59375 10.804688 108.78125 10.59375 109.027344 10.488281 C 109.457031 10.289062 109.898438 10.125 110.351562 9.996094 C 110.945312 9.832031 111.558594 9.753906 112.171875 9.761719 C 113.28125 9.699219 114.375 10.058594 115.230469 10.769531 C 116 11.496094 116.410156 12.523438 116.351562 13.578125 L 116.351562 18.339844 C 116.390625 18.613281 116.296875 18.890625 116.101562 19.089844 C 115.902344 19.285156 115.625 19.378906 115.351562 19.339844 L 114.480469 19.339844 C 114.203125 19.375 113.921875 19.277344 113.726562 19.078125 C 113.527344 18.878906 113.4375 18.597656 113.480469 18.320312 L 113.480469 18.121094 C 113.480469 18.101562 113.484375 18.082031 113.5 18.066406 L 113.460938 18.066406 C 113.277344 18.347656 113.050781 18.597656 112.789062 18.8125 C 112.527344 19.023438 112.230469 19.199219 111.917969 19.328125 C 111.53125 19.488281 111.117188 19.5625 110.699219 19.554688 C 110.277344 19.5625 109.859375 19.488281 109.464844 19.339844 C 109.105469 19.203125 108.777344 19 108.5 18.738281 C 108.230469 18.480469 108.019531 18.171875 107.871094 17.828125 C 107.71875 17.472656 107.644531 17.089844 107.648438 16.703125 Z M 110.753906 16.410156 C 110.753906 16.621094 110.832031 16.824219 110.980469 16.976562 C 111.160156 17.144531 111.402344 17.230469 111.644531 17.210938 C 111.867188 17.214844 112.085938 17.160156 112.28125 17.058594 C 112.472656 16.957031 112.644531 16.824219 112.792969 16.667969 C 112.933594 16.511719 113.046875 16.332031 113.128906 16.140625 C 113.203125 15.953125 113.246094 15.757812 113.246094 15.558594 L 113.246094 15.300781 L 112.953125 15.300781 C 112.703125 15.304688 112.449219 15.320312 112.199219 15.355469 C 111.957031 15.390625 111.71875 15.449219 111.492188 15.539062 C 111.292969 15.613281 111.117188 15.726562 110.964844 15.875 C 110.824219 16.015625 110.75 16.210938 110.753906 16.410156 Z M 118.082031 7.339844 C 118.042969 7.066406 118.132812 6.785156 118.332031 6.589844 C 118.527344 6.394531 118.804688 6.300781 119.082031 6.339844 L 120.226562 6.339844 C 120.5 6.300781 120.777344 6.394531 120.976562 6.589844 C 121.171875 6.785156 121.265625 7.066406 121.226562 7.339844 L 121.226562 13.066406 L 122.117188 13.066406 L 123.570312 10.648438 C 123.800781 10.214844 124.261719 9.949219 124.753906 9.976562 L 125.953125 9.976562 C 126.367188 9.976562 126.632812 10.089844 126.753906 10.320312 C 126.867188 10.609375 126.8125 10.941406 126.609375 11.175781 L 124.644531 14.230469 L 124.644531 14.265625 L 127.027344 18.140625 C 127.21875 18.382812 127.269531 18.710938 127.152344 19.003906 C 127.03125 19.226562 126.765625 19.339844 126.355469 19.339844 L 124.992188 19.339844 C 124.492188 19.351562 124.03125 19.078125 123.808594 18.628906 L 122.207031 15.703125 L 121.226562 15.703125 L 121.226562 18.339844 C 121.265625 18.613281 121.171875 18.890625 120.976562 19.089844 C 120.78125 19.285156 120.503906 19.378906 120.226562 19.339844 L 119.082031 19.339844 C 118.804688 19.378906 118.527344 19.285156 118.332031 19.089844 C 118.136719 18.890625 118.042969 18.613281 118.082031 18.339844 Z M 131.058594 18.265625 C 130.964844 18.195312 130.878906 18.113281 130.804688 18.019531 C 130.730469 17.929688 130.679688 17.824219 130.648438 17.710938 C 130.621094 17.589844 130.621094 17.460938 130.648438 17.339844 C 130.695312 17.175781 130.773438 17.019531 130.878906 16.886719 L 131.441406 16.070312 C 131.566406 15.839844 131.785156 15.679688 132.039062 15.625 C 132.316406 15.609375 132.589844 15.679688 132.820312 15.832031 L 133.214844 16.050781 C 133.363281 16.136719 133.539062 16.222656 133.742188 16.3125 C 133.953125 16.410156 134.175781 16.484375 134.402344 16.542969 C 134.660156 16.605469 134.921875 16.632812 135.1875 16.632812 C 135.554688 16.660156 135.921875 16.570312 136.230469 16.367188 C 136.441406 16.222656 136.566406 15.980469 136.566406 15.722656 C 136.5625 15.410156 136.402344 15.121094 136.140625 14.949219 C 135.808594 14.710938 135.453125 14.511719 135.078125 14.351562 C 134.652344 14.164062 134.191406 13.964844 133.695312 13.75 C 133.203125 13.542969 132.742188 13.277344 132.3125 12.960938 C 131.890625 12.644531 131.527344 12.253906 131.25 11.804688 C 130.949219 11.292969 130.800781 10.703125 130.824219 10.105469 C 130.816406 9.542969 130.9375 8.988281 131.175781 8.480469 C 131.410156 7.992188 131.738281 7.5625 132.148438 7.214844 C 132.582031 6.851562 133.082031 6.578125 133.621094 6.40625 C 134.214844 6.214844 134.835938 6.117188 135.457031 6.125 C 136.167969 6.117188 136.875 6.222656 137.550781 6.441406 C 138.046875 6.59375 138.523438 6.808594 138.96875 7.085938 C 139.195312 7.226562 139.359375 7.453125 139.421875 7.714844 C 139.453125 7.96875 139.402344 8.226562 139.277344 8.449219 L 138.839844 9.304688 C 138.65625 9.65625 138.449219 9.832031 138.210938 9.839844 C 137.957031 9.839844 137.703125 9.773438 137.476562 9.648438 C 137.175781 9.503906 136.863281 9.367188 136.542969 9.242188 C 136.183594 9.105469 135.804688 9.042969 135.421875 9.050781 C 135.042969 9.015625 134.65625 9.109375 134.332031 9.3125 C 134.128906 9.464844 134.007812 9.703125 134.007812 9.957031 C 134.007812 10.273438 134.167969 10.570312 134.433594 10.738281 C 134.765625 10.972656 135.121094 11.167969 135.496094 11.320312 C 135.921875 11.503906 136.382812 11.695312 136.878906 11.894531 C 137.371094 12.089844 137.832031 12.347656 138.261719 12.65625 C 138.683594 12.964844 139.046875 13.355469 139.324219 13.800781 C 139.625 14.316406 139.773438 14.90625 139.75 15.5 C 139.753906 16.035156 139.652344 16.5625 139.453125 17.054688 C 139.253906 17.542969 138.953125 17.984375 138.570312 18.347656 C 138.15625 18.734375 137.667969 19.03125 137.132812 19.226562 C 136.511719 19.457031 135.851562 19.566406 135.1875 19.554688 C 134.746094 19.554688 134.304688 19.515625 133.871094 19.425781 C 133.476562 19.347656 133.085938 19.242188 132.707031 19.109375 C 132.375 18.992188 132.054688 18.855469 131.742188 18.691406 C 131.503906 18.570312 131.273438 18.425781 131.058594 18.265625 Z M 140.566406 14.683594 C 140.558594 13.988281 140.699219 13.300781 140.984375 12.667969 C 141.25 12.074219 141.636719 11.546875 142.121094 11.113281 C 142.613281 10.675781 143.183594 10.335938 143.800781 10.113281 C 144.460938 9.875 145.15625 9.753906 145.855469 9.757812 C 146.566406 9.753906 147.269531 9.871094 147.9375 10.113281 C 148.558594 10.332031 149.132812 10.671875 149.628906 11.113281 C 150.109375 11.546875 150.496094 12.074219 150.765625 12.667969 C 151.046875 13.300781 151.191406 13.988281 151.183594 14.683594 C 151.191406 15.371094 151.046875 16.050781 150.765625 16.675781 C 150.496094 17.261719 150.109375 17.789062 149.628906 18.222656 C 149.136719 18.65625 148.566406 18.996094 147.945312 19.210938 C 147.28125 19.445312 146.578125 19.5625 145.875 19.558594 C 145.167969 19.5625 144.46875 19.445312 143.800781 19.210938 C 143.179688 18.996094 142.609375 18.65625 142.121094 18.222656 C 141.640625 17.789062 141.253906 17.261719 140.984375 16.675781 C 140.699219 16.050781 140.558594 15.371094 140.566406 14.683594 Z M 143.746094 14.683594 C 143.742188 15.007812 143.800781 15.324219 143.917969 15.625 C 144.027344 15.886719 144.183594 16.125 144.382812 16.328125 C 144.574219 16.519531 144.804688 16.667969 145.054688 16.769531 C 145.316406 16.871094 145.59375 16.925781 145.871094 16.921875 C 146.152344 16.925781 146.429688 16.871094 146.6875 16.769531 C 146.941406 16.667969 147.167969 16.519531 147.359375 16.328125 C 147.5625 16.125 147.71875 15.886719 147.824219 15.625 C 147.945312 15.324219 148.003906 15.007812 147.996094 14.683594 C 148 14.359375 147.941406 14.039062 147.824219 13.738281 C 147.71875 13.46875 147.5625 13.222656 147.359375 13.015625 C 147.167969 12.820312 146.941406 12.664062 146.6875 12.558594 C 146.429688 12.449219 146.152344 12.390625 145.871094 12.394531 C 145.589844 12.390625 145.3125 12.449219 145.054688 12.558594 C 144.804688 12.664062 144.574219 12.820312 144.382812 13.015625 C 144.183594 13.222656 144.027344 13.46875 143.917969 13.738281 C 143.800781 14.039062 143.742188 14.359375 143.746094 14.683594 Z M 152.472656 7.339844 C 152.433594 7.066406 152.523438 6.789062 152.722656 6.589844 C 152.917969 6.394531 153.195312 6.300781 153.472656 6.339844 L 154.617188 6.339844 C 154.894531 6.300781 155.171875 6.394531 155.367188 6.589844 C 155.5625 6.789062 155.65625 7.066406 155.617188 7.339844 L 155.617188 15.738281 C 155.589844 15.988281 155.644531 16.234375 155.773438 16.449219 C 155.867188 16.5625 155.996094 16.640625 156.144531 16.667969 C 156.34375 16.679688 156.527344 16.765625 156.671875 16.902344 C 156.816406 17.074219 156.890625 17.296875 156.871094 17.519531 L 156.871094 18.410156 C 156.886719 18.679688 156.800781 18.945312 156.636719 19.15625 C 156.425781 19.359375 156.140625 19.457031 155.855469 19.429688 C 155.449219 19.429688 155.042969 19.390625 154.644531 19.320312 C 154.246094 19.25 153.875 19.085938 153.554688 18.839844 C 153.207031 18.554688 152.9375 18.183594 152.773438 17.765625 C 152.550781 17.164062 152.449219 16.527344 152.472656 15.886719 Z M 157.980469 10.976562 C 157.941406 10.703125 158.035156 10.421875 158.230469 10.226562 C 158.429688 10.03125 158.707031 9.9375 158.980469 9.976562 L 160.128906 9.976562 C 160.402344 9.9375 160.679688 10.03125 160.878906 10.226562 C 161.074219 10.421875 161.167969 10.703125 161.125 10.976562 L 161.125 15.464844 C 161.097656 15.800781 161.1875 16.136719 161.382812 16.410156 C 161.574219 16.613281 161.847656 16.722656 162.125 16.703125 C 162.433594 16.710938 162.738281 16.640625 163.007812 16.492188 C 163.253906 16.355469 163.464844 16.164062 163.625 15.929688 C 163.796875 15.683594 163.917969 15.40625 163.988281 15.113281 C 164.070312 14.789062 164.109375 14.457031 164.109375 14.121094 L 164.109375 10.976562 C 164.070312 10.699219 164.160156 10.421875 164.359375 10.226562 C 164.554688 10.03125 164.832031 9.9375 165.109375 9.976562 L 166.253906 9.976562 C 166.527344 9.9375 166.804688 10.03125 167.003906 10.226562 C 167.199219 10.421875 167.292969 10.699219 167.253906 10.976562 L 167.253906 18.339844 C 167.292969 18.613281 167.199219 18.890625 167.003906 19.089844 C 166.804688 19.285156 166.527344 19.378906 166.253906 19.339844 L 165.234375 19.339844 C 164.960938 19.375 164.6875 19.28125 164.496094 19.082031 C 164.300781 18.886719 164.210938 18.609375 164.253906 18.339844 L 164.253906 18.027344 C 164.253906 17.996094 164.257812 17.964844 164.273438 17.9375 L 164.234375 17.9375 C 163.976562 18.449219 163.5625 18.867188 163.050781 19.128906 C 162.515625 19.414062 161.914062 19.5625 161.308594 19.554688 C 160.867188 19.558594 160.429688 19.496094 160.007812 19.375 C 159.613281 19.257812 159.25 19.058594 158.945312 18.785156 C 158.625 18.484375 158.378906 18.113281 158.234375 17.703125 C 158.050781 17.167969 157.964844 16.609375 157.980469 16.046875 Z M 169.742188 12.59375 L 169.46875 12.59375 C 169.195312 12.628906 168.921875 12.535156 168.726562 12.339844 C 168.535156 12.144531 168.445312 11.867188 168.484375 11.59375 L 168.484375 11.140625 C 168.445312 10.863281 168.539062 10.585938 168.734375 10.390625 C 168.933594 10.191406 169.210938 10.101562 169.484375 10.140625 L 169.832031 10.140625 L 169.832031 8.449219 C 169.792969 8.175781 169.882812 7.894531 170.082031 7.699219 C 170.277344 7.503906 170.554688 7.410156 170.832031 7.449219 L 171.886719 7.449219 C 172.160156 7.410156 172.4375 7.503906 172.636719 7.699219 C 172.832031 7.894531 172.925781 8.175781 172.886719 8.449219 L 172.886719 10.140625 L 173.847656 10.140625 C 174.125 10.101562 174.402344 10.191406 174.597656 10.390625 C 174.796875 10.585938 174.886719 10.863281 174.847656 11.140625 L 174.847656 11.59375 C 174.890625 11.867188 174.800781 12.144531 174.609375 12.339844 C 174.414062 12.535156 174.140625 12.628906 173.867188 12.59375 L 172.886719 12.59375 L 172.886719 15.429688 C 172.855469 15.753906 172.980469 16.074219 173.222656 16.292969 C 173.441406 16.464844 173.703125 16.578125 173.976562 16.613281 C 174.253906 16.628906 174.523438 16.722656 174.75 16.882812 C 174.925781 17.082031 175.007812 17.347656 174.976562 17.613281 L 174.976562 18.429688 C 175.011719 18.726562 174.886719 19.023438 174.652344 19.210938 C 174.355469 19.375 174.023438 19.449219 173.6875 19.429688 C 173.285156 19.421875 172.882812 19.371094 172.488281 19.28125 C 172.03125 19.183594 171.59375 19.003906 171.195312 18.753906 C 170.777344 18.492188 170.421875 18.132812 170.160156 17.710938 C 169.863281 17.195312 169.714844 16.605469 169.742188 16.011719 Z M 177.394531 8.792969 C 177.117188 8.835938 176.839844 8.742188 176.644531 8.542969 C 176.445312 8.347656 176.355469 8.070312 176.394531 7.792969 L 176.394531 7.339844 C 176.355469 7.066406 176.445312 6.785156 176.644531 6.589844 C 176.839844 6.394531 177.117188 6.300781 177.394531 6.339844 L 178.464844 6.339844 C 178.742188 6.300781 179.019531 6.394531 179.214844 6.589844 C 179.414062 6.785156 179.503906 7.066406 179.464844 7.339844 L 179.464844 7.792969 C 179.503906 8.070312 179.414062 8.347656 179.214844 8.542969 C 179.019531 8.742188 178.742188 8.835938 178.464844 8.792969 Z M 176.355469 10.976562 C 176.316406 10.699219 176.410156 10.421875 176.605469 10.226562 C 176.804688 10.03125 177.082031 9.9375 177.355469 9.976562 L 178.5 9.976562 C 178.777344 9.9375 179.054688 10.03125 179.25 10.226562 C 179.449219 10.421875 179.542969 10.699219 179.5 10.976562 L 179.5 18.339844 C 179.542969 18.613281 179.449219 18.890625 179.25 19.089844 C 179.054688 19.285156 178.777344 19.378906 178.5 19.339844 L 177.355469 19.339844 C 177.082031 19.378906 176.804688 19.285156 176.605469 19.089844 C 176.410156 18.890625 176.316406 18.613281 176.355469 18.339844 Z M 180.828125 14.683594 C 180.820312 13.988281 180.964844 13.300781 181.25 12.667969 C 181.515625 12.074219 181.902344 11.546875 182.386719 11.113281 C 182.878906 10.675781 183.449219 10.335938 184.066406 10.113281 C 184.726562 9.875 185.421875 9.753906 186.121094 9.757812 C 186.832031 9.753906 187.535156 9.871094 188.203125 10.113281 C 188.824219 10.332031 189.398438 10.671875 189.894531 11.113281 C 190.375 11.546875 190.761719 12.074219 191.027344 12.667969 C 191.3125 13.300781 191.457031 13.988281 191.445312 14.683594 C 191.457031 15.371094 191.3125 16.050781 191.027344 16.675781 C 190.761719 17.261719 190.375 17.789062 189.894531 18.222656 C 189.402344 18.65625 188.832031 18.996094 188.210938 19.210938 C 187.546875 19.445312 186.84375 19.5625 186.140625 19.558594 C 185.433594 19.5625 184.734375 19.445312 184.066406 19.210938 C 183.445312 18.996094 182.875 18.65625 182.386719 18.222656 C 181.90625 17.789062 181.519531 17.261719 181.25 16.675781 C 180.964844 16.050781 180.820312 15.371094 180.832031 14.683594 Z M 184.007812 14.683594 C 184.003906 15.007812 184.0625 15.324219 184.183594 15.625 C 184.289062 15.886719 184.445312 16.125 184.644531 16.328125 C 184.835938 16.519531 185.066406 16.667969 185.320312 16.769531 C 185.578125 16.871094 185.855469 16.925781 186.132812 16.921875 C 186.414062 16.925781 186.691406 16.871094 186.949219 16.769531 C 187.203125 16.667969 187.429688 16.519531 187.625 16.328125 C 187.824219 16.125 187.980469 15.886719 188.085938 15.625 C 188.207031 15.324219 188.265625 15.007812 188.257812 14.683594 C 188.265625 14.359375 188.207031 14.039062 188.085938 13.738281 C 187.980469 13.46875 187.824219 13.222656 187.625 13.015625 C 187.433594 12.820312 187.203125 12.664062 186.949219 12.558594 C 186.691406 12.449219 186.414062 12.390625 186.132812 12.394531 C 185.855469 12.390625 185.578125 12.449219 185.320312 12.558594 C 185.066406 12.664062 184.835938 12.820312 184.644531 13.015625 C 184.445312 13.222656 184.289062 13.46875 184.183594 13.738281 C 184.0625 14.039062 184.007812 14.359375 184.011719 14.683594 Z M 192.769531 10.976562 C 192.730469 10.703125 192.824219 10.421875 193.019531 10.226562 C 193.21875 10.03125 193.496094 9.9375 193.769531 9.976562 L 194.789062 9.976562 C 195.0625 9.941406 195.335938 10.035156 195.53125 10.230469 C 195.722656 10.429688 195.8125 10.703125 195.769531 10.976562 L 195.769531 11.140625 C 195.769531 11.164062 195.765625 11.1875 195.761719 11.210938 C 195.753906 11.238281 195.753906 11.261719 195.753906 11.285156 L 195.753906 11.375 L 195.789062 11.375 C 195.910156 11.175781 196.050781 10.988281 196.207031 10.8125 C 196.386719 10.609375 196.59375 10.4375 196.824219 10.292969 C 197.089844 10.132812 197.375 10.003906 197.667969 9.914062 C 198.027344 9.804688 198.398438 9.753906 198.769531 9.757812 C 199.21875 9.753906 199.664062 9.816406 200.097656 9.941406 C 200.492188 10.050781 200.855469 10.253906 201.160156 10.53125 C 201.476562 10.832031 201.71875 11.203125 201.867188 11.613281 C 202.058594 12.144531 202.148438 12.703125 202.132812 13.265625 L 202.132812 18.339844 C 202.171875 18.613281 202.078125 18.890625 201.882812 19.089844 C 201.6875 19.285156 201.40625 19.378906 201.132812 19.339844 L 199.988281 19.339844 C 199.710938 19.378906 199.433594 19.285156 199.238281 19.089844 C 199.039062 18.890625 198.949219 18.613281 198.988281 18.339844 L 198.988281 13.847656 C 199.015625 13.511719 198.925781 13.179688 198.734375 12.902344 C 198.527344 12.695312 198.242188 12.589844 197.953125 12.613281 C 197.636719 12.605469 197.324219 12.671875 197.042969 12.8125 C 196.792969 12.941406 196.574219 13.128906 196.40625 13.355469 C 196.230469 13.597656 196.105469 13.867188 196.035156 14.15625 C 195.953125 14.464844 195.914062 14.785156 195.914062 15.101562 L 195.914062 18.339844 C 195.953125 18.613281 195.863281 18.890625 195.664062 19.089844 C 195.46875 19.285156 195.191406 19.378906 194.914062 19.339844 L 193.769531 19.339844 C 193.496094 19.378906 193.21875 19.285156 193.019531 19.089844 C 192.824219 18.890625 192.730469 18.613281 192.769531 18.339844 Z M 203.859375 18.703125 C 203.617188 18.589844 203.441406 18.367188 203.394531 18.101562 C 203.375 17.824219 203.449219 17.550781 203.605469 17.320312 L 203.878906 16.902344 C 204.003906 16.675781 204.21875 16.511719 204.472656 16.449219 C 204.746094 16.421875 205.019531 16.480469 205.261719 16.613281 C 205.492188 16.707031 205.753906 16.8125 206.042969 16.929688 C 206.363281 17.050781 206.703125 17.109375 207.042969 17.101562 C 207.277344 17.125 207.507812 17.070312 207.707031 16.949219 C 207.824219 16.863281 207.894531 16.726562 207.898438 16.578125 C 207.886719 16.378906 207.757812 16.207031 207.570312 16.140625 C 207.308594 16.015625 207.039062 15.910156 206.761719 15.824219 C 206.441406 15.71875 206.089844 15.605469 205.707031 15.476562 C 205.332031 15.355469 204.976562 15.175781 204.652344 14.949219 C 204.324219 14.71875 204.050781 14.421875 203.84375 14.078125 C 203.613281 13.664062 203.5 13.195312 203.519531 12.722656 C 203.507812 12.277344 203.613281 11.835938 203.816406 11.441406 C 204.019531 11.074219 204.300781 10.753906 204.644531 10.515625 C 205.019531 10.253906 205.441406 10.0625 205.882812 9.949219 C 206.378906 9.820312 206.894531 9.757812 207.410156 9.761719 C 207.933594 9.75 208.457031 9.816406 208.960938 9.960938 C 209.335938 10.070312 209.707031 10.203125 210.0625 10.359375 C 210.308594 10.457031 210.492188 10.667969 210.550781 10.921875 C 210.597656 11.191406 210.550781 11.464844 210.425781 11.707031 L 210.207031 12.140625 C 210.121094 12.386719 209.925781 12.582031 209.679688 12.667969 C 209.410156 12.726562 209.128906 12.691406 208.878906 12.578125 C 208.664062 12.492188 208.417969 12.410156 208.152344 12.332031 C 207.867188 12.25 207.574219 12.210938 207.28125 12.214844 C 207.046875 12.1875 206.808594 12.238281 206.605469 12.359375 C 206.503906 12.445312 206.445312 12.570312 206.445312 12.707031 C 206.453125 12.902344 206.582031 13.070312 206.769531 13.132812 C 207.035156 13.253906 207.304688 13.355469 207.578125 13.441406 C 207.902344 13.542969 208.253906 13.65625 208.632812 13.777344 C 209.007812 13.894531 209.363281 14.070312 209.6875 14.296875 C 210.011719 14.523438 210.289062 14.8125 210.496094 15.148438 C 210.730469 15.554688 210.84375 16.019531 210.824219 16.488281 C 210.828125 16.90625 210.738281 17.324219 210.558594 17.703125 C 210.382812 18.082031 210.121094 18.414062 209.796875 18.675781 C 209.433594 18.964844 209.019531 19.183594 208.578125 19.324219 C 208.058594 19.484375 207.515625 19.566406 206.96875 19.558594 C 206.34375 19.570312 205.722656 19.476562 205.132812 19.277344 C 204.691406 19.125 204.265625 18.933594 203.863281 18.703125 Z M 203.859375 18.703125 "/>
</g>
</defs>
<g id="surface1">
<use xlink:href="#surface5" mask="url(#mask0)"/>
<path style="fill-rule:nonzero;fill:rgb(99.215686%,50.588235%,22.745098%);fill-opacity:1;stroke-width:0.2;stroke-linecap:butt;stroke-linejoin:miter;stroke:rgb(99.215686%,50.588235%,22.745098%);stroke-opacity:1;stroke-miterlimit:4;" d="M -551.69453 -25.018937 L -548.689161 -25.018937 L -544.123681 -17.066008 L -543.932256 -17.066008 L -539.357204 -25.018937 L -536.361406 -25.018937 L -542.707137 -14.38632 L -542.707137 -7.524406 L -545.339228 -7.524406 L -545.339228 -14.38632 Z M -529.383974 -7.256437 C -530.51338 -7.227727 -531.623644 -7.524406 -532.59991 -8.098625 C -533.518749 -8.672844 -534.265305 -9.495891 -534.734296 -10.472062 C -535.260714 -11.582219 -535.519137 -12.797648 -535.499995 -14.022648 C -535.528709 -15.257219 -535.260714 -16.472648 -534.734296 -17.592375 C -534.265305 -18.568547 -533.52832 -19.391594 -532.59991 -19.965812 C -531.623644 -20.549602 -530.51338 -20.836711 -529.374403 -20.81757 C -528.244996 -20.836711 -527.125162 -20.549602 -526.158467 -19.965812 C -525.230056 -19.391594 -524.493071 -18.568547 -524.02408 -17.592375 C -523.497662 -16.472648 -523.229668 -15.257219 -523.258381 -14.022648 C -523.239239 -12.797648 -523.497662 -11.582219 -524.02408 -10.472062 C -524.493071 -9.495891 -525.230056 -8.672844 -526.158467 -8.098625 C -527.134733 -7.524406 -528.244996 -7.227727 -529.383974 -7.256437 Z M -529.374403 -9.400187 C -528.65656 -9.371477 -527.957859 -9.591594 -527.383585 -10.031828 C -526.847596 -10.472062 -526.445604 -11.055852 -526.225465 -11.716203 C -525.967042 -12.462687 -525.833044 -13.237883 -525.842616 -14.032219 C -525.833044 -14.816984 -525.967042 -15.60175 -526.225465 -16.348234 C -526.445604 -17.008586 -526.847596 -17.592375 -527.383585 -18.04218 C -527.957859 -18.482414 -528.65656 -18.712102 -529.374403 -18.683391 C -530.092245 -18.712102 -530.790946 -18.482414 -531.36522 -18.04218 C -531.901209 -17.592375 -532.312773 -17.008586 -532.532911 -16.348234 C -532.800906 -15.60175 -532.925332 -14.816984 -532.915761 -14.032219 C -532.925332 -13.237883 -532.800906 -12.462687 -532.532911 -11.716203 C -532.312773 -11.055852 -531.901209 -10.472062 -531.36522 -10.031828 C -530.790946 -9.591594 -530.092245 -9.371477 -529.374403 -9.400187 Z M -510.806201 -12.960344 L -510.806201 -20.645305 L -508.241109 -20.645305 L -508.241109 -7.514836 L -510.758344 -7.514836 L -510.758344 -9.79257 L -510.892342 -9.79257 C -511.198621 -9.084367 -511.705897 -8.481437 -512.337599 -8.041203 C -513.074584 -7.562687 -513.935995 -7.313859 -514.816549 -7.34257 C -515.974669 -7.304289 -517.104075 -7.763664 -517.91763 -8.596281 C -518.788613 -9.620305 -519.219319 -10.950578 -519.123606 -12.299992 L -519.123606 -20.645305 L -516.568086 -20.645305 L -516.568086 -12.606242 C -516.606371 -11.821477 -516.338376 -11.055852 -515.821529 -10.472062 C -515.323825 -9.936125 -514.625125 -9.649016 -513.89771 -9.677727 C -513.400006 -9.677727 -512.902302 -9.802141 -512.462025 -10.031828 C -511.973892 -10.280656 -511.562328 -10.653898 -511.275191 -11.122844 C -510.940198 -11.677922 -510.777487 -12.319133 -510.806201 -12.960344 Z M -503.522488 -7.524406 L -503.522488 -20.645305 L -501.053109 -20.645305 L -501.053109 -18.558977 L -500.90954 -18.558977 C -500.689402 -19.238469 -500.249125 -19.831828 -499.646137 -20.224211 C -499.033578 -20.635734 -498.315735 -20.846281 -497.578749 -20.836711 C -497.253327 -20.846281 -496.927905 -20.79843 -496.612054 -20.712297 C -496.34406 -20.635734 -496.095207 -20.51132 -495.865498 -20.358195 L -496.688624 -18.224016 C -496.851335 -18.310148 -497.023618 -18.36757 -497.205471 -18.415422 C -497.42561 -18.463273 -497.645748 -18.482414 -497.875458 -18.482414 C -498.689013 -18.501555 -499.483426 -18.204875 -500.076843 -17.649797 C -500.660688 -17.104289 -500.98611 -16.329094 -500.966968 -15.534758 L -500.966968 -7.514836 Z M -483.231463 -25.018937 L -478.359703 -10.768742 L -478.158707 -10.768742 L -473.286947 -25.018937 L -470.434718 -25.018937 L -476.732593 -7.524406 L -479.785818 -7.524406 L -486.083692 -25.018937 Z M -466.826361 -7.524406 L -466.826361 -20.645305 L -464.270841 -20.645305 L -464.270841 -7.514836 Z M -465.534244 -22.664641 C -465.96495 -22.664641 -466.376513 -22.817766 -466.673221 -23.114445 C -466.979501 -23.391984 -467.151783 -23.784367 -467.151783 -24.18632 C -467.151783 -24.597844 -466.979501 -24.990227 -466.673221 -25.267766 C -466.376513 -25.564445 -465.96495 -25.727141 -465.534244 -25.71757 C -465.11311 -25.727141 -464.701546 -25.564445 -464.404838 -25.267766 C -464.088987 -24.999797 -463.916705 -24.597844 -463.926276 -24.18632 C -463.916705 -23.774797 -464.098558 -23.391984 -464.404838 -23.114445 C -464.701546 -22.827336 -465.11311 -22.664641 -465.534244 -22.664641 Z M -449.703416 -17.43925 L -452.019656 -17.027727 C -452.182367 -17.496672 -452.469504 -17.908195 -452.842782 -18.233586 C -453.350058 -18.645109 -454.000902 -18.836516 -454.642175 -18.788664 C -455.283448 -18.807805 -455.91515 -18.645109 -456.46071 -18.310148 C -456.910559 -18.05175 -457.188124 -17.573234 -457.178553 -17.066008 C -457.197696 -16.654484 -457.015842 -16.252531 -456.69042 -16.003703 C -456.221429 -15.668742 -455.68544 -15.448625 -455.120737 -15.343352 L -453.034207 -14.864836 C -450.641398 -14.319328 -449.444993 -13.132609 -449.444993 -11.31425 C -449.435422 -10.558195 -449.674702 -9.821281 -450.124551 -9.218352 C -450.612684 -8.577141 -451.263528 -8.079484 -452.010085 -7.782805 C -452.90021 -7.419133 -453.847762 -7.237297 -454.814457 -7.256437 C -456.077861 -7.199016 -457.331693 -7.533977 -458.413243 -8.203898 C -459.332082 -8.825969 -459.944641 -9.79257 -460.116923 -10.893156 L -457.647544 -11.266398 C -457.341264 -9.964836 -456.403283 -9.314055 -454.8336 -9.314055 C -454.125328 -9.285344 -453.426628 -9.46718 -452.82364 -9.840422 C -452.36422 -10.108391 -452.086654 -10.596477 -452.067512 -11.132414 C -452.067512 -11.965031 -452.689642 -12.520109 -453.924332 -12.797648 L -456.144859 -13.285734 C -457.168982 -13.44843 -458.106963 -13.907805 -458.863091 -14.616008 C -459.446937 -15.238078 -459.762787 -16.070695 -459.734074 -16.932023 C -459.753216 -17.659367 -459.523507 -18.377141 -459.08323 -18.9705 C -458.62381 -19.57343 -458.00168 -20.042375 -457.293408 -20.329484 C -456.46071 -20.664445 -455.570585 -20.836711 -454.670889 -20.81757 C -453.484055 -20.884562 -452.306793 -20.559172 -451.320955 -19.88925 C -450.5074 -19.28632 -449.933126 -18.424992 -449.703416 -17.43925 Z M -445.348503 -7.524406 L -445.348503 -20.645305 L -442.792982 -20.645305 L -442.792982 -7.514836 Z M -444.056386 -22.664641 C -444.47752 -22.664641 -444.889083 -22.817766 -445.195363 -23.114445 C -445.501643 -23.391984 -445.673925 -23.784367 -445.673925 -24.18632 C -445.673925 -24.597844 -445.501643 -24.990227 -445.195363 -25.267766 C -444.889083 -25.564445 -444.47752 -25.727141 -444.056386 -25.71757 C -443.635251 -25.727141 -443.223688 -25.564445 -442.917408 -25.267766 C -442.611129 -24.999797 -442.438846 -24.597844 -442.438846 -24.18632 C -442.438846 -23.774797 -442.611129 -23.391984 -442.917408 -23.114445 C -443.223688 -22.827336 -443.635251 -22.664641 -444.056386 -22.664641 Z M -432.532615 -7.256437 C -433.662021 -7.227727 -434.781856 -7.524406 -435.748551 -8.098625 C -436.676961 -8.672844 -437.413946 -9.495891 -437.892508 -10.472062 C -438.418926 -11.582219 -438.67735 -12.797648 -438.648636 -14.022648 C -438.67735 -15.257219 -438.418926 -16.482219 -437.892508 -17.592375 C -437.413946 -18.568547 -436.676961 -19.401164 -435.748551 -19.965812 C -434.781856 -20.549602 -433.662021 -20.836711 -432.532615 -20.81757 C -431.393638 -20.836711 -430.283374 -20.549602 -429.307108 -19.965812 C -428.388269 -19.391594 -427.641712 -18.568547 -427.172722 -17.592375 C -426.646303 -16.482219 -426.38788 -15.257219 -426.416594 -14.022648 C -426.38788 -12.797648 -426.646303 -11.582219 -427.172722 -10.472062 C -427.641712 -9.495891 -428.378698 -8.672844 -429.297536 -8.098625 C -430.273803 -7.524406 -431.393638 -7.227727 -432.523044 -7.256437 Z M -432.523044 -9.400187 C -431.805201 -9.371477 -431.1065 -9.591594 -430.532226 -10.031828 C -429.996237 -10.472062 -429.594245 -11.055852 -429.374106 -11.716203 C -429.115683 -12.462687 -428.981686 -13.237883 -428.991257 -14.032219 C -428.981686 -14.816984 -429.115683 -15.60175 -429.374106 -16.348234 C -429.594245 -17.008586 -429.996237 -17.592375 -430.532226 -18.04218 C -431.1065 -18.482414 -431.805201 -18.712102 -432.523044 -18.683391 C -433.240887 -18.712102 -433.949158 -18.482414 -434.513861 -18.04218 C -435.049851 -17.592375 -435.461414 -17.008586 -435.681552 -16.348234 C -435.949547 -15.60175 -436.073973 -14.816984 -436.064402 -14.032219 C -436.073973 -13.237883 -435.949547 -12.462687 -435.681552 -11.716203 C -435.461414 -11.055852 -435.049851 -10.472062 -434.513861 -10.031828 C -433.939587 -9.591594 -433.240887 -9.371477 -432.513472 -9.400187 Z M -419.716727 -15.314641 L -419.716727 -7.514836 L -422.272248 -7.514836 L -422.272248 -20.645305 L -419.822011 -20.645305 L -419.822011 -18.501555 L -419.6593 -18.501555 C -419.362591 -19.190617 -418.864887 -19.774406 -418.233185 -20.176359 C -417.4962 -20.626164 -416.64436 -20.846281 -415.782948 -20.81757 C -414.576972 -20.865422 -413.39971 -20.406047 -412.54787 -19.554289 C -411.657745 -18.539836 -411.217468 -17.209562 -411.322751 -15.869719 L -411.322751 -7.514836 L -413.868701 -7.514836 L -413.868701 -15.563469 C -413.820844 -16.367375 -414.088839 -17.171281 -414.615257 -17.793352 C -415.151246 -18.34843 -415.888232 -18.645109 -416.653931 -18.597258 C -417.477057 -18.625969 -418.27147 -18.319719 -418.855316 -17.7455 C -419.458304 -17.085148 -419.764583 -16.20468 -419.707156 -15.314641 Z M -403.27334 -9.907414 L -403.407337 -8.979094 C -403.493478 -8.26132 -403.637047 -7.543547 -403.828472 -6.835344 C -404.029468 -6.09843 -404.240035 -5.409367 -404.450602 -4.768156 C -404.670741 -4.126945 -404.843023 -3.619719 -404.986592 -3.246477 L -406.795556 -3.246477 C -406.718986 -3.600578 -406.613702 -4.079094 -406.479705 -4.682023 C -406.355279 -5.275383 -406.230852 -5.945305 -406.106426 -6.691789 C -405.982 -7.428703 -405.886288 -8.184758 -405.819289 -8.950383 L -405.733148 -9.907414 Z M -375.574177 -16.271672 C -375.535892 -14.606437 -375.880456 -12.960344 -376.598299 -11.457805 C -377.22043 -10.175383 -378.196696 -9.103508 -379.412243 -8.357023 C -380.62779 -7.62968 -382.034762 -7.256437 -383.451306 -7.275578 C -384.87742 -7.256437 -386.274821 -7.62968 -387.499939 -8.357023 C -388.715487 -9.103508 -389.682182 -10.184953 -390.304312 -11.457805 C -391.022155 -12.960344 -391.376291 -14.606437 -391.328435 -16.271672 C -391.376291 -17.936906 -391.022155 -19.583 -390.304312 -21.085539 C -389.682182 -22.358391 -388.705915 -23.430266 -387.499939 -24.17675 C -386.274821 -24.904094 -384.867849 -25.286906 -383.441734 -25.258195 C -382.025191 -25.286906 -380.618219 -24.904094 -379.402672 -24.17675 C -378.187125 -23.430266 -377.22043 -22.358391 -376.598299 -21.085539 C -375.880456 -19.583 -375.52632 -17.927336 -375.574177 -16.271672 Z M -378.187125 -16.271672 C -378.14884 -17.506242 -378.388121 -18.731242 -378.876254 -19.870109 C -379.278246 -20.769719 -379.92909 -21.544914 -380.761788 -22.090422 C -381.565772 -22.597648 -382.503753 -22.856047 -383.460877 -22.846477 C -384.40843 -22.856047 -385.346411 -22.597648 -386.159966 -22.090422 C -386.983093 -21.544914 -387.643508 -20.769719 -388.035929 -19.870109 C -388.524062 -18.731242 -388.763343 -17.506242 -388.725058 -16.271672 C -388.763343 -15.027531 -388.524062 -13.802531 -388.035929 -12.663664 C -387.643508 -11.754484 -386.983093 -10.988859 -386.159966 -10.443352 C -385.346411 -9.936125 -384.40843 -9.668156 -383.460877 -9.687297 C -382.503753 -9.668156 -381.565772 -9.936125 -380.761788 -10.443352 C -379.92909 -10.988859 -379.278246 -11.754484 -378.876254 -12.663664 C -378.388121 -13.802531 -378.14884 -15.027531 -378.187125 -16.271672 Z M -362.892286 -12.960344 L -362.892286 -20.645305 L -360.327194 -20.645305 L -360.327194 -7.514836 L -362.834859 -7.514836 L -362.834859 -9.79257 L -362.978427 -9.79257 C -363.284707 -9.084367 -363.782411 -8.481437 -364.423684 -8.041203 C -365.151098 -7.562687 -366.022081 -7.313859 -366.893064 -7.34257 C -368.060755 -7.304289 -369.190161 -7.763664 -369.994145 -8.596281 C -370.874699 -9.620305 -371.305404 -10.950578 -371.209692 -12.299992 L -371.209692 -20.645305 L -368.654172 -20.645305 L -368.654172 -12.606242 C -368.692456 -11.821477 -368.424462 -11.055852 -367.907615 -10.472062 C -367.409911 -9.936125 -366.701639 -9.649016 -365.974225 -9.677727 C -365.47652 -9.677727 -364.988387 -9.802141 -364.54811 -10.031828 C -364.059977 -10.280656 -363.648414 -10.653898 -363.361277 -11.122844 C -363.016712 -11.677922 -362.854001 -12.319133 -362.882715 -12.960344 Z M -355.599003 -7.514836 L -355.599003 -20.645305 L -353.129623 -20.645305 L -353.129623 -18.558977 L -352.995626 -18.558977 C -352.775487 -19.238469 -352.325639 -19.831828 -351.732222 -20.224211 C -351.119663 -20.635734 -350.40182 -20.846281 -349.664835 -20.836711 C -349.339413 -20.846281 -349.013991 -20.79843 -348.69814 -20.712297 C -348.430145 -20.635734 -348.181293 -20.51132 -347.951583 -20.358195 L -348.765139 -18.224016 C -348.92785 -18.310148 -349.109703 -18.36757 -349.291557 -18.415422 C -349.502124 -18.463273 -349.731834 -18.482414 -349.951972 -18.482414 C -350.775099 -18.501555 -351.569511 -18.204875 -352.162928 -17.649797 C -352.746774 -17.104289 -353.072196 -16.329094 -353.043482 -15.534758 L -353.043482 -7.514836 Z M -336.839376 -7.514836 L -336.839376 -25.018937 L -330.598929 -25.018937 C -329.440809 -25.057219 -328.282689 -24.817961 -327.229853 -24.320305 C -326.378013 -23.889641 -325.669741 -23.219719 -325.210322 -22.387102 C -324.750902 -21.506633 -324.521192 -20.530461 -324.540335 -19.535148 C -324.521192 -18.463273 -324.798758 -17.410539 -325.344319 -16.491789 C -325.909022 -15.60175 -326.760862 -14.941398 -327.756271 -14.606437 L -323.879919 -7.524406 L -326.885288 -7.524406 L -330.436218 -14.147062 L -334.197714 -14.147062 L -334.197714 -7.524406 Z M -334.197714 -16.415227 L -330.847781 -16.415227 C -329.852372 -16.319523 -328.847392 -16.616203 -328.062551 -17.228703 C -327.459563 -17.841203 -327.153283 -18.683391 -327.201139 -19.535148 C -327.153283 -20.406047 -327.469134 -21.248234 -328.062551 -21.889445 C -328.847392 -22.540227 -329.861943 -22.846477 -330.886066 -22.750773 L -334.197714 -22.750773 Z M -314.739387 -7.256437 C -315.907078 -7.218156 -317.055627 -7.514836 -318.070178 -8.089055 C -318.998588 -8.644133 -319.754716 -9.46718 -320.223706 -10.443352 C -320.750125 -11.553508 -321.008548 -12.768937 -320.979834 -13.993937 C -321.008548 -15.218937 -320.750125 -16.434367 -320.223706 -17.544523 C -319.754716 -18.530266 -319.027302 -19.362883 -318.108463 -19.946672 C -317.151339 -20.540031 -316.041075 -20.836711 -314.911669 -20.808 C -313.935403 -20.81757 -312.968708 -20.587883 -312.097725 -20.147648 C -311.188458 -19.678703 -310.43233 -18.941789 -309.934625 -18.04218 C -309.331637 -16.855461 -309.0445 -15.544328 -309.101928 -14.214055 L -309.101928 -13.314445 L -318.433885 -13.314445 C -318.47217 -12.233 -318.08932 -11.189836 -317.371477 -10.38593 C -316.663206 -9.687297 -315.696511 -9.323625 -314.701102 -9.361906 C -314.040687 -9.352336 -313.389842 -9.505461 -312.815568 -9.830852 C -312.279579 -10.156242 -311.877587 -10.644328 -311.676591 -11.237687 L -309.255068 -10.797453 C -309.542205 -9.735148 -310.212191 -8.825969 -311.140601 -8.223039 C -312.21258 -7.543547 -313.466412 -7.208586 -314.729816 -7.256437 Z M -318.424314 -15.228508 L -311.609592 -15.228508 C -311.580878 -16.137687 -311.906301 -17.027727 -312.51886 -17.716789 C -313.121848 -18.377141 -314.002402 -18.740812 -314.902098 -18.702531 C -315.5338 -18.712102 -316.165501 -18.549406 -316.701491 -18.214445 C -317.218338 -17.908195 -317.639472 -17.467961 -317.926609 -16.941594 C -318.223318 -16.415227 -318.3956 -15.831437 -318.424314 -15.228508 Z M -295.12792 -17.43925 L -297.44416 -17.027727 C -297.606871 -17.496672 -297.894008 -17.908195 -298.267286 -18.233586 C -298.774562 -18.645109 -299.415835 -18.836516 -300.066679 -18.788664 C -300.707952 -18.807805 -301.339654 -18.645109 -301.885214 -18.300578 C -302.325491 -18.05175 -302.603057 -17.573234 -302.603057 -17.066008 C -302.622199 -16.654484 -302.440346 -16.252531 -302.114924 -16.003703 C -301.645933 -15.668742 -301.100373 -15.448625 -300.53567 -15.343352 L -298.458711 -14.864836 C -296.065901 -14.319328 -294.869497 -13.132609 -294.869497 -11.31425 C -294.850354 -10.558195 -295.089635 -9.821281 -295.549055 -9.218352 C -296.037188 -8.577141 -296.688032 -8.079484 -297.434588 -7.782805 C -298.324714 -7.419133 -299.272266 -7.237297 -300.22939 -7.256437 C -301.502365 -7.199016 -302.756197 -7.533977 -303.837747 -8.203898 C -304.747014 -8.825969 -305.369145 -9.79257 -305.541427 -10.893156 L -303.072048 -11.266398 C -302.765768 -9.964836 -301.827787 -9.314055 -300.248532 -9.314055 C -299.549832 -9.285344 -298.84156 -9.46718 -298.248144 -9.840422 C -297.788724 -10.108391 -297.501587 -10.596477 -297.492016 -11.132414 C -297.492016 -11.965031 -298.114146 -12.520109 -299.348836 -12.797648 L -301.569363 -13.285734 C -302.583915 -13.44843 -303.531467 -13.907805 -304.287595 -14.616008 C -304.87144 -15.238078 -305.187291 -16.070695 -305.158578 -16.932023 C -305.168149 -17.659367 -304.938439 -18.377141 -304.507733 -18.9705 C -304.038743 -19.57343 -303.426184 -20.042375 -302.708341 -20.329484 C -301.885214 -20.664445 -300.985518 -20.836711 -300.085821 -20.81757 C -298.898988 -20.884562 -297.721726 -20.559172 -296.745459 -19.88925 C -295.931904 -19.28632 -295.35763 -18.424992 -295.118349 -17.43925 Z M -290.773007 -2.595695 L -290.773007 -20.645305 L -288.274914 -20.645305 L -288.274914 -18.511125 L -288.064346 -18.511125 C -287.86335 -18.846086 -287.652783 -19.161906 -287.413502 -19.458586 C -287.097651 -19.850969 -286.70523 -20.176359 -286.255382 -20.406047 C -285.642823 -20.702727 -284.972836 -20.846281 -284.293278 -20.81757 C -283.288298 -20.827141 -282.302461 -20.549602 -281.460192 -20.013664 C -280.598781 -19.439445 -279.919223 -18.635539 -279.498088 -17.697648 C -278.990813 -16.549211 -278.751532 -15.30507 -278.780245 -14.06093 C -278.751532 -12.807219 -278.990813 -11.563078 -279.488517 -10.414641 C -279.90008 -9.46718 -280.579638 -8.653703 -281.441049 -8.079484 C -282.283318 -7.533977 -283.259585 -7.246867 -284.264565 -7.266008 C -284.934551 -7.237297 -285.604538 -7.371281 -286.217097 -7.667961 C -286.666945 -7.897648 -287.068938 -8.213469 -287.39436 -8.605852 C -287.643212 -8.902531 -287.86335 -9.227922 -288.054775 -9.562883 L -288.217486 -9.562883 L -288.217486 -2.595695 Z M -288.265342 -14.08007 C -288.32277 -12.902922 -288.01649 -11.725773 -287.384788 -10.730461 C -286.820085 -9.888273 -285.85339 -9.400187 -284.838839 -9.438469 C -284.14971 -9.419328 -283.470152 -9.629875 -282.924591 -10.050969 C -282.388602 -10.491203 -281.98661 -11.065422 -281.7569 -11.716203 C -281.488906 -12.472258 -281.354908 -13.276164 -281.36448 -14.08007 C -281.354908 -14.874406 -281.488906 -15.668742 -281.7569 -16.415227 C -281.977039 -17.056437 -282.379031 -17.621086 -282.91502 -18.05175 C -283.470152 -18.463273 -284.14971 -18.67382 -284.84841 -18.645109 C -285.85339 -18.702531 -286.820085 -18.224016 -287.39436 -17.391398 C -288.01649 -16.405656 -288.32277 -15.247648 -288.255771 -14.08007 Z M -269.094152 -7.256437 C -270.223558 -7.227727 -271.343393 -7.524406 -272.31966 -8.098625 C -273.238498 -8.672844 -273.985055 -9.495891 -274.454046 -10.472062 C -274.980464 -11.582219 -275.238887 -12.797648 -275.210173 -14.022648 C -275.238887 -15.257219 -274.980464 -16.482219 -274.454046 -17.592375 C -273.985055 -18.568547 -273.238498 -19.401164 -272.31966 -19.965812 C -271.343393 -20.549602 -270.223558 -20.836711 -269.094152 -20.81757 C -267.964746 -20.836711 -266.844911 -20.549602 -265.868645 -19.965812 C -264.949806 -19.391594 -264.212821 -18.568547 -263.734259 -17.592375 C -263.207841 -16.482219 -262.949417 -15.257219 -262.978131 -14.022648 C -262.949417 -12.797648 -263.207841 -11.582219 -263.734259 -10.472062 C -264.20325 -9.495891 -264.940235 -8.672844 -265.859074 -8.098625 C -266.83534 -7.524406 -267.955175 -7.227727 -269.084581 -7.256437 Z M -269.084581 -9.400187 C -268.366738 -9.371477 -267.668038 -9.591594 -267.103335 -10.031828 C -266.567345 -10.472062 -266.165353 -11.055852 -265.935644 -11.716203 C -265.67722 -12.462687 -265.552794 -13.237883 -265.562365 -14.032219 C -265.552794 -14.816984 -265.67722 -15.60175 -265.935644 -16.348234 C -266.165353 -17.008586 -266.567345 -17.592375 -267.103335 -18.04218 C -267.668038 -18.482414 -268.366738 -18.712102 -269.084581 -18.683391 C -269.802424 -18.712102 -270.510695 -18.482414 -271.075399 -18.04218 C -271.620959 -17.592375 -272.022951 -17.008586 -272.252661 -16.348234 C -272.511084 -15.60175 -272.645082 -14.816984 -272.63551 -14.032219 C -272.645082 -13.237883 -272.511084 -12.462687 -272.252661 -11.716203 C -272.022951 -11.055852 -271.620959 -10.472062 -271.075399 -10.031828 C -270.510695 -9.591594 -269.802424 -9.371477 -269.07501 -9.400187 Z M -256.278264 -15.314641 L -256.278264 -7.514836 L -258.833785 -7.514836 L -258.833785 -20.645305 L -256.383548 -20.645305 L -256.383548 -18.501555 L -256.220837 -18.501555 C -255.924129 -19.190617 -255.426424 -19.774406 -254.794722 -20.176359 C -254.057737 -20.626164 -253.205897 -20.846281 -252.354057 -20.81757 C -251.138509 -20.865422 -249.961247 -20.406047 -249.109407 -19.554289 C -248.228853 -18.539836 -247.788576 -17.209562 -247.884289 -15.869719 L -247.884289 -7.514836 L -250.439809 -7.514836 L -250.439809 -15.563469 C -250.391953 -16.367375 -250.650376 -17.171281 -251.176794 -17.793352 C -251.712784 -18.34843 -252.45934 -18.645109 -253.225039 -18.597258 C -254.038595 -18.625969 -254.842579 -18.319719 -255.426424 -17.7455 C -256.029412 -17.085148 -256.335692 -16.20468 -256.268693 -15.314641 Z M -233.326435 -17.43925 L -235.642675 -17.027727 C -235.814957 -17.496672 -236.092523 -17.908195 -236.465801 -18.233586 C -236.982648 -18.645109 -237.623921 -18.836516 -238.274765 -18.788664 C -238.906467 -18.807805 -239.538169 -18.645109 -240.083729 -18.300578 C -240.533578 -18.05175 -240.811144 -17.573234 -240.811144 -17.066008 C -240.830286 -16.644914 -240.638861 -16.252531 -240.313439 -16.003703 C -239.844448 -15.668742 -239.308459 -15.448625 -238.743756 -15.343352 L -236.657226 -14.864836 C -234.264417 -14.319328 -233.068012 -13.132609 -233.068012 -11.31425 C -233.058441 -10.558195 -233.297722 -9.821281 -233.74757 -9.218352 C -234.235703 -8.577141 -234.886547 -8.079484 -235.633104 -7.782805 C -236.523229 -7.419133 -237.470781 -7.237297 -238.437476 -7.256437 C -239.70088 -7.199016 -240.954712 -7.533977 -242.036262 -8.203898 C -242.955101 -8.825969 -243.56766 -9.79257 -243.739942 -10.893156 L -241.270563 -11.266398 C -240.964283 -9.964836 -240.026302 -9.314055 -238.456619 -9.314055 C -237.748347 -9.285344 -237.049647 -9.46718 -236.446659 -9.840422 C -235.987239 -10.108391 -235.709674 -10.596477 -235.690531 -11.132414 C -235.690531 -11.965031 -236.312662 -12.520109 -237.547351 -12.797648 L -239.767879 -13.285734 C -240.792001 -13.44843 -241.729982 -13.907805 -242.48611 -14.616008 C -243.069956 -15.238078 -243.385807 -16.070695 -243.357093 -16.932023 C -243.376235 -17.659367 -243.146526 -18.377141 -242.706249 -18.9705 C -242.246829 -19.57343 -241.624699 -20.042375 -240.916427 -20.329484 C -240.083729 -20.664445 -239.193604 -20.836711 -238.293908 -20.81757 C -237.107074 -20.884562 -235.929812 -20.559172 -234.943975 -19.88925 C -234.130419 -19.28632 -233.556145 -18.424992 -233.326435 -17.43925 Z M -228.971522 -7.514836 L -228.971522 -20.645305 L -226.416001 -20.645305 L -226.416001 -7.514836 Z M -227.679405 -22.664641 C -228.11011 -22.65507 -228.521674 -22.817766 -228.827953 -23.114445 C -229.124662 -23.391984 -229.296944 -23.774797 -229.296944 -24.18632 C -229.306515 -24.597844 -229.134233 -24.990227 -228.827953 -25.267766 C -228.521674 -25.564445 -228.11011 -25.727141 -227.679405 -25.71757 C -227.25827 -25.727141 -226.846707 -25.564445 -226.549999 -25.267766 C -226.243719 -24.990227 -226.061866 -24.597844 -226.071437 -24.18632 C -226.061866 -23.774797 -226.243719 -23.391984 -226.549999 -23.114445 C -226.846707 -22.827336 -227.25827 -22.664641 -227.679405 -22.664641 Z M -221.486814 -7.514836 L -221.486814 -25.018937 L -218.931293 -25.018937 L -218.931293 -18.520695 L -218.778153 -18.520695 C -218.577157 -18.846086 -218.36659 -19.161906 -218.127309 -19.468156 C -217.811458 -19.860539 -217.419037 -20.176359 -216.969189 -20.415617 C -216.35663 -20.702727 -215.677072 -20.846281 -214.997514 -20.81757 C -214.002105 -20.827141 -213.016268 -20.549602 -212.164428 -20.013664 C -211.312588 -19.439445 -210.63303 -18.635539 -210.202324 -17.697648 C -209.70462 -16.549211 -209.455767 -15.30507 -209.484481 -14.06093 C -209.455767 -12.807219 -209.695048 -11.563078 -210.202324 -10.414641 C -210.613887 -9.46718 -211.283874 -8.653703 -212.145285 -8.079484 C -212.987554 -7.533977 -213.973392 -7.246867 -214.978372 -7.266008 C -215.648358 -7.237297 -216.318345 -7.371281 -216.921333 -7.667961 C -217.371181 -7.897648 -217.773173 -8.213469 -218.098595 -8.596281 C -218.347448 -8.902531 -218.567586 -9.218352 -218.759011 -9.553312 L -218.979149 -9.553312 L -218.979149 -7.514836 Z M -218.979149 -14.08007 C -219.036577 -12.902922 -218.730297 -11.725773 -218.098595 -10.730461 C -217.533892 -9.888273 -216.567197 -9.400187 -215.552646 -9.438469 C -214.863517 -9.419328 -214.19353 -9.629875 -213.638398 -10.050969 C -213.102409 -10.491203 -212.700417 -11.065422 -212.470707 -11.716203 C -212.202713 -12.472258 -212.068715 -13.276164 -212.078287 -14.08007 C -212.068715 -14.874406 -212.202713 -15.668742 -212.470707 -16.415227 C -212.690846 -17.056437 -213.092838 -17.621086 -213.628827 -18.05175 C -214.183959 -18.463273 -214.863517 -18.67382 -215.562217 -18.645109 C -216.567197 -18.702531 -217.533892 -18.224016 -218.108167 -17.391398 C -218.730297 -16.405656 -219.027005 -15.247648 -218.969578 -14.08007 Z M -205.340135 -7.514836 L -205.340135 -20.645305 L -202.784614 -20.645305 L -202.784614 -7.514836 Z M -204.048018 -22.664641 C -204.469152 -22.65507 -204.880715 -22.817766 -205.186995 -23.114445 C -205.493275 -23.391984 -205.665557 -23.774797 -205.665557 -24.18632 C -205.665557 -24.597844 -205.493275 -24.990227 -205.186995 -25.267766 C -204.880715 -25.564445 -204.469152 -25.727141 -204.048018 -25.71757 C -203.626883 -25.727141 -203.21532 -25.564445 -202.90904 -25.267766 C -202.602761 -24.990227 -202.430479 -24.597844 -202.430479 -24.18632 C -202.430479 -23.774797 -202.602761 -23.391984 -202.90904 -23.114445 C -203.21532 -22.827336 -203.617312 -22.664641 -204.038447 -22.664641 Z M -195.491331 -25.018937 L -195.491331 -7.514836 L -198.046851 -7.514836 L -198.046851 -25.018937 Z M -190.763139 -7.514836 L -190.763139 -20.645305 L -188.207619 -20.645305 L -188.207619 -7.514836 Z M -189.471022 -22.664641 C -189.892157 -22.65507 -190.30372 -22.817766 -190.609999 -23.114445 C -190.916279 -23.382414 -191.088561 -23.774797 -191.088561 -24.18632 C -191.088561 -24.597844 -190.916279 -24.990227 -190.609999 -25.267766 C -190.30372 -25.564445 -189.892157 -25.727141 -189.471022 -25.71757 C -189.049888 -25.727141 -188.638324 -25.564445 -188.332045 -25.267766 C -188.025765 -24.990227 -187.853483 -24.597844 -187.853483 -24.18632 C -187.853483 -23.774797 -188.025765 -23.382414 -188.332045 -23.114445 C -188.638324 -22.827336 -189.040316 -22.664641 -189.461451 -22.664641 Z M -177.344263 -20.635734 L -177.344263 -18.587687 L -180.033781 -18.587687 L -180.033781 -11.371672 C -180.033781 -10.634758 -179.880641 -10.156242 -179.564791 -9.936125 C -179.239368 -9.725578 -178.856519 -9.610734 -178.464098 -9.620305 C -178.282245 -9.620305 -178.100391 -9.629875 -177.928109 -9.658586 L -177.564402 -9.735148 L -177.104982 -7.620109 C -177.31555 -7.543547 -177.526117 -7.486125 -177.746255 -7.447844 C -178.081249 -7.380852 -178.425813 -7.34257 -178.760807 -7.34257 C -179.411651 -7.333 -180.052924 -7.447844 -180.64634 -7.706242 C -181.220615 -7.9455 -181.708748 -8.347453 -182.053313 -8.86425 C -182.436162 -9.457609 -182.618016 -10.146672 -182.589302 -10.845305 L -182.589302 -18.587687 L -184.503549 -18.587687 L -184.503549 -20.635734 L -182.579731 -20.635734 L -182.579731 -23.784367 L -180.02421 -23.784367 L -180.02421 -20.635734 Z M -171.706804 -2.413859 C -172.06094 -2.413859 -172.415076 -2.44257 -172.75964 -2.519133 C -172.979779 -2.557414 -173.199917 -2.624406 -173.420056 -2.720109 L -172.797925 -4.835148 C -172.223651 -4.643742 -171.611092 -4.634172 -171.027246 -4.787297 C -170.558255 -4.949992 -170.156263 -5.457219 -169.840413 -6.308977 L -169.457563 -7.34257 L -174.262325 -20.645305 L -171.524951 -20.645305 L -168.203731 -10.452922 L -168.069734 -10.452922 L -164.738943 -20.645305 L -162.001569 -20.645305 L -167.466746 -5.600773 C -167.773025 -4.682023 -168.328157 -3.868547 -169.065142 -3.246477 C -169.82127 -2.681828 -170.74968 -2.385148 -171.697233 -2.42343 Z M -171.706804 -2.413859 " transform="matrix(0.408124,0,0,0.408163,277.058101,34.493061)"/>
<path style=" stroke:none;fill-rule:nonzero;fill:rgb(0%,39.607843%,60%);fill-opacity:1;" d="M 24.050781 4.519531 C 24.050781 5.78125 24.023438 6.902344 24.066406 8.019531 C 24.082031 8.460938 23.9375 8.554688 23.546875 8.535156 C 21.703125 8.414062 19.851562 8.628906 18.085938 9.171875 C 16.464844 9.6875 14.964844 10.53125 13.6875 11.652344 C 12.558594 12.597656 11.65625 13.785156 11.050781 15.128906 C 10.25 16.929688 10.027344 18.933594 10.414062 20.863281 C 10.941406 23.644531 12.414062 25.863281 14.453125 27.738281 C 16.957031 29.980469 20.019531 31.507812 23.320312 32.148438 C 24.0625 32.3125 24.054688 32.3125 24.046875 33.105469 C 24.035156 34.070312 24.03125 35.03125 24.046875 35.996094 C 24.050781 36.320312 23.96875 36.488281 23.609375 36.453125 C 23.191406 36.410156 22.789062 36.605469 22.554688 36.953125 C 22.042969 37.605469 21.507812 38.242188 21.003906 38.90625 C 20.144531 40.042969 19.488281 40.25 18.183594 39.734375 C 16.804688 39.191406 15.417969 38.65625 14.054688 38.070312 C 12.679688 37.476562 12.527344 36.84375 12.8125 35.695312 C 13.015625 34.875 13.21875 34.050781 13.429688 33.230469 C 13.578125 32.78125 13.402344 32.292969 13.003906 32.046875 C 11.992188 31.25 11.011719 30.414062 10.042969 29.566406 C 9.714844 29.265625 9.273438 29.121094 8.835938 29.171875 C 7.503906 29.292969 6.175781 29.390625 4.847656 29.519531 C 3.894531 29.65625 2.960938 29.160156 2.542969 28.292969 C 1.90625 27.152344 1.296875 26 0.703125 24.835938 C 0.269531 23.996094 0.570312 23.335938 1.515625 22.929688 C 2.5625 22.476562 3.605469 22.015625 4.660156 21.578125 C 5.0625 21.445312 5.308594 21.039062 5.238281 20.621094 C 5.164062 19.601562 5.085938 18.578125 5.066406 17.554688 C 5.113281 16.992188 4.804688 16.460938 4.292969 16.21875 C 3.296875 15.695312 2.332031 15.113281 1.355469 14.550781 C 1.15625 14.441406 0.964844 14.316406 0.785156 14.175781 C -0.117188 13.445312 -0.203125 12.964844 0.328125 11.9375 C 0.734375 11.136719 1.128906 10.332031 1.503906 9.515625 C 2.019531 8.414062 2.671875 8.035156 3.847656 8.300781 C 5.195312 8.605469 6.535156 8.972656 7.875 9.324219 C 8.300781 9.453125 8.765625 9.363281 9.117188 9.082031 C 9.96875 8.449219 10.832031 7.835938 11.679688 7.199219 C 12.394531 6.660156 12.398438 6.589844 12.113281 5.714844 C 11.800781 4.753906 11.492188 3.792969 11.207031 2.824219 C 10.976562 2.039062 11.207031 1.503906 11.976562 1.285156 C 13.621094 0.820312 15.273438 0.359375 16.949219 0.03125 C 17.78125 -0.132812 18.476562 0.386719 18.992188 1.054688 C 19.550781 1.777344 20.15625 2.472656 20.640625 3.242188 C 21.210938 4.148438 22.03125 4.382812 23.007812 4.394531 C 23.355469 4.414062 23.703125 4.457031 24.046875 4.519531 "/>
<path style=" stroke:none;fill-rule:nonzero;fill:rgb(99.215686%,50.588235%,22.745098%);fill-opacity:1;" d="M 26.664062 35.96875 C 26.476562 35.96875 26.308594 35.964844 26.148438 35.957031 C 25.984375 35.902344 25.855469 35.769531 25.8125 35.601562 C 25.792969 34.898438 25.796875 34.207031 25.796875 33.472656 C 25.796875 33.257812 25.796875 32.988281 25.796875 32.730469 C 25.851562 32.734375 25.910156 32.738281 25.96875 32.738281 L 25.988281 32.738281 C 26.097656 32.746094 26.21875 32.75 26.34375 32.761719 C 26.667969 32.789062 27.003906 32.824219 27.300781 32.851562 L 27.339844 32.855469 C 27.636719 32.886719 27.945312 32.914062 28.25 32.941406 C 28.363281 32.953125 28.472656 32.957031 28.574219 32.957031 C 29.277344 32.992188 29.949219 32.671875 30.371094 32.105469 C 30.445312 32.011719 30.523438 31.917969 30.601562 31.828125 L 30.605469 31.828125 C 30.941406 31.539062 31.136719 31.121094 31.144531 30.679688 C 31.097656 30.277344 31.023438 29.882812 30.914062 29.496094 C 30.894531 29.421875 30.875 29.34375 30.855469 29.265625 C 30.84375 29.21875 30.832031 29.171875 30.820312 29.121094 L 30.820312 29.117188 C 30.707031 28.691406 30.597656 28.285156 30.914062 27.878906 C 30.957031 27.816406 30.992188 27.746094 31.015625 27.675781 C 31.027344 27.640625 31.039062 27.601562 31.054688 27.566406 C 31.242188 27.273438 31.289062 26.910156 31.183594 26.578125 C 31.070312 26.347656 30.796875 26.191406 30.300781 26.078125 C 30.25 26.0625 30.199219 26.039062 30.152344 26.003906 L 30.101562 25.972656 C 30.242188 25.886719 30.375 25.796875 30.527344 25.699219 C 30.785156 25.535156 31.03125 25.375 31.285156 25.222656 C 31.445312 25.128906 31.519531 25.050781 31.542969 24.957031 C 31.558594 24.832031 31.523438 24.703125 31.445312 24.605469 C 31.082031 23.953125 30.972656 23.195312 31.136719 22.46875 C 31.199219 22.015625 31.558594 21.660156 32.015625 21.613281 C 32.464844 21.558594 32.855469 21.277344 33.054688 20.871094 C 33.179688 20.453125 33.085938 19.996094 32.800781 19.664062 C 32.597656 19.390625 32.371094 19.132812 32.132812 18.886719 C 31.988281 18.738281 31.84375 18.582031 31.707031 18.425781 C 31.597656 18.292969 31.5 18.15625 31.410156 18.011719 C 31.210938 17.660156 30.921875 17.367188 30.570312 17.164062 C 30.316406 17.035156 30.136719 16.792969 30.085938 16.511719 C 30.023438 15.992188 30.1875 15.46875 30.542969 15.082031 C 31.019531 14.507812 31.066406 13.976562 30.988281 13.195312 C 30.894531 12.574219 30.660156 11.988281 30.308594 11.46875 C 30.121094 11.167969 29.957031 10.847656 29.816406 10.519531 C 29.660156 10.109375 29.460938 9.703125 29.269531 9.3125 C 29.085938 8.941406 28.898438 8.558594 28.746094 8.171875 C 28.648438 7.921875 28.515625 7.691406 28.355469 7.476562 C 28.226562 7.308594 28.085938 7.148438 27.933594 7 C 27.929688 7 27.929688 6.996094 27.929688 6.992188 C 27.761719 6.824219 27.582031 6.667969 27.410156 6.523438 C 26.855469 6.050781 26.277344 5.628906 25.660156 5.183594 L 25.65625 5.179688 C 25.410156 5 25.132812 4.796875 24.859375 4.59375 C 26.125 4.175781 27.445312 3.953125 28.777344 3.933594 C 28.941406 3.933594 29.109375 3.9375 29.273438 3.945312 C 29.335938 3.953125 29.394531 3.953125 29.460938 3.957031 L 29.472656 3.957031 C 29.574219 3.945312 29.679688 3.9375 29.785156 3.933594 C 29.796875 3.933594 29.8125 3.933594 29.824219 3.933594 C 29.839844 3.933594 29.851562 3.933594 29.867188 3.933594 C 29.917969 3.933594 29.960938 3.933594 30.003906 3.933594 C 31.320312 3.976562 32.613281 4.285156 33.808594 4.847656 C 35.164062 5.40625 36.367188 6.285156 37.316406 7.410156 C 37.320312 7.414062 37.324219 7.421875 37.328125 7.425781 L 37.332031 7.433594 C 37.347656 7.457031 37.367188 7.476562 37.386719 7.496094 C 37.410156 7.539062 37.441406 7.582031 37.472656 7.625 C 37.539062 7.730469 37.589844 7.8125 37.632812 7.890625 L 37.632812 7.894531 L 37.660156 7.941406 C 37.710938 8.027344 37.761719 8.105469 37.8125 8.1875 C 37.988281 8.484375 38.128906 8.800781 38.238281 9.128906 C 38.316406 9.34375 38.398438 9.566406 38.496094 9.773438 C 38.667969 10.128906 38.859375 10.480469 39.039062 10.824219 C 39.210938 11.144531 39.386719 11.476562 39.550781 11.804688 C 39.757812 12.226562 39.9375 12.664062 40.085938 13.113281 C 40.25 13.597656 40.171875 14.132812 39.871094 14.546875 C 39.550781 15.015625 39.335938 15.546875 39.238281 16.105469 C 39.25 16.507812 39.40625 16.890625 39.679688 17.1875 C 40.140625 17.757812 40.636719 18.316406 41.121094 18.855469 C 41.394531 19.164062 41.679688 19.480469 41.953125 19.796875 C 42.140625 19.96875 42.234375 20.21875 42.199219 20.472656 C 42.105469 20.71875 41.898438 20.902344 41.640625 20.96875 C 41.203125 21.089844 40.808594 21.335938 40.515625 21.683594 C 40.296875 22.074219 40.210938 22.527344 40.273438 22.972656 C 40.289062 23.195312 40.324219 23.417969 40.375 23.636719 C 40.4375 23.882812 40.472656 24.132812 40.480469 24.382812 C 40.476562 24.601562 40.226562 24.84375 40.007812 25.03125 C 39.902344 25.117188 39.785156 25.183594 39.65625 25.230469 C 39.539062 25.277344 39.433594 25.335938 39.332031 25.40625 C 39.199219 25.53125 39.136719 25.710938 39.164062 25.890625 L 39.257812 26.167969 C 39.25 26.1875 39.242188 26.207031 39.234375 26.226562 C 39.226562 26.242188 39.21875 26.261719 39.214844 26.277344 C 39.273438 26.304688 39.335938 26.332031 39.398438 26.359375 C 39.535156 26.425781 39.679688 26.480469 39.824219 26.527344 C 40.117188 26.609375 40.277344 26.707031 40.328125 26.839844 C 40.359375 26.980469 40.320312 27.128906 40.226562 27.238281 C 39.75 27.953125 39.722656 28.871094 40.148438 29.617188 C 40.367188 30.164062 40.292969 30.789062 39.941406 31.265625 C 39.742188 31.582031 39.476562 31.855469 39.164062 32.058594 C 38.871094 32.257812 38.523438 32.371094 38.167969 32.378906 C 38.070312 32.382812 37.976562 32.371094 37.878906 32.351562 C 36.71875 32.121094 35.535156 32.015625 34.347656 32.035156 C 34.070312 32.035156 33.785156 32.039062 33.46875 32.042969 C 33.152344 32.011719 32.859375 32.210938 32.777344 32.519531 C 32.488281 33.382812 32.203125 34.257812 31.929688 35.121094 C 31.769531 35.601562 31.316406 35.929688 30.808594 35.925781 C 30.785156 35.925781 30.761719 35.925781 30.738281 35.925781 C 30.492188 35.910156 30.226562 35.902344 29.929688 35.902344 C 29.554688 35.902344 29.171875 35.914062 28.800781 35.925781 L 28.789062 35.925781 C 28.546875 35.933594 28.273438 35.941406 28.003906 35.945312 C 27.824219 35.945312 27.640625 35.949219 27.464844 35.953125 L 27.429688 35.953125 C 27.179688 35.960938 26.921875 35.96875 26.664062 35.96875 Z M 31.078125 8.597656 C 31.019531 8.597656 30.957031 8.609375 30.898438 8.625 C 30.574219 8.726562 30.394531 9.070312 30.492188 9.394531 C 30.570312 9.652344 30.808594 9.828125 31.078125 9.828125 C 31.140625 9.828125 31.199219 9.820312 31.257812 9.800781 C 31.414062 9.753906 31.546875 9.648438 31.621094 9.503906 C 31.699219 9.359375 31.714844 9.191406 31.667969 9.035156 C 31.589844 8.777344 31.347656 8.597656 31.078125 8.597656 Z M 31.078125 7.953125 C 31.347656 7.953125 31.605469 8.039062 31.820312 8.195312 C 32.042969 8.355469 32.207031 8.585938 32.285156 8.847656 C 32.324219 8.972656 32.441406 9.058594 32.574219 9.058594 C 32.605469 9.058594 32.632812 9.054688 32.664062 9.046875 C 32.824219 9 32.910156 8.828125 32.863281 8.667969 C 32.621094 7.886719 31.898438 7.351562 31.078125 7.347656 C 30.894531 7.351562 30.710938 7.378906 30.535156 7.429688 C 30.375 7.480469 30.285156 7.648438 30.332031 7.808594 C 30.371094 7.9375 30.488281 8.023438 30.621094 8.023438 C 30.652344 8.023438 30.683594 8.019531 30.710938 8.007812 C 30.828125 7.972656 30.953125 7.953125 31.078125 7.953125 Z M 31.078125 6.820312 C 31.585938 6.820312 32.078125 6.980469 32.492188 7.28125 C 32.910156 7.585938 33.21875 8.015625 33.371094 8.511719 C 33.410156 8.640625 33.527344 8.726562 33.660156 8.726562 C 33.6875 8.726562 33.71875 8.722656 33.746094 8.714844 C 33.824219 8.691406 33.886719 8.636719 33.925781 8.566406 C 33.964844 8.496094 33.972656 8.414062 33.949219 8.335938 C 33.554688 7.078125 32.394531 6.222656 31.078125 6.214844 C 30.78125 6.214844 30.488281 6.257812 30.203125 6.34375 C 30.125 6.367188 30.0625 6.421875 30.023438 6.492188 C 29.988281 6.5625 29.980469 6.644531 30.003906 6.722656 C 30.039062 6.851562 30.160156 6.9375 30.292969 6.9375 C 30.320312 6.9375 30.351562 6.933594 30.378906 6.921875 C 30.605469 6.855469 30.839844 6.820312 31.078125 6.820312 Z M 31.078125 5.621094 C 31.839844 5.625 32.582031 5.867188 33.195312 6.3125 C 33.828125 6.769531 34.289062 7.421875 34.515625 8.164062 C 34.554688 8.292969 34.671875 8.378906 34.804688 8.378906 C 34.835938 8.378906 34.863281 8.375 34.894531 8.367188 C 35.050781 8.316406 35.140625 8.148438 35.09375 7.988281 C 34.769531 6.921875 34.035156 6.03125 33.050781 5.507812 C 32.445312 5.1875 31.769531 5.019531 31.085938 5.015625 C 30.667969 5.015625 30.253906 5.078125 29.851562 5.203125 C 29.691406 5.25 29.605469 5.417969 29.652344 5.578125 C 29.691406 5.707031 29.808594 5.792969 29.941406 5.792969 C 29.972656 5.792969 30 5.789062 30.03125 5.78125 C 30.367188 5.675781 30.722656 5.621094 31.078125 5.621094 Z M 31.078125 5.621094 "/>
<path style=" stroke:none;fill-rule:nonzero;fill:rgb(0%,39.607843%,60%);fill-opacity:1;" d="M 30.4375 9.410156 C 30.328125 9.054688 30.527344 8.679688 30.882812 8.570312 C 30.945312 8.550781 31.011719 8.542969 31.078125 8.542969 C 31.375 8.542969 31.632812 8.734375 31.722656 9.019531 C 31.773438 9.1875 31.757812 9.371094 31.671875 9.527344 C 31.589844 9.6875 31.445312 9.804688 31.277344 9.855469 C 31.210938 9.875 31.144531 9.882812 31.078125 9.882812 C 30.785156 9.882812 30.523438 9.691406 30.4375 9.410156 Z M 32.230469 8.863281 C 32.15625 8.613281 32 8.394531 31.789062 8.242188 C 31.582031 8.089844 31.335938 8.011719 31.082031 8.007812 C 30.960938 8.007812 30.84375 8.027344 30.730469 8.0625 C 30.695312 8.070312 30.660156 8.078125 30.625 8.078125 C 30.464844 8.078125 30.324219 7.972656 30.28125 7.824219 C 30.222656 7.632812 30.328125 7.433594 30.519531 7.375 C 30.699219 7.316406 30.890625 7.289062 31.078125 7.289062 C 31.921875 7.292969 32.667969 7.84375 32.917969 8.648438 C 32.976562 8.839844 32.871094 9.039062 32.679688 9.097656 C 32.644531 9.109375 32.609375 9.113281 32.574219 9.113281 C 32.417969 9.113281 32.277344 9.011719 32.230469 8.863281 Z M 33.316406 8.53125 C 33.167969 8.046875 32.867188 7.621094 32.457031 7.324219 C 32.058594 7.035156 31.574219 6.878906 31.082031 6.875 C 30.847656 6.875 30.621094 6.910156 30.398438 6.980469 C 30.363281 6.988281 30.328125 6.996094 30.292969 6.996094 C 30.136719 6.996094 29.996094 6.890625 29.949219 6.738281 C 29.921875 6.648438 29.929688 6.550781 29.976562 6.464844 C 30.019531 6.382812 30.097656 6.320312 30.1875 6.292969 C 30.476562 6.203125 30.777344 6.15625 31.082031 6.15625 C 32.421875 6.164062 33.605469 7.039062 34.003906 8.320312 C 34.03125 8.410156 34.023438 8.511719 33.976562 8.59375 C 33.933594 8.679688 33.855469 8.742188 33.765625 8.769531 C 33.730469 8.78125 33.695312 8.785156 33.660156 8.785156 C 33.503906 8.785156 33.363281 8.683594 33.3125 8.53125 Z M 34.460938 8.179688 C 34.238281 7.445312 33.785156 6.808594 33.164062 6.359375 C 32.558594 5.917969 31.828125 5.679688 31.078125 5.675781 C 30.730469 5.675781 30.382812 5.730469 30.046875 5.832031 C 30.011719 5.84375 29.976562 5.847656 29.941406 5.847656 C 29.785156 5.847656 29.644531 5.746094 29.597656 5.59375 C 29.539062 5.402344 29.648438 5.203125 29.835938 5.144531 C 30.242188 5.019531 30.664062 4.957031 31.085938 4.957031 C 31.78125 4.957031 32.464844 5.128906 33.078125 5.457031 C 34.074219 5.984375 34.820312 6.890625 35.148438 7.96875 C 35.207031 8.160156 35.101562 8.359375 34.910156 8.417969 C 34.875 8.429688 34.839844 8.433594 34.804688 8.433594 C 34.644531 8.4375 34.503906 8.332031 34.460938 8.179688 Z M 34.460938 8.179688 "/>
<path style=" stroke:none;fill-rule:nonzero;fill:rgb(0%,39.607843%,60%);fill-opacity:1;" d="M 21.984375 26.777344 C 20.824219 26.8125 19.679688 26.503906 18.695312 25.894531 C 17.808594 25.324219 17.144531 24.472656 16.808594 23.476562 L 18.707031 22.367188 C 19.242188 23.875 20.355469 24.628906 22.042969 24.628906 C 22.699219 24.675781 23.359375 24.503906 23.910156 24.140625 C 24.3125 23.84375 24.542969 23.367188 24.535156 22.867188 C 24.554688 22.359375 24.296875 21.878906 23.863281 21.617188 C 23.109375 21.203125 22.308594 20.886719 21.480469 20.667969 L 19.941406 20.097656 C 19.492188 19.925781 19.070312 19.699219 18.675781 19.421875 C 18.253906 19.144531 17.914062 18.757812 17.6875 18.300781 C 17.460938 17.808594 17.351562 17.269531 17.363281 16.730469 C 17.316406 15.640625 17.785156 14.59375 18.628906 13.902344 C 19.484375 13.199219 20.566406 12.828125 21.675781 12.855469 C 22.671875 12.832031 23.652344 13.105469 24.496094 13.640625 C 25.304688 14.171875 25.949219 14.925781 26.355469 15.808594 L 24.496094 16.882812 C 24.058594 15.714844 22.921875 14.957031 21.675781 15.003906 C 21.128906 14.976562 20.589844 15.132812 20.140625 15.453125 C 19.765625 15.742188 19.550781 16.195312 19.566406 16.671875 C 19.554688 17.132812 19.773438 17.566406 20.15625 17.824219 C 20.820312 18.226562 21.535156 18.527344 22.285156 18.71875 L 23.386719 19.132812 L 24.390625 19.511719 C 24.742188 19.628906 25.074219 19.804688 25.367188 20.027344 C 25.613281 20.238281 25.847656 20.46875 26.0625 20.707031 C 26.308594 20.976562 26.484375 21.292969 26.585938 21.640625 C 26.691406 22.027344 26.742188 22.425781 26.738281 22.824219 C 26.78125 23.941406 26.296875 25.011719 25.425781 25.710938 C 24.4375 26.457031 23.21875 26.832031 21.984375 26.777344 Z M 21.984375 26.777344 "/>
</g>
</svg>
