<?xml version="1.0" encoding="UTF-8"?>
<svg xmlns="http://www.w3.org/2000/svg" xmlns:xlink="http://www.w3.org/1999/xlink" width="12px" height="21px" viewBox="0 0 12 21" version="1.1">
<g id="surface1">
<path style=" stroke:none;fill-rule:nonzero;fill:rgb(99.215686%,50.588235%,22.745098%);fill-opacity:1;" d="M 0.746094 0.0273438 C 0.476562 0.0976562 0.242188 0.289062 0.121094 0.542969 C -0.0117188 0.8125 0 -0.179688 0 10.5 C 0 21.175781 -0.0117188 20.1875 0.121094 20.457031 C 0.207031 20.632812 0.386719 20.824219 0.546875 20.898438 C 0.777344 21.007812 0.328125 21 6 21 C 11.667969 21 11.21875 21.007812 11.449219 20.898438 C 11.609375 20.824219 11.789062 20.632812 11.878906 20.457031 C 12.007812 20.1875 11.996094 21.175781 11.996094 10.5 C 11.996094 -0.179688 12.007812 0.8125 11.878906 0.542969 C 11.789062 0.363281 11.613281 0.179688 11.449219 0.101562 C 11.21875 -0.0078125 11.667969 0 5.988281 0 C 1.542969 0 0.824219 0.00390625 0.746094 0.0273438 Z M 11.316406 10.074219 L 11.316406 18.113281 L 0.679688 18.113281 L 0.679688 2.035156 L 11.316406 2.035156 Z M 11.316406 10.074219 "/>
</g>
</svg>
